<?xml version="1.0" encoding="UTF-8" standalone="no"?>
<!-- Created with Inkscape (http://www.inkscape.org/) -->

<svg
   xmlns:dc="http://purl.org/dc/elements/1.1/"
   xmlns:cc="http://creativecommons.org/ns#"
   xmlns:rdf="http://www.w3.org/1999/02/22-rdf-syntax-ns#"
   xmlns:svg="http://www.w3.org/2000/svg"
   xmlns="http://www.w3.org/2000/svg"
   xmlns:sodipodi="http://sodipodi.sourceforge.net/DTD/sodipodi-0.dtd"
   xmlns:inkscape="http://www.inkscape.org/namespaces/inkscape"
   width="36.780037"
   height="34.592018"
   id="svg2"
   version="1.1"
   inkscape:version="0.48.3.1 r9886"
   sodipodi:docname="favicon.svg">
  <defs
     id="defs4" />
  <sodipodi:namedview
     id="base"
     pagecolor="#ffffff"
     bordercolor="#666666"
     borderopacity="1.0"
     inkscape:pageopacity="0.0"
     inkscape:pageshadow="2"
     inkscape:zoom="15"
     inkscape:cx="14.607174"
     inkscape:cy="2.5735291"
     inkscape:document-units="px"
     inkscape:current-layer="layer1"
     showgrid="false"
     fit-margin-top="0"
     fit-margin-left="0"
     fit-margin-right="0"
     fit-margin-bottom="0"
     inkscape:window-width="1871"
     inkscape:window-height="1176"
     inkscape:window-x="49"
     inkscape:window-y="24"
     inkscape:window-maximized="1" />
  <metadata
     id="metadata7">
    <rdf:RDF>
      <cc:Work
         rdf:about="">
        <dc:format>image/svg+xml</dc:format>
        <dc:type
           rdf:resource="http://purl.org/dc/dcmitype/StillImage" />
        <dc:title />
      </cc:Work>
    </rdf:RDF>
  </metadata>
  <g
     inkscape:label="Layer 1"
     inkscape:groupmode="layer"
     id="layer1"
     transform="translate(-227.59292,-408.89346)"
     style="display:inline">
    <g
       style="font-size:40px;font-style:normal;font-weight:normal;line-height:125%;letter-spacing:0px;word-spacing:0px;fill:#000000;fill-opacity:1;stroke:none;font-family:Bitstream Vera Sans"
       id="text2993"
       transform="matrix(0.70710678,0.70710678,-0.70710678,0.70710678,374.31136,-49.538661)">
      <path
         d="m 248.7975,438.3575 c 0.79998,2.8 1.19998,5.09333 1.2,6.88 -2e-5,1.41333 -0.49335,2.57332 -1.48,3.48 -0.98668,0.90666 -2.18668,1.35999 -3.6,1.36 -1.33335,-10e-6 -2.49334,-0.40001 -3.48,-1.2 -0.98668,-0.77334 -1.48001,-1.72001 -1.48,-2.84 -1e-5,-0.80001 0.26666,-1.56001 0.8,-2.28 0.55999,-0.69334 1.22666,-1.04 2,-1.04 0.79999,0 1.43999,0.28 1.92,0.84 0.50665,0.58666 0.75999,1.25333 0.76,2 -1e-5,1.65332 -0.93335,2.47999 -2.8,2.48 0.47999,0.74666 1.25332,1.11999 2.32,1.12 0.39999,-1e-5 0.79999,-0.0667 1.2,-0.2 0.42665,-0.10668 0.86665,-0.30668 1.32,-0.6 0.45332,-0.29334 0.81332,-0.76001 1.08,-1.4 0.29332,-0.61334 0.43998,-1.36001 0.44,-2.24 -2e-5,-0.56001 -0.37335,-2.57334 -1.12,-6.04 -0.58668,0.16 -1.32002,0.24 -2.2,0.24 -2.58668,0 -4.81334,-0.96 -6.68,-2.88 -1.84001,-1.92 -2.76,-4.21333 -2.76,-6.88 0,-0.93332 0.14666,-1.87999 0.44,-2.84 0.31999,-0.95999 0.66666,-1.79999 1.04,-2.52 0.39999,-0.74665 0.97333,-1.57332 1.72,-2.48 0.77332,-0.93332 1.41332,-1.66665 1.92,-2.2 0.53332,-0.55998 1.26666,-1.30665 2.2,-2.24 -0.61334,-2.18664 -0.92001,-4.18664 -0.92,-6 -10e-6,-2.39997 0.43999,-4.39997 1.32,-6 0.87999,-1.62663 1.75999,-2.43996 2.64,-2.44 0.26665,4e-5 0.55998,0.17337 0.88,0.52 0.34665,0.3467 0.67998,0.8267 1,1.44 0.31998,0.61337 0.58665,1.4267 0.8,2.44 0.23998,0.9867 0.35998,2.05336 0.36,3.2 -2e-5,4.24002 -1.50668,7.74669 -4.52,10.52 l 1.04,4.72 c 0.42665,-0.08 0.81332,-0.11999 1.16,-0.12 1.62665,10e-6 2.99998,0.66668 4.12,2 1.11998,1.30668 1.67998,2.90668 1.68,4.8 -2e-5,3.14667 -1.44002,5.28 -4.32,6.4 m -0.32,-29.76 c -2e-5,-1.46664 -0.42668,-2.19997 -1.28,-2.2 -0.96001,3e-5 -1.77335,0.7067 -2.44,2.12 -0.66668,1.41336 -1.00001,2.98669 -1,4.72 -1e-5,1.12002 0.17332,2.09336 0.52,2.92 1.01332,-0.61331 1.95999,-1.70664 2.84,-3.28 0.90665,-1.59997 1.35998,-3.02664 1.36,-4.28 m 2.88,24.72 c -2e-5,-1.46666 -0.42669,-2.63999 -1.28,-3.52 -0.85335,-0.87999 -1.96002,-1.31999 -3.32,-1.32 l 1.8,9.04 c 1.86665,-0.77333 2.79998,-2.17333 2.8,-4.2 m -3.64,4.44 -1.84,-9.2 c -0.72001,0.16001 -1.38668,0.60001 -2,1.32 -0.58668,0.72001 -0.88001,1.46667 -0.88,2.24 -1e-5,0.40001 0.08,0.80001 0.24,1.2 0.15999,0.37334 0.34665,0.69334 0.56,0.96 0.23999,0.26667 0.47999,0.50667 0.72,0.72 0.23999,0.21334 0.43999,0.37334 0.6,0.48 0.15999,0.08 0.23999,0.12 0.24,0.12 l -0.32,0.2 c -0.88001,-0.24 -1.72001,-0.77333 -2.52,-1.6 -0.77334,-0.82666 -1.16001,-1.86666 -1.16,-3.12 -10e-6,-1.25332 0.38666,-2.39999 1.16,-3.44 0.79999,-1.06665 1.67999,-1.77332 2.64,-2.12 l -0.72,-4.28 c -4.18668,3.49335 -6.28001,6.86668 -6.28,10.12 -1e-5,1.94667 0.73333,3.57334 2.2,4.88 1.46666,1.30667 3.13332,1.96 5,1.96 0.45332,0 1.23998,-0.14667 2.36,-0.44"
         id="path3000"
         inkscape:connector-curvature="0" />
    </g>
    <rect
       style="fill:#ffffff;fill-opacity:1;stroke:none"
       id="rect3814"
       width="38.25"
       height="35.5"
       x="53.342918"
       y="243.98547" />
  </g>
</svg>
