<?xml version="1.0" encoding="UTF-8" standalone="no"?>
<!-- Created with Inkscape (http://www.inkscape.org/) -->

<svg
   xmlns:dc="http://purl.org/dc/elements/1.1/"
   xmlns:cc="http://creativecommons.org/ns#"
   xmlns:rdf="http://www.w3.org/1999/02/22-rdf-syntax-ns#"
   xmlns:svg="http://www.w3.org/2000/svg"
   xmlns="http://www.w3.org/2000/svg"
   version="1.2"
   width="46.032001"
   height="50.688"
   id="svg2">
  <defs
     id="defs4" />
  <metadata
     id="metadata7">
    <rdf:RDF>
      <cc:Work
         rdf:about="">
        <dc:format>image/svg+xml</dc:format>
        <dc:type
           rdf:resource="http://purl.org/dc/dcmitype/StillImage" />
        <dc:title></dc:title>
      </cc:Work>
    </rdf:RDF>
  </metadata>
  <g
     transform="translate(-259.08925,-208.55225)"
     id="layer1">
    <g
       id="flowRoot3339"
       style="font-size:48px;font-style:normal;font-variant:normal;font-weight:normal;font-stretch:normal;line-height:125%;letter-spacing:0px;word-spacing:0px;fill:#000000;fill-opacity:1;stroke:none;font-family:Bravura;-inkscape-font-specification:Bravura">
      <path
         d="m 304.25725,232.45625 -5.712,0 c -0.48,-9.02399 -7.20001,-16.272 -14.976,-16.896 l 0,-6.192 c 0,-0.624 -0.528,-0.816 -1.152,-0.816 -0.624,0 -1.152,0.192 -1.152,0.816 l 0,6.192 c -7.77599,0.624 -14.448,7.82401 -14.976,16.896 l -6.336,0 c -0.672,0 -0.864,0.528 -0.864,1.152 0,0.624 0.192,1.152 0.864,1.152 l 6.336,0 c 0.528,8.97599 7.20001,16.272 14.976,16.896 l 0,6.72 c 0,0.672 0.528,0.864 1.152,0.864 0.624,0 1.152,-0.192 1.152,-0.864 l 0,-6.72 c 7.77599,-0.624 14.496,-7.92001 14.976,-16.896 l 5.712,0 c 0.672,0 0.864,-0.528 0.864,-1.152 0,-0.624 -0.192,-1.152 -0.864,-1.152 m -13.632,0 -7.056,0 0,-14.208 c 6.71999,0.576 7.056,6.43201 7.056,14.208 m -9.36,-14.208 0,14.208 -6.816,0 c 0,-7.77599 10e-6,-13.632 6.816,-14.208 m -6.816,16.512 6.816,0 0,14.592 c -6.19199,-0.72 -6.768,-7.20001 -6.816,-14.592 m 9.12,14.592 0,-14.592 7.056,0 c -0.144,7.34399 -1.05601,13.872 -7.056,14.592"
         id="path3356" />
    </g>
  </g>
</svg>
