<?xml version="1.0" encoding="UTF-8" standalone="no"?>
<!-- Created with Inkscape (http://www.inkscape.org/) -->

<svg
   xmlns:dc="http://purl.org/dc/elements/1.1/"
   xmlns:cc="http://creativecommons.org/ns#"
   xmlns:rdf="http://www.w3.org/1999/02/22-rdf-syntax-ns#"
   xmlns:svg="http://www.w3.org/2000/svg"
   xmlns="http://www.w3.org/2000/svg"
   version="1.2"
   width="17.568001"
   height="48"
   id="svg2">
  <defs
     id="defs4" />
  <metadata
     id="metadata7">
    <rdf:RDF>
      <cc:Work
         rdf:about="">
        <dc:format>image/svg+xml</dc:format>
        <dc:type
           rdf:resource="http://purl.org/dc/dcmitype/StillImage" />
        <dc:title></dc:title>
      </cc:Work>
    </rdf:RDF>
  </metadata>
  <g
     transform="translate(-272.15625,-238.65625)"
     id="layer1">
    <g
       id="flowRoot3215"
       style="font-size:48px;font-style:normal;font-variant:normal;font-weight:normal;font-stretch:normal;line-height:125%;letter-spacing:0px;word-spacing:0px;fill:#000000;fill-opacity:1;stroke:none;font-family:Bravura;-inkscape-font-specification:Bravura">
      <path
         d="m 281.37225,286.65625 1.728,0 0,-48 -1.728,0 0,48 m -9.216,0 6,0 0,-48 -6,0 0,48 m 15.168,-15.36 c 1.344,0 2.4,-1.056 2.4,-2.4 0,-1.296 -1.056,-2.4 -2.4,-2.4 -1.296,0 -2.4,1.104 -2.4,2.4 0,1.344 1.104,2.4 2.4,2.4 m 0,-12.096 c 1.344,0 2.4,-1.056 2.4,-2.4 0,-1.344 -1.056,-2.4 -2.4,-2.4 -1.296,0 -2.4,1.056 -2.4,2.4 0,1.344 1.104,2.4 2.4,2.4"
         id="path3229" />
    </g>
  </g>
</svg>
