<?xml version="1.0" encoding="UTF-8" standalone="no"?>
<!-- Created with Inkscape (http://www.inkscape.org/) -->

<svg
   xmlns:dc="http://purl.org/dc/elements/1.1/"
   xmlns:cc="http://creativecommons.org/ns#"
   xmlns:rdf="http://www.w3.org/1999/02/22-rdf-syntax-ns#"
   xmlns:svg="http://www.w3.org/2000/svg"
   xmlns="http://www.w3.org/2000/svg"
   version="1.2"
   width="25.535999"
   height="25.392"
   id="svg3173">
  <defs
     id="defs3175" />
  <metadata
     id="metadata3178">
    <rdf:RDF>
      <cc:Work
         rdf:about="">
        <dc:format>image/svg+xml</dc:format>
        <dc:type
           rdf:resource="http://purl.org/dc/dcmitype/StillImage" />
        <dc:title></dc:title>
      </cc:Work>
    </rdf:RDF>
  </metadata>
  <g
     transform="translate(-294.28125,-360.38925)"
     id="layer1">
    <g
       id="flowRoot3181"
       style="font-size:48px;font-style:normal;font-variant:normal;font-weight:normal;font-stretch:normal;line-height:125%;letter-spacing:0px;word-spacing:0px;fill:#000000;fill-opacity:1;stroke:none;font-family:Bravura;-inkscape-font-specification:Bravura">
      <path
         d="m 300.42525,385.10925 19.152,-24 c 0.144,-0.192 0.24,-0.336 0.24,-0.48 0,-0.144 -0.096,-0.24 -0.288,-0.24 l -5.088,0 c -0.384,0 -0.528,0.288 -0.864,0.72 l -19.152,24 c -0.096,0.096 -0.144,0.24 -0.144,0.336 0,0.192 0.144,0.336 0.384,0.336 l 4.752,0 c 0.432,0 0.768,-0.384 1.008,-0.672 m -3.168,-20.928 c -1.632,0 -2.976,1.344 -2.976,3.024 0,1.632 1.344,2.976 2.976,2.976 1.68,0 3.024,-1.344 3.024,-2.976 0,-1.68 -1.344,-3.024 -3.024,-3.024 m 19.536,11.952 c -1.632,0 -2.976,1.344 -2.976,3.024 0,1.632 1.344,2.976 2.976,2.976 1.68,0 3.024,-1.344 3.024,-2.976 0,-1.68 -1.344,-3.024 -3.024,-3.024"
         id="path3190" />
    </g>
  </g>
</svg>
