<?xml version="1.0" encoding="UTF-8" standalone="no"?>
<!-- Created with Inkscape (http://www.inkscape.org/) -->

<svg
   xmlns:dc="http://purl.org/dc/elements/1.1/"
   xmlns:cc="http://creativecommons.org/ns#"
   xmlns:rdf="http://www.w3.org/1999/02/22-rdf-syntax-ns#"
   xmlns:svg="http://www.w3.org/2000/svg"
   xmlns="http://www.w3.org/2000/svg"
   version="1.2"
   width="26.208"
   height="37.728001"
   id="svg2">
  <defs
     id="defs4" />
  <metadata
     id="metadata7">
    <rdf:RDF>
      <cc:Work
         rdf:about="">
        <dc:format>image/svg+xml</dc:format>
        <dc:type
           rdf:resource="http://purl.org/dc/dcmitype/StillImage" />
        <dc:title></dc:title>
      </cc:Work>
    </rdf:RDF>
  </metadata>
  <g
     transform="translate(-229.47325,-268.78675)"
     id="layer1">
    <g
       id="flowRoot3088"
       style="font-size:48px;font-style:normal;font-variant:normal;font-weight:normal;font-stretch:normal;line-height:125%;letter-spacing:0px;word-spacing:0px;fill:#000000;fill-opacity:1;stroke:none;font-family:Bravura;-inkscape-font-specification:Bravura">
      <path
         d="m 249.20125,282.85075 c 0,1.488 1.248,2.736 2.736,2.736 1.536,0 2.736,-1.248 2.736,-2.736 0,-1.536 -1.2,-2.736 -2.736,-2.736 -1.488,0 -2.736,1.2 -2.736,2.736 m -13.2,9.696 c 0,-1.488 -1.2,-2.736 -2.736,-2.736 -1.488,0 -2.736,1.248 -2.736,2.736 0,1.536 1.248,2.736 2.736,2.736 1.536,0 2.736,-1.2 2.736,-2.736 m -0.24,-19.248 c 0.288,0 0.624,0.096 0.768,0.624 l 0.096,0.336 c 0.336,1.296 1.056,4.128 3.504,4.128 0.432,0 0.864,-0.048 1.392,-0.24 1.392,-0.48 1.92,-1.632 1.92,-2.976 0,-0.72 -0.144,-1.488 -0.384,-2.256 -0.768,-2.208 -3.984,-3.024 -6.432,-3.024 -3.36,0 -7.152,4.128 -7.152,8.88 0,1.152 0.24,2.352 0.768,3.552 1.536,3.504 8.496,7.776 8.88,7.92 0.192,0.096 0.288,0.192 0.288,0.384 0,0.192 -0.096,0.432 -0.288,0.768 -0.336,0.672 -7.248,13.104 -7.248,13.104 -0.096,0.192 -0.144,0.432 -0.144,0.624 0,0.48 0.24,0.96 0.672,1.2 0.24,0.144 0.432,0.192 0.672,0.192 0.48,0 0.96,-0.288 1.2,-0.72 0,0 7.44,-13.44 7.584,-13.728 0,0.048 0.384,-0.24 0.576,-0.24 0.72,0.144 10.32,2.976 10.32,7.536 0,1.872 -1.152,3.12 -2.688,3.36 -0.096,0 -0.24,0.048 -0.336,0.048 -0.912,0 -1.728,-0.672 -1.728,-2.16 l 0,-0.528 c 0,-1.824 -1.2,-3.168 -2.544,-3.168 -0.192,0 -0.384,0.048 -0.576,0.096 -1.776,0.432 -3.408,1.2 -3.408,3.12 0,0.192 0,0.384 0.048,0.624 0.336,2.064 2.496,4.848 5.76,4.848 0.624,0 1.296,-0.096 2.016,-0.336 3.84,-1.296 6.384,-4.416 6.384,-8.4 0,-0.432 -0.048,-0.912 -0.096,-1.392 -0.72,-5.27999 -8.304,-9.552 -8.88,-9.84 -0.576,-0.336 -0.816,-0.528 -0.816,-0.768 0,-0.096 0.048,-0.192 0.096,-0.288 0.24,-0.384 7.68,-13.776 7.68,-13.776 0.144,-0.24 0.192,-0.432 0.192,-0.672 0,-0.48 -0.288,-0.96 -0.72,-1.2 -0.192,-0.096 -0.432,-0.144 -0.624,-0.144 -0.48,0 -0.96,0.24 -1.2,0.672 0,0 -7.632,13.776 -7.92,14.208 -0.144,0.24 -0.24,0.384 -0.432,0.384 -0.144,0 -0.288,-0.048 -0.48,-0.144 -0.432,-0.144 -7.68,-2.928 -8.928,-5.088 -0.288,-0.528 -0.672,-1.536 -0.672,-2.544 0,-1.296 0.576,-2.64 2.592,-2.976 l 0.288,0"
         id="path3097" />
    </g>
  </g>
</svg>
