<?xml version="1.0" encoding="UTF-8" standalone="no"?>
<!-- Created with Inkscape (http://www.inkscape.org/) -->

<svg
   xmlns:dc="http://purl.org/dc/elements/1.1/"
   xmlns:cc="http://creativecommons.org/ns#"
   xmlns:rdf="http://www.w3.org/1999/02/22-rdf-syntax-ns#"
   xmlns:svg="http://www.w3.org/2000/svg"
   xmlns="http://www.w3.org/2000/svg"
   version="1.2"
   width="100"
   height="100"
   id="svg2">
  <defs
     id="defs4">
    <linearGradient
       id="linearGradient3796">
      <stop
         id="stop3808"
         style="stop-color:#72377b;stop-opacity:1"
         offset="0" />
      <stop
         id="stop3810"
         style="stop-color:#72377b;stop-opacity:0.24705882"
         offset="0.5" />
      <stop
         id="stop3800"
         style="stop-color:#72377b;stop-opacity:0"
         offset="1" />
    </linearGradient>
  </defs>
  <metadata
     id="metadata7">
    <rdf:RDF>
      <cc:Work
         rdf:about="">
        <dc:format>image/svg+xml</dc:format>
        <dc:type
           rdf:resource="http://purl.org/dc/dcmitype/StillImage" />
        <dc:title></dc:title>
      </cc:Work>
    </rdf:RDF>
  </metadata>
  <rect
     width="100"
     height="100"
     x="0"
     y="-2.220446e-16"
     id="rect3007-7"
     style="fill:#72377b;fill-opacity:1" />
  <rect
     width="100"
     height="62.5"
     x="0"
     y="0"
     id="rect3007-7-3"
     style="fill:#9e76a4;fill-opacity:1" />
  <g
     transform="matrix(0.9945219,0.10452846,-0.10452846,0.9945219,-197.49841,-430.36711)"
     id="layer1"
     style="fill:#ffffff;display:inline">
    <g
       id="flowRoot2993"
       style="fill:#ffffff">
      <path
         d="m 297.07366,489.14397 c -0.58263,0.58259 -1.29469,0.87388 -2.13616,0.87389 -0.84156,-10e-6 -1.55361,-0.2913 -2.13616,-0.87389 L 262.5067,459.91741 c -0.32368,-0.2589 -0.7768,-0.67966 -1.35938,-1.26228 -0.55023,-0.58256 -1.4403,-1.63446 -2.6702,-3.15569 -1.22992,-1.55354 -2.33036,-3.13948 -3.30134,-4.75781 -0.97098,-1.61827 -1.84487,-3.57641 -2.62165,-5.87444 -0.74442,-2.29795 -1.11663,-4.53121 -1.11663,-6.69978 0,-7.12048 2.05524,-12.68744 6.16574,-16.70089 4.11048,-4.01333 9.79072,-6.02002 17.04073,-6.02009 2.00667,7e-5 4.04573,0.35609 6.11719,1.06808 2.10376,0.67975 4.04573,1.61837 5.82589,2.81585 1.81247,1.16524 3.36604,2.26568 4.66072,3.30134 1.2946,1.03577 2.52451,2.13622 3.68973,3.30134 1.16513,-1.16512 2.39504,-2.26557 3.68973,-3.30134 1.2946,-1.03566 2.83198,-2.1361 4.61217,-3.30134 1.81244,-1.19748 3.75441,-2.1361 5.82589,-2.81585 2.10374,-0.71199 4.15898,-1.06801 6.16574,-1.06808 7.24993,7e-5 12.93017,2.00676 17.04073,6.02009 4.11041,4.01345 6.16565,9.58041 6.16574,16.70089 -9e-5,7.15294 -3.706,14.4353 -11.11775,21.8471 l -30.24609,29.12946"
         id="path3002"
         style="fill:#ffffff" />
    </g>
  </g>
  <g
     transform="matrix(0.98480775,0.17364818,-0.17364818,0.98480775,-162.56649,-446.2802)"
     id="layer2"
     style="fill:#72377b;fill-opacity:1;display:inline">
    <g
       transform="translate(-78.913596,15.505088)"
       id="flowRoot3004"
       style="fill:#72377b;fill-opacity:1">
      <path
         d="m 381.5,425.27976 c -2e-5,-1.11194 -0.1094,-2.0872 -0.32813,-2.92578 -0.20054,-0.8385 -0.63804,-1.59501 -1.3125,-2.26953 -1.03908,-1.23954 -2.5521,-1.85934 -4.53906,-1.85937 -3.46355,0.1641 -6.12501,2.02347 -7.98437,5.57812 -1.75001,3.17191 -2.62501,7.67451 -2.625,13.50781 -10e-6,3.24481 0.41015,5.86981 1.23047,7.875 0.83853,2.00522 1.91405,3.60939 3.22656,4.8125 1.73176,1.60418 3.81899,2.40626 6.26172,2.40625 2.98956,10e-6 5.7057,-1.31249 8.14843,-3.9375 0.71092,-0.71093 1.33071,-1.49478 1.85938,-2.35156 l 1.42187,2.13281 c -0.45575,1.18491 -1.16669,2.3698 -2.13281,3.55469 -2.05992,2.47917 -4.612,4.19271 -7.65625,5.14063 -1.42189,0.4375 -2.83465,0.65624 -4.23828,0.65625 -1.40366,-10e-6 -2.85288,-0.20053 -4.34766,-0.60157 -3.13542,-0.96614 -5.73307,-2.78906 -7.79296,-5.46875 -2.0599,-2.69791 -3.18099,-6.12499 -3.36329,-10.28125 l 0,-1.03906 c 0,-7.51039 2.38802,-14.0182 7.16407,-19.52344 3.79165,-4.3385 8.14842,-6.50777 13.07031,-6.50781 3.40883,4e-5 6.17966,0.96619 8.3125,2.89844 0.91143,0.80212 1.64971,1.73181 2.21484,2.78906 0.56508,1.05733 0.84763,2.24222 0.84766,3.55469 l 0,0.38281 c -0.0912,1.34899 -0.53779,2.55211 -1.33984,3.60938 -0.78389,1.05732 -1.64977,1.71357 -2.59766,1.96875 -0.94794,0.25523 -1.67711,0.38284 -2.1875,0.38281 l -1.75,-0.27344 c 0.21873,-1.00258 0.36456,-2.15101 0.4375,-3.44531 l 0,-0.76563"
         id="path3991"
         style="fill:#72377b;fill-opacity:1" />
    </g>
  </g>
</svg>
