<?xml version="1.0" standalone="no"?>
<!DOCTYPE svg PUBLIC "-//W3C//DTD SVG 1.1//EN" "http://www.w3.org/Graphics/SVG/1.1/DTD/svg11.dtd" >
<svg xmlns="http://www.w3.org/2000/svg">
<metadata>
This is a custom SVG webfont generated by Font Squirrel.
Copyright   : Copyright c 2003 by Bitstream Inc All Rights ReservedDejaVu changes are in public domain
Foundry     : DejaVu fonts team
Foundry URL : httpdejavusourceforgenet
</metadata>
<defs>
<font id="webfontQ1BqPgls" horiz-adv-x="1714" >
<font-face units-per-em="2048" ascent="1556" descent="-492" />
<missing-glyph horiz-adv-x="649" />
<glyph unicode="&#xfb00;" horiz-adv-x="1454" d="M74 0v106h176v850h-176v107h176v133q0 176 92 268t272 92q66 0 134 -12q70 -12 133 -37v-202h-97q-4 76 -43 114.5t-120 38.5q-100 0 -146 -57q-41 -53 -41 -201v-137h514v131q0 178 92 270q90 90 273 90q66 0 133 -12q70 -12 133 -37v-200h-96q-2 72 -43 112 q-39 39 -121 39q-102 0 -145 -55q-41 -53 -41 -203v-135h294v-109h-294v-850h235v-104h-596v104h176v850l-514 2v-850h236v-106h-596z" />
<glyph unicode="&#xfb01;" horiz-adv-x="1363" d="M74 0v106h176v850h-176v107h176v96q0 197 117 297q115 100 346 100q70 0 178 -14q96 -12 180 -39v-217h-94q-4 86 -64 129q-61 43 -184 43q-152 0 -223.5 -71.5t-71.5 -223.5v-100h711v-957h174v-106h-535v106h177v850h-527v-850h174v-106h-534z" />
<glyph unicode="&#xfb02;" horiz-adv-x="1363" d="M74 0v106h176v850h-176v107h176v96q0 201 118.5 299t364.5 98h397v-1450h175v-106h-535v106h176v1344h-215q-160 0 -229 -66q-68 -65 -68 -221v-100h295v-107h-295v-850h174v-106h-534z" />
<glyph unicode="&#xfb03;" horiz-adv-x="2103" d="M72 0v106h176v850h-176v107h176v133q0 176 92 268t272 92q66 0 133 -12q70 -12 134 -37v-202h-97q0 76 -43 114q-41 39 -121 39q-100 0 -145 -57q-41 -53 -41 -201v-137h557v96q0 197 117 297q115 100 346 100q72 0 178 -14q96 -12 180 -39v-217h-94q-4 86 -63 129 q-61 43 -185 43q-154 0 -225 -72q-70 -70 -69 -223v-100h710v-957h174v-106h-534v106h176v850h-526v-850h174v-106h-535v106h176v850h-557v-850h236v-106h-596z" />
<glyph unicode="&#xfb04;" horiz-adv-x="2109" d="M70 0v106h176v850h-176v107h176v133q0 176 92 268t272 92q66 0 133 -12q70 -12 134 -37v-202h-97q0 76 -43 114q-41 39 -121 39q-100 0 -145 -57q-41 -53 -41 -201v-137h555v96q0 201 119 299q121 98 364 98h398v-1450h174v-106h-535v106h176v1344h-215q-160 0 -229 -66 q-68 -65 -68 -221v-100h295v-107h-295v-850h174v-106h-534v106h176v850h-555v-850h236v-106h-596z" />
<glyph unicode=" "  horiz-adv-x="649" />
<glyph unicode="&#x09;" horiz-adv-x="649" />
<glyph unicode="&#xa0;" horiz-adv-x="649" />
<glyph unicode="!" horiz-adv-x="821" d="M279 104q0 51 38 95q37 39 95 39q55 0 94 -39t39 -94.5t-39 -94.5t-94 -39q-57 0 -95 39q-38 43 -38 94zM283 1493h258l-68 -821v-252h-123v252z" />
<glyph unicode="&#x22;" horiz-adv-x="940" d="M201 938v555h159v-555h-159zM582 938v555h159v-555h-159z" />
<glyph unicode="#" d="M158 414v153h348l82 334h-316v154h355l104 415h170l-102 -415h282l103 415h172l-105 -415h308v-154h-347l-82 -334h314v-153h-352l-103 -414h-172l105 414h-283l-104 -414h-170l102 414h-309zM676 567h285l81 334h-282z" />
<glyph unicode="$" horiz-adv-x="1302" d="M174 922q0 160 111 258q109 96 305 108v268h100v-268q109 -10 195 -33q88 -25 182 -65v-262h-109q-12 113 -81 182q-68 68 -187 78v-453q246 -68 344.5 -153.5t98.5 -231.5q0 -166 -115 -266q-115 -98 -328 -115v-270h-100v270q-98 4 -199 27q-94 23 -215 76v276h109 q2 -135 79.5 -206.5t225.5 -73.5v485q-231 66 -324 147q-92 84 -92 222zM373 987q0 -80 53 -133q51 -51 164 -86v420q-100 -6 -160 -60q-57 -51 -57 -141zM690 68q113 8 172 65q59 55 60 150q0 82 -60 145q-58 61 -172 92v-452z" />
<glyph unicode="%" horiz-adv-x="1945" d="M113 1114q0 182 94 295q92 111 249.5 111t252 -108.5t94.5 -297t-94 -299.5q-92 -109 -252 -108.5t-252 111t-92 296.5zM272 1112.5q0 -149.5 50 -231.5q49 -84 137 -84q86 0 135 84q49 82 49 231.5t-49 230.5q-49 84 -135 84q-88 0 -137 -84q-50 -81 -50 -230.5z M430 -29l934 1549h152l-934 -1549h-152zM1143 377q0 184 94 297q92 111 252 110.5t252 -111t92 -296.5q0 -184 -94 -297q-90 -109 -250 -109q-162 0 -252 109q-94 113 -94 297zM1303 377q0 -143 51 -230q49 -84 135 -84t135 84q49 82 49 229.5t-49 233.5q-47 84 -135 84 t-137 -84q-49 -82 -49 -233z" />
<glyph unicode="&#x26;" horiz-adv-x="1822" d="M147 461q0 133 76 247.5t232 217.5q-47 57 -74 121q-25 61 -25 127q0 162 115 254t311 92q76 0 156 -17q106 -23 205 -51v-258h-113q-16 111 -78 164q-63 55 -174 55q-100 0 -168 -57q-63 -55 -63 -146q0 -59 35 -123q31 -53 141 -172l516 -544q70 82 109 172 q39 92 49 198h-180v107h473v-107h-172q-20 -137 -66 -243q-49 -111 -133 -209l172 -183h235v-106h-401l-137 145q-102 -88 -223 -131q-120 -43 -258 -43q-258 0 -408 131q-152 134 -152 359zM350 483q0 -164 115 -278q113 -113 287 -113q109 0 192 35q92 39 162 104 l-582 613q-88 -78 -131 -168.5t-43 -192.5z" />
<glyph unicode="'" horiz-adv-x="561" d="M201 938v555h159v-555h-159z" />
<glyph unicode="(" horiz-adv-x="798" d="M162 618.5q0 352.5 125 592t366 345.5v-98q-154 -109 -221 -299q-68 -193 -67 -541q0 -347 67 -540q68 -190 221 -299v-98q-242 106 -366.5 345.5t-124.5 592z" />
<glyph unicode=")" horiz-adv-x="798" d="M145 -221q154 109 222 299q68 194 67 540q0 348 -67 541q-68 190 -222 299v98q242 -106 367 -345.5t125 -592t-125 -592t-367 -345.5v98z" />
<glyph unicode="*" horiz-adv-x="1024" d="M33 870l391 183l-391 184l76 119l348 -217l-13 381h136l-13 -381l348 217l76 -119l-391 -182l391 -185l-76 -118l-348 217l13 -381h-136l13 381l-348 -217z" />
<glyph unicode="+" d="M217 561v162h561v561h160v-561h561v-162h-561v-561h-160v561h-561z" />
<glyph unicode="," horiz-adv-x="649" d="M74 -199q96 68 139 162q43 92 43 227v37h197q-10 -176 -80 -293q-76 -127 -219 -213z" />
<glyph unicode="-" horiz-adv-x="690" d="M90 471v156h512v-156h-512z" />
<glyph unicode="." horiz-adv-x="649" d="M193 104q0 51 38 95q37 39 95 39q55 0 94 -39t39 -94.5t-39 -94.5t-94 -39q-57 0 -95 39q-38 43 -38 94z" />
<glyph unicode="/" horiz-adv-x="688" d="M0 -190l530 1683h160l-530 -1683h-160z" />
<glyph unicode="0" horiz-adv-x="1302" d="M135 745.5q0 364.5 137 571.5q135 203 379 203t379 -203q137 -207 137 -571.5t-137 -571.5q-135 -203 -378.5 -203t-379.5 203q-137 207 -137 571.5zM346 745q0 -342 76 -507q76 -168 229.5 -168t229.5 168q76 166 75.5 507.5t-75.5 507.5q-76 168 -229.5 168 t-229.5 -168q-76 -166 -76 -508z" />
<glyph unicode="1" horiz-adv-x="1302" d="M250 1153v131l364 236h138v-1414h260v-106h-721v106h260v1242z" />
<glyph unicode="2" horiz-adv-x="1302" d="M139 0v109l453 452q154 154 215 275q63 125 63 264q0 150 -79.5 235.5t-215.5 85.5q-143 0 -221 -71q-76 -70 -92 -213h-112v266q104 55 215 88q100 29 213 29q236 0 368 -113q135 -114 135 -307q0 -219 -307 -525l-35 -34l-377 -377h623v184h117v-348h-963z" />
<glyph unicode="3" horiz-adv-x="1302" d="M156 72v290h112q10 -145 96.5 -218.5t245.5 -73.5q154 0 242 88t88 243q0 178 -90 267q-94 90 -268 90h-95v102h50q178 0 262 72q88 76 88 219q0 129 -72 201q-70 70 -207 69.5t-209 -63.5q-76 -66 -88 -191h-112v263q133 49 225 67q113 23 201 23q221 0 342 -95 q123 -94 123 -262q0 -139 -84 -225q-90 -92 -242 -123q182 -25 284.5 -133.5t102.5 -278.5q0 -211 -141.5 -321.5t-403.5 -110.5q-119 0 -229 25q-115 25 -221 76z" />
<glyph unicode="4" horiz-adv-x="1302" d="M63 399v109l654 1012h198v-1014h285v-107h-285v-293h240v-106h-680v106h240v293h-652zM205 506h510v794z" />
<glyph unicode="5" horiz-adv-x="1302" d="M174 72v290h113q10 -145 90 -217q86 -76 229 -75q158 0 244 104q84 102 84 299q0 195 -84 297q-86 104 -244 104q-86 0 -157.5 -32.5t-122.5 -98.5h-86v750h790v-164h-684v-428q49 35 121 53q70 18 156 19q244 0 383 -133t139 -367q0 -237 -141 -369q-143 -133 -398 -133 q-102 0 -211 25q-112 25 -221 76z" />
<glyph unicode="6" horiz-adv-x="1302" d="M137 698q0 389 162 607q160 215 453 215q86 0 166 -15q92 -16 178 -45v-246h-113q-12 100 -77.5 153.5t-174.5 53.5q-194 0 -289 -147q-94 -147 -98 -453q72 78 154 113q86 37 194 37q225 0 352 -133q129 -135 130 -367q0 -229 -140 -365q-137 -135 -372 -135 q-254 0 -389.5 188.5t-135.5 538.5zM377 483q0 -201 75.5 -307t217 -106t217.5 104q76 102 76 297t-76 297q-76 104 -217 104q-143 0 -217 -100q-76 -105 -76 -289z" />
<glyph unicode="7" horiz-adv-x="1302" d="M172 1145v348h983v-102l-584 -1391h-149l557 1329h-690v-184h-117z" />
<glyph unicode="8" horiz-adv-x="1302" d="M137 408q0 162 94 262q98 104 267 125q-152 29 -232 114.5t-80 223.5q0 180 123 284q121 102 342 103q219 0 340 -103q125 -106 125 -284q0 -137 -80 -223.5t-231 -114.5q166 -20 264 -125q96 -102 96 -262q0 -209 -133 -324q-131 -113 -381 -113t-381 113 q-133 115 -133 324zM348 407.5q0 -161.5 80 -249.5t223.5 -88t223 88t79.5 249.5t-79.5 249.5t-223 88t-223.5 -88t-80 -249.5zM389 1132.5q0 -137.5 69.5 -213t192.5 -75.5q125 0 193 76q70 80 69.5 213t-69.5 213q-68 76 -193 75q-123 0 -192.5 -75.5t-69.5 -213z" />
<glyph unicode="9" horiz-adv-x="1302" d="M129 1020q0 229 139 364q137 135 373 136q254 0 389 -188.5t135 -538.5q0 -389 -161 -607q-160 -215 -453 -215q-86 0 -166 15q-92 16 -178 45v248h112q12 -96 78 -154q66 -55 174 -55q194 0 289 147q96 147 98 453q-72 -78 -153 -113q-86 -37 -197 -37q-223 0 -350 133 q-129 136 -129 367zM340 1020q0 -195 76 -297q76 -104 217 -104.5t217 100t76 289.5q0 201 -76 307t-217 106t-217 -104q-76 -102 -76 -297z" />
<glyph unicode=":" horiz-adv-x="688" d="M213 104q0 55 39 94.5t94 39.5t94 -39t39 -95q0 -51 -39 -94q-37 -39 -94 -39t-94 39q-39 43 -39 94zM213 756q0 55 39 94t94 39q57 0 94 -37q39 -39 39 -96q0 -55 -39 -94t-94 -39t-94 39t-39 94z" />
<glyph unicode=";" horiz-adv-x="688" d="M74 -199q96 68 139 162q43 92 43 227v37h197q-10 -176 -80 -293q-76 -127 -219 -213zM217 756q0 55 39 94t94.5 39t94 -39t38.5 -94.5t-38.5 -94t-94 -38.5t-94.5 39t-39 94z" />
<glyph unicode="&#x3c;" d="M217 559v166l1282 465v-170l-1038 -379l1038 -377v-170z" />
<glyph unicode="=" d="M217 358v160h1282v-160h-1282zM217 766v160h1282v-160h-1282z" />
<glyph unicode="&#x3e;" d="M217 94v170l1038 377l-1038 379v170l1282 -465v-166z" />
<glyph unicode="?" horiz-adv-x="1097" d="M139 1167v260q121 51 201 70q100 23 180 23q223 0 350 -107q129 -108 129 -289q0 -188 -110.5 -305t-333.5 -168v-254h-123v328q178 43 266 143q90 102 90 258q0 135 -73.5 215t-198.5 80q-111 0 -186 -65q-72 -63 -94 -189h-97zM360 104q0 55 39 94.5t94.5 39.5 t94.5 -39t39 -94.5t-39 -94.5t-94.5 -39t-94.5 39t-39 94z" />
<glyph unicode="@" horiz-adv-x="2048" d="M135 543q0 186 68 348q70 166 194 289q127 127 299 194.5t367 67.5q219 0 391 -82q175 -83 295 -240q72 -92 115 -213q39 -111 39 -239q0 -268 -162 -424q-160 -154 -447 -158v162q-55 -78 -133 -121q-76 -41 -166 -41q-178 0 -284 125q-109 127 -109 325.5t109 325.5 q106 125 284 125q90 0 166 -41q78 -43 133 -121v142h156v-772q170 37 264 161.5t94 313.5q0 111 -34 211q-35 102 -101 182q-109 135 -258 203q-156 72 -332 71q-89 0 -178 -18q-84 -16 -174 -59q-203 -92 -313 -281q-113 -190 -113 -436q0 -166 49 -307q47 -135 146 -244 q109 -121 258 -182q152 -61 323 -62q125 0 242 39q115 39 207 113l53 -70q-109 -94 -246 -139q-141 -47 -299 -47q-184 0 -350 67q-168 68 -291 189q-127 125 -196 290q-66 158 -66 353zM780 536.5q0 -159.5 68 -245.5q70 -88 190 -88q115 0 185 78q72 82 71 204v105 q0 125 -71.5 202.5t-186.5 77.5q-119 0 -188 -88q-68 -86 -68 -245.5z" />
<glyph unicode="A" horiz-adv-x="1478" d="M-12 0v106h131l532 1387h168l533 -1387h147v-106h-543v106h166l-125 328h-628l-125 -328h164v-106h-420zM410 541h548l-274 710z" />
<glyph unicode="B" horiz-adv-x="1503" d="M113 0v106h190v1280h-190v107h737q227 0 340 -92q115 -92 115 -277q0 -133 -80 -213q-78 -78 -232 -96q193 -25 289 -121q98 -98 98 -262q0 -223 -141 -327.5t-436 -104.5h-690zM506 106h299q178 0 262 78t84 248t-82 246q-84 78 -264 78h-299v-650zM506 862h254 q164 0 239.5 63.5t75.5 198.5q0 137 -76 199q-80 63 -239 63h-254v-524z" />
<glyph unicode="C" horiz-adv-x="1566" d="M115 745q0 348 200.5 561.5t530.5 213.5q121 0 260 -31q119 -27 297 -98v-344h-113q-37 186 -149.5 276t-311.5 90q-240 0 -362 -170q-123 -169 -123 -497.5t123 -497.5q123 -170 362 -170q166 0 275 80q106 78 156 237h184q-66 -211 -221.5 -317.5t-393.5 -106.5 q-145 0 -272 49q-121 47 -221 148q-109 109 -166 254q-55 141 -55 323z" />
<glyph unicode="D" horiz-adv-x="1640" d="M113 0v106h190v1280h-190v107h594q387 0 602 -196.5t215 -549t-215 -548.5q-217 -199 -602 -199h-594zM506 106h186q291 0 447 166q156 164 155 476q0 309 -155 475q-154 164 -447 163h-186v-1280z" />
<glyph unicode="E" horiz-adv-x="1492" d="M113 0v106h190v1280h-190v107h1202v-332h-123v209h-686v-500h489v187h123v-496h-123v187h-489v-625h702v209h123v-332h-1218z" />
<glyph unicode="F" horiz-adv-x="1419" d="M113 0v106h190v1280h-190v107h1222v-332h-123v209h-706v-500h510v187h123v-496h-123v187h-510v-642h239v-106h-632z" />
<glyph unicode="G" horiz-adv-x="1634" d="M115 745.5q0 348.5 204 563.5q203 211 549 211q137 0 265 -29q152 -35 290 -90v-354h-112q-33 186 -145.5 276t-309.5 90q-258 0 -385 -166q-127 -168 -127 -502q0 -330 131 -497q133 -170 385 -170q106 0 215 28q102 27 197 84v385h-281v107h484v-557 q-125 -72 -287 -115q-150 -39 -328 -39q-338 0 -541 211q-204 215 -204 563.5z" />
<glyph unicode="H" horiz-adv-x="1785" d="M113 0v106h190v1280h-190v107h583v-107h-190v-516h774v516h-190v107h583v-107h-190v-1280h190v-106h-583v106h190v642h-774v-642h190v-106h-583z" />
<glyph unicode="I" horiz-adv-x="808" d="M113 0v106h190v1280h-190v107h583v-107h-190v-1280h190v-106h-583z" />
<glyph unicode="J" horiz-adv-x="819" d="M-172 -123h115q2 -96 47 -147q43 -49 131 -49q119 0 166 75.5t47 292.5v1337h-232v107h625v-107h-190v-1345q0 -246 -98.5 -356.5t-319.5 -110.5q-78 0 -144 16q-78 20 -147 52v235z" />
<glyph unicode="K" horiz-adv-x="1529" d="M113 0v106h190v1280h-190v107h583v-107h-190v-565l643 565h-162v107h496v-107h-168l-641 -563l717 -717h170v-106h-347l-708 709v-603h190v-106h-583z" />
<glyph unicode="L" horiz-adv-x="1359" d="M113 0v106h190v1280h-190v107h583v-107h-190v-1263h682v250h123v-373h-1198z" />
<glyph unicode="M" horiz-adv-x="2095" d="M102 1386v107h435l524 -1063l524 1063h408v-107h-199v-1280h191v-106h-584v106h190v1154l-512 -1041h-141l-512 1041v-1154h190v-106h-503v106h190v1280h-201z" />
<glyph unicode="N" horiz-adv-x="1792" d="M100 0v106h201v1280h-201v107h383l895 -1178v1071h-200v107h524v-107h-201v-1415h-121l-956 1258v-1123h201v-106h-525z" />
<glyph unicode="O" horiz-adv-x="1677" d="M115 745q0 182 55 324q57 145 166 254q98 98 223 147.5t281 49.5q326 0 526 -213q199 -211 199 -562q0 -180 -55.5 -323t-166.5 -254q-98 -98 -225 -147.5t-278 -49.5q-150 0 -279 49q-125 47 -225 148q-109 109 -166 254q-55 141 -55 323zM344 745.5 q0 -331.5 125 -499.5t370.5 -168t370.5 168t125 499.5t-125 499.5t-370.5 168t-370.5 -168t-125 -499.5z" />
<glyph unicode="P" horiz-adv-x="1376" d="M113 0v106h190v1280h-190v107h706q223 0 354.5 -112.5t131.5 -307.5q0 -193 -131 -305q-133 -115 -355 -115h-313v-547h231v-106h-624zM506 760h264q151 0 227 80q78 82 78 233.5t-78 233.5q-77 80 -227 79h-264v-626z" />
<glyph unicode="Q" horiz-adv-x="1677" d="M115 745q0 182 55 324q57 145 166 254q98 98 223 147.5t281 49.5q326 0 526 -213q199 -211 199 -562q0 -297 -150 -497q-150 -203 -414 -260q55 -68 132 -99q82 -33 186 -32h31v-185q-170 10 -289 82t-197 217q-344 0 -546.5 211t-202.5 563zM344 745.5 q0 -331.5 125 -499.5t370.5 -168t370.5 168t125 499.5t-125 499.5t-370.5 168t-370.5 -168t-125 -499.5z" />
<glyph unicode="R" horiz-adv-x="1540" d="M113 0v106h190v1280h-190v107h757q215 0 336 -104q119 -104 119 -295q0 -152 -86 -242q-86 -89 -258 -111q70 -18 121 -65q53 -49 90 -127l217 -443h182v-106h-352l-233 475q-68 138 -123 178q-57 41 -154 41h-223v-588h211v-106h-604zM506 801h295q152 0 223.5 71.5 t71.5 221t-72 221t-223 71.5h-295v-585z" />
<glyph unicode="S" horiz-adv-x="1402" d="M172 1120q0 190 135 295t379 105q98 0 227 -23q115 -20 265 -65v-318h-113q-18 162 -104 229q-88 70 -271 70q-158 0 -241 -65q-82 -63 -82 -187q0 -106 61 -168q57 -57 264 -121l185 -55q207 -63 290 -155q86 -96 86 -254q0 -215 -139 -326t-414 -111q-123 0 -252 24.5 t-258 76.5v340h115q6 -169 98 -252q90 -82 285 -82q178 0 273 72q92 72 92 204q0 108 -56 166q-53 55 -239 113l-197 59q-217 66 -301 162q-88 100 -88 266z" />
<glyph unicode="T" horiz-adv-x="1363" d="M20 1141v352h1326v-352h-123v233h-439v-1268h191v-106h-584v106h191v1268h-439v-233h-123z" />
<glyph unicode="U" horiz-adv-x="1724" d="M96 1386v107h584v-107h-191v-772q0 -286 93 -399q92 -113 323 -113q229 0 322 113q94 117 94 399v772h-191v107h504v-107h-190v-792q0 -342 -131 -481q-133 -141 -445 -142q-315 0 -448 142q-133 143 -133 481v792h-191z" />
<glyph unicode="V" horiz-adv-x="1478" d="M-20 1386v107h544v-107h-166l441 -1146l440 1146h-168v107h438v-107h-145l-533 -1386h-172l-530 1386h-149z" />
<glyph unicode="W" horiz-adv-x="2103" d="M10 1386v107h545v-107h-186l311 -1103l340 1210h162l346 -1223l313 1116h-172v107h430v-107h-147l-391 -1386h-164l-342 1214l-342 -1214h-164l-391 1386h-148z" />
<glyph unicode="X" horiz-adv-x="1456" d="M12 0v106h172l430 627l-436 653h-160v107h592v-107h-176l320 -481l329 481h-192v107h489v-107h-168l-395 -575l471 -705h160v-106h-592v106h178l-356 533l-365 -533h193v-106h-494z" />
<glyph unicode="Y" horiz-adv-x="1351" d="M-23 1386v107h555v-107h-174l373 -604l373 604h-168v107h434v-107h-141l-449 -724v-556h191v-106h-584v106h191v537l-461 743h-140z" />
<glyph unicode="Z" horiz-adv-x="1421" d="M92 0v72l930 1298h-772v-223h-123v346h1180v-72l-930 -1298h844v209h122v-332h-1251z" />
<glyph unicode="[" horiz-adv-x="798" d="M176 -270v1826h465v-106h-274v-1614h274v-106h-465z" />
<glyph unicode="\" horiz-adv-x="688" d="M0 1493h160l530 -1683h-160z" />
<glyph unicode="]" horiz-adv-x="798" d="M158 -164h274v1614h-274v106h465v-1826h-465v106z" />
<glyph unicode="^" d="M217 936l543 557h196l543 -557h-153l-488 381l-487 -381h-154z" />
<glyph unicode="_" horiz-adv-x="1024" d="M0 -403h1024v-80h-1024v80z" />
<glyph unicode="`" horiz-adv-x="1024" d="M170 1636h197l260 -376h-117z" />
<glyph unicode="a" horiz-adv-x="1220" d="M102 319q0 164 119 256q117 90 336 91h258v73q0 119 -73.5 186.5t-206.5 67.5q-106 0 -174 -51t-82 -147h-95v215q92 39 187 61q84 20 176 21q221 0 336 -109q117 -111 116 -319v-558h164v-106h-348v115q-63 -76 -141 -109q-82 -35 -187 -35q-178 0 -280 95 q-105 93 -105 253zM307 319q0 -111 68 -176q70 -66 184.5 -65.5t185.5 72.5q70 70 70 184v225h-237q-133 0 -203 -59q-68 -58 -68 -181z" />
<glyph unicode="b" horiz-adv-x="1310" d="M59 0v106h177v1344h-177v106h361v-659q55 102 137 147q84 47 207 48q197 0 319 -154q125 -156 125 -406q0 -246 -125 -405q-123 -156 -319 -156q-123 0 -207 47q-82 45 -137 148v-166h-361zM420 479q0 -193 73.5 -293t213 -100t213 112.5t73.5 334t-73 331.5 q-76 113 -213 113q-139 0 -213 -100q-74 -102 -74 -293v-105z" />
<glyph unicode="c" horiz-adv-x="1146" d="M102 532.5q0 253.5 142 407.5q139 152 372 152q109 0 201 -23q106 -27 201 -72v-272h-107q-20 139 -92 205q-70 63 -201 63q-147 0 -225 -116q-76 -115 -76 -345q0 -231 76 -346q78 -117 225 -116q120 0 191 61q72 61 96 188h148q-41 -172 -149.5 -260t-287.5 -88 q-231 0 -372.5 154t-141.5 407.5z" />
<glyph unicode="d" horiz-adv-x="1310" d="M102 532q0 252 123 406t322 154q123 0 207 -48q82 -45 137 -147v553h-174v106h358v-1450h176v-106h-360v166q-55 -102 -137 -148q-84 -47 -207 -47q-195 0 -320 155.5t-125 405.5zM317 532q0 -223 72 -333q74 -113 215 -113q139 0 213 100.5t74 292.5v105q0 190 -74 293 q-74 100 -213 100t-215 -113q-72 -107 -72 -332z" />
<glyph unicode="e" horiz-adv-x="1210" d="M102 532q0 250 140 406q139 154 364 154q242 0 371 -148q127 -145 133 -432h-793v-8q0 -213 80 -323.5t240 -110.5q123 0 199 63q78 66 108 189h148q-43 -174 -162 -262.5t-312 -88.5q-233 0 -374.5 153.5t-141.5 407.5zM317 618h576q-6 188 -78 281q-74 94 -209 94 q-127 0 -200 -96q-73 -95 -89 -279z" />
<glyph unicode="f" horiz-adv-x="757" d="M74 0v106h176v850h-176v107h176v133q0 176 92 268t272 92q66 0 134 -12q70 -12 133 -37v-202h-97q0 76 -43 114q-41 39 -120 39q-100 0 -146 -57q-41 -53 -41 -201v-137h297v-107h-297v-850h236v-106h-596z" />
<glyph unicode="g" horiz-adv-x="1310" d="M102 532q0 252 123 406t322 154q123 0 207 -48q82 -45 137 -147v166h360v-107h-176v-933q0 -225 -127 -353q-125 -125 -358 -125q-106 0 -201 19q-86 16 -184 57v223h96q18 -104 84 -151q68 -49 193 -49q160 0 237 92q76 90 76 287v143q-55 -102 -137 -148 q-84 -47 -207 -47q-195 0 -320 155.5t-125 405.5zM317 532q0 -223 72 -333q74 -113 215 -113q139 0 213 100.5t74 292.5v105q0 190 -74 293q-74 100 -213 100t-215 -113q-72 -107 -72 -332z" />
<glyph unicode="h" horiz-adv-x="1318" d="M74 1450v106h360v-682q53 109 133 162q84 55 189 56q178 0 260 -100.5t82 -315.5v-570h164v-106h-508v106h159v512q0 195 -47 266.5t-170 71.5q-125 0 -194 -94q-68 -92 -68 -270v-486h160v-106h-510v106h166v1344h-176z" />
<glyph unicode="i" horiz-adv-x="653" d="M74 0v106h176v850h-176v107h360v-957h174v-106h-534zM199 1393q0 45 34.5 79.5t79.5 34.5t80 -34q33 -33 33 -80t-33 -80t-80 -33t-80 33q-34 35 -34 80z" />
<glyph unicode="j" horiz-adv-x="634" d="M-197 -170h95q6 -95 49 -141q43 -45 125 -45q92 0 135 61.5t43 190.5v1060h-174v107h358v-1167q0 -166 -98 -258.5t-268 -92.5q-68 0 -138 17q-66 16 -127 49v219zM205 1393q0 47 33 80q35 35 81 34q45 0 80 -34q33 -33 33 -80t-32.5 -80t-80.5 -33q-49 0 -81.5 33 t-32.5 80z" />
<glyph unicode="k" horiz-adv-x="1239" d="M59 1450v106h361v-1013l448 413h-153v107h481v-107h-182l-316 -292l404 -558h153v-106h-524v106h152l-318 437l-145 -135v-302h166v-106h-516v106h166v1344h-177z" />
<glyph unicode="l" horiz-adv-x="653" d="M59 0v106h177v1344h-177v106h361v-1450h174v-106h-535z" />
<glyph unicode="m" horiz-adv-x="1941" d="M74 958v105h360v-189q53 109 129 162q80 55 180 56q125 0 207 -62q84 -61 111 -174q53 119 135 176q84 59 193 60q168 0 249.5 -102.5t81.5 -313.5v-570h166v-106h-510v106h160v549q0 166 -47 232q-51 70 -160 69q-123 0 -188 -94q-63 -90 -64 -270v-486h160v-106h-504 v106h160v556q0 162 -47 227q-49 68 -160 67q-123 0 -188 -94q-63 -90 -64 -270v-486h160v-106h-510v106h166v852h-176z" />
<glyph unicode="n" horiz-adv-x="1318" d="M74 956v107h360v-189q53 109 133 162q84 55 189 56q178 0 260 -100.5t82 -315.5v-570h164v-106h-508v106h159v512q0 193 -49 266.5t-168 73.5q-125 0 -194 -94q-68 -92 -68 -272v-486h160v-106h-510v106h166v850h-176z" />
<glyph unicode="o" horiz-adv-x="1232" d="M102 532q0 254 140 406q141 154 374 154q231 0 372.5 -154t141.5 -406q0 -254 -141 -407.5t-372.5 -153.5t-373 153.5t-141.5 407.5zM317 532q0 -231 76 -346q78 -117 223.5 -116.5t223.5 116.5q76 115 75 346q0 229 -75 345q-78 117 -223.5 116.5t-223.5 -116.5 q-76 -116 -76 -345z" />
<glyph unicode="p" horiz-adv-x="1310" d="M59 -319h177v1275h-177v107h361v-166q55 102 137 147q84 47 207 48q197 0 319 -154q125 -156 125 -406q0 -246 -125 -405q-123 -156 -319 -156q-123 0 -207 47q-82 45 -137 148v-485h174v-107h-535v107zM420 479q0 -193 73.5 -293t213 -100t213 112.5t73.5 334t-73 331.5 q-76 113 -213 113q-139 0 -213 -100q-74 -102 -74 -293v-105z" />
<glyph unicode="q" horiz-adv-x="1310" d="M102 532q0 252 123 406t322 154q123 0 207 -48q82 -45 137 -147v166h360v-107h-176v-1275h176v-107h-534v107h174v485q-55 -102 -137 -148q-84 -47 -207 -47q-195 0 -320 155.5t-125 405.5zM317 532q0 -223 72 -333q74 -113 215 -113q139 0 213 100.5t74 292.5v105 q0 190 -74 293q-74 100 -213 100t-215 -113q-72 -107 -72 -332z" />
<glyph unicode="r" horiz-adv-x="978" d="M74 958v105h360v-189q57 115 139 164q88 53 207 54q45 0 94 -7q29 -4 105 -20v-266h-107q-6 82 -43 119q-39 39 -114 38q-135 0 -209 -94q-72 -92 -72 -270v-486h213v-106h-563v106h166v852h-176z" />
<glyph unicode="s" horiz-adv-x="1050" d="M115 59v248h106q3 -120 74 -178q72 -59 209 -59q123 0 188.5 47t65.5 135q0 70 -47 113q-45 43 -201 92l-133 45q-133 41 -199 110q-61 63 -61 168q0 147 106.5 229.5t296.5 82.5q80 0 176 -23q102 -25 193 -63v-232h-107q-2 102 -71 162q-66 57 -185 57q-117 0 -176 -41 t-59 -123q0 -70 45 -108.5t180 -81.5l146 -45q150 -45 217 -116.5t67 -182.5q0 -154 -115 -238q-117 -86 -319 -86q-98 0 -201 23q-94 20 -196 65z" />
<glyph unicode="t" horiz-adv-x="821" d="M59 956v107h162v330h185v-330h346v-107h-346v-675q0 -133 26.5 -172t95.5 -39q71 0 105 43q31 41 35 137h139q-8 -143 -80 -211q-71 -68 -215 -68q-162 0 -225 70q-66 72 -66 240v675h-162z" />
<glyph unicode="u" horiz-adv-x="1318" d="M55 956v107h351v-619q0 -195 47 -266.5t170 -71.5q127 0 194.5 94.5t67.5 272.5v483h-160v107h344v-957h174v-106h-358v188q-51 -106 -131 -161.5t-189 -55.5q-178 0 -260 101q-84 102 -84 315v569h-166z" />
<glyph unicode="v" horiz-adv-x="1155" d="M-6 956v107h489v-107h-170l299 -731l299 731h-159v107h399v-107h-119l-391 -956h-135l-391 956h-121z" />
<glyph unicode="w" horiz-adv-x="1751" d="M33 956v107h481v-107h-172l238 -723l274 830h129l272 -830l240 723h-154v107h385v-107h-118l-316 -956h-153l-262 795l-263 -795h-147l-315 956h-119z" />
<glyph unicode="x" horiz-adv-x="1153" d="M25 956v107h475v-107h-127l223 -307l223 307h-143v107h409v-107h-141l-285 -393l332 -457h139v-106h-491v106h135l-231 318l-232 -318h138v-106h-404v106h141l293 404l-323 446h-131z" />
<glyph unicode="y" horiz-adv-x="1155" d="M-6 956v107h489v-107h-170l299 -731l299 731h-159v107h399v-107h-119l-487 -1196q-49 -125 -111 -170q-59 -45 -172 -45q-53 0 -96 9q-72 12 -100 22v203h94q6 -66 35 -98q27 -29 88 -29q53 0 88 31q35 33 71 122l70 177l-397 974h-121z" />
<glyph unicode="z" horiz-adv-x="1077" d="M82 0v86l666 870h-527v-184h-106v291h870v-86l-666 -871h578v193h107v-299h-922z" />
<glyph unicode="{" horiz-adv-x="1302" d="M256 559v105h61q139 0 194.5 59t55.5 207v258q0 223 84 295q86 74 334 73h62v-104h-68q-141 0 -184 -43t-43 -186v-287q0 -158 -49.5 -225.5t-180.5 -98.5q131 -33 180.5 -100.5t49.5 -224.5v-287q0 -141 43 -184q45 -45 184 -45h68v-105h-62q-248 0 -334 74 q-84 72 -84 295v258q0 151 -55 209q-55 57 -195 57h-61z" />
<glyph unicode="|" horiz-adv-x="688" d="M264 -483v2048h162v-2048h-162z" />
<glyph unicode="}" horiz-adv-x="1302" d="M256 -229h70q139 0 182 43t43 186v287q0 158 49 225.5t180 99.5q-131 31 -180 98.5t-49 225.5v287q0 143 -43 186t-182 43h-70v104h63q249 0 332 -73q84 -74 84 -295v-258q0 -152 53 -207q55 -59 197 -59h62v-105h-62q-141 0 -197 -57q-53 -55 -53 -209v-258 q0 -221 -84 -295q-83 -74 -332 -74h-63v105z" />
<glyph unicode="~" d="M217 477v152q106 90 189 127q92 41 184 41t270 -66l10 -4q4 -2 31 -12q141 -57 242 -58q90 0 180 37q88 37 176 113v-148q-98 -86 -190 -131q-84 -41 -183 -41q-92 0 -270 66l-10 4q-10 2 -33 12q-145 57 -242 58q-92 0 -178 -37q-90 -39 -176 -113z" />
<glyph unicode="&#xa1;" horiz-adv-x="821" d="M279 1389q0 51 38 94q37 39 95 39q55 0 94 -39t39 -94.5t-39 -94.5t-94 -39q-57 0 -95 39q-38 44 -38 95zM283 0l67 821v252h123v-252l68 -821h-258z" />
<glyph unicode="&#xa2;" horiz-adv-x="1302" d="M154 532.5q0 243.5 127 391t348 166.5v266h100v-266q94 -10 176 -31q86 -23 164 -62v-272h-106q-18 125 -76 188q-59 66 -158 78v-919q90 12 148 75q58 65 79 172h148q-35 -156 -129 -241q-95 -86 -246 -105v-270h-100v270q-219 18 -348 168q-127 148 -127 391.5z M371 532q0 -215 65 -329q66 -117 193 -131v919q-127 -14 -193 -131q-65 -115 -65 -328z" />
<glyph unicode="&#xa3;" horiz-adv-x="1302" d="M137 0v106h193v594h-193v107h193v295q0 203 114 311q113 106 336 107q86 0 166 -13q84 -12 156 -37v-245h-105q-8 94 -67 145q-57 51 -152 51q-127 0 -188 -78q-59 -74 -60 -241v-295h412v-107h-412v-579h478v227h116v-348h-987z" />
<glyph unicode="&#xa4;" horiz-adv-x="1302" d="M104 186l205 207q-40 61 -61 123q-20 59 -21 125q0 74 20.5 129t65.5 117l-207 207l95 94l207 -207q57 45 116.5 65.5t128.5 20.5q68 0 127 -20q66 -23 121 -62l209 207l94 -94l-209 -209q43 -61 63.5 -120.5t20.5 -127.5q0 -74 -20 -129q-23 -59 -66 -115l207 -207 l-96 -94l-207 205q-57 -45 -115 -65q-55 -20 -129 -21q-68 0 -127 21q-61 22 -123 61l-204 -205zM385 643q0 -115 78 -192.5t190 -77.5q115 0 191 78q78 82 78 192.5t-78 188t-190.5 77.5t-190.5 -77.5t-78 -188.5z" />
<glyph unicode="&#xa5;" horiz-adv-x="1302" d="M-16 1386v107h553v-107h-175l343 -604l339 604h-167v107h432v-107h-142l-284 -497h272v-105h-332l-71 -122v-84h403v-105h-403v-367h190v-106h-582v106h191v367h-404v105h404v65l-82 141h-322v105h263l-287 497h-139z" />
<glyph unicode="&#xa6;" horiz-adv-x="688" d="M264 -350v758h162v-758h-162zM264 674v758h162v-758h-162z" />
<glyph unicode="&#xa7;" horiz-adv-x="1024" d="M92 719q0 90 60 160q57 68 167 98q-84 49 -122.5 112.5t-38.5 141.5q0 129 100 209q102 80 266 80q82 0 154 -15q90 -18 151 -41v-202h-92q-4 72 -55 114q-49 41 -139 41q-100 0 -157.5 -49t-57.5 -131q0 -94 245 -233q14 -8 23.5 -14.5t15.5 -8.5q195 -109 258 -184 q61 -74 62 -174q0 -92 -53 -158q-51 -63 -166 -107q78 -47 114.5 -110.5t36.5 -153.5q0 -131 -102 -211q-98 -78 -275 -78q-90 0 -170 13q-68 10 -157 43v209h92q4 -84 55 -121q57 -41 162 -41q102 0 163.5 49t61.5 133q0 114 -227 240q-12 6 -20.5 11t-12.5 7 q-213 121 -278 197q-64 72 -64 174zM256 754q0 -131 362 -334l33 -19q57 35 88 86q29 45 29 105q0 74 -70 141q-71 68 -319 203q-70 -47 -96.5 -88t-26.5 -94z" />
<glyph unicode="&#xa8;" horiz-adv-x="1024" d="M201 1452q0 47 34.5 82t82 35t82 -35t34.5 -82q0 -51 -32.5 -84t-84 -33t-84 33t-32.5 84zM590 1452q0 47 34.5 82t82 35t82 -35t34.5 -82q0 -51 -32.5 -84t-84 -33t-84 33t-32.5 84z" />
<glyph unicode="&#xa9;" horiz-adv-x="2048" d="M283 741q0 152 55 285t162 240q109 109 241 164t283 55t283 -55q133 -55 241 -164q106 -106 161.5 -239.5t55.5 -285.5q0 -154 -55 -282q-59 -135 -162 -240q-109 -109 -241 -164t-283 -55t-283 55q-133 55 -241 164q-102 104 -162 240q-55 128 -55 282zM385 741 q0 -127 47 -243q43 -104 141 -207q96 -96 207 -141q117 -47 244 -48q129 0 246 48q111 45 207 141q92 94 139 207q47 117 47 243q0 129 -47 246q-47 115 -139 207q-96 96 -207 141q-117 47 -246 47q-127 0 -244 -47q-111 -45 -207 -141t-141 -207q-47 -117 -47 -246z M616 741q0 203 113 322q115 121 297 121q80 0 158 -19q84 -20 164 -57v-213h-84q-18 111 -74 160q-57 51 -162 51q-119 0 -180 -92q-59 -88 -60 -273q0 -186 60 -272q61 -90 178 -90q96 0 154 47q55 47 77 147h119q-28 -132 -116 -202t-234 -70q-188 0 -299 121 q-111 119 -111 319z" />
<glyph unicode="&#xaa;" horiz-adv-x="972" d="M125 979q0 115 94 178.5t266 63.5h205v45q0 86 -57 131q-59 47 -164 47q-84 0 -137 -35q-49 -31 -66 -104h-76v157q74 27 150 43q66 14 137 15q178 0 268 -76q92 -76 93 -225v-379h80v-84h-228v80q-45 -47 -110 -74q-61 -25 -150 -25q-139 0 -223 66q-82 63 -82 176z M166 535v104h698v-104h-698zM289 987q0 -78 51 -123q49 -43 147 -43q92 0 147.5 49.5t55.5 126.5v148h-188q-106 0 -159.5 -39t-53.5 -119z" />
<glyph unicode="&#xab;" horiz-adv-x="1251" d="M158 559v82l469 418v-115l-297 -344l297 -344v-115zM592 559v82l469 418v-115l-297 -344l297 -344v-115z" />
<glyph unicode="&#xac;" d="M217 700v162h1282v-575h-160v413h-1122z" />
<glyph unicode="&#xad;" horiz-adv-x="690" d="M90 471v156h512v-156h-512z" />
<glyph unicode="&#xae;" horiz-adv-x="2048" d="M283 741q0 152 55 285t162 240q109 109 241 164t283 55t283 -55q133 -55 241 -164q106 -106 161.5 -239.5t55.5 -285.5q0 -154 -55 -282q-59 -135 -162 -240q-109 -109 -241 -164t-283 -55t-283 55q-133 55 -241 164q-102 104 -162 240q-55 128 -55 282zM385 741 q0 -127 47 -243q43 -104 141 -207q96 -96 207 -141q117 -47 244 -48q129 0 246 48q111 45 207 141q92 94 139 207q47 117 47 243q0 129 -47 246q-47 115 -139 207q-96 96 -207 141q-117 47 -246 47q-127 0 -244 -47q-111 -45 -207 -141t-141 -207q-47 -117 -47 -246z M662 352v68h83v672h-83v67h415q127 0 192.5 -55t65.5 -166q0 -83 -49 -129q-49 -47 -145 -55q41 -14 71 -39q25 -20 50 -66l116 -229h76v-68h-190l-131 254q-33 68 -66 94q-29 23 -80 23h-92v-303h84v-68h-317zM895 791h125q80 0 125 38q41 35 41 113t-41 113 q-43 37 -125 37h-125v-301z" />
<glyph unicode="&#xaf;" horiz-adv-x="1024" d="M213 1378v148h598v-148h-598z" />
<glyph unicode="&#xb0;" horiz-adv-x="1024" d="M195 1200q0 135 92 227.5t225 92.5q65 0 123 -25q61 -27 102 -70q51 -51 70 -102q23 -61 22 -123q0 -131 -92 -223t-227 -92t-225 90t-90 225zM332 1200q0 -76 51 -127t129 -51q76 0 127 51q53 53 53 127q0 76 -53 129t-127 53t-127 -53t-53 -129z" />
<glyph unicode="&#xb1;" d="M217 0v160h1282v-160h-1282zM217 731v162h561v391h160v-391h561v-162h-561v-391h-160v391h-561z" />
<glyph unicode="&#xb2;" horiz-adv-x="819" d="M90 668v75l285 254q88 78 123 138q37 61 37 127q0 88 -48 135q-49 49 -133 49q-80 0 -125 -37q-47 -37 -59 -113h-70v158q65 31 136 49q63 16 139 17q135 0 223 -66q86 -66 86 -170q0 -121 -195 -297l-18 -16l-238 -215h385v108h74v-196h-602z" />
<glyph unicode="&#xb3;" horiz-adv-x="819" d="M100 709v170h70q6 -74 53 -113t141.5 -39t145.5 43t51 127q0 96 -51 141q-53 47 -152 47h-53v74h27q98 0 147 37t49 111q0 66 -41 102q-40 37 -116 37q-80 0 -125 -33t-51 -96h-70v151q90 31 139 39q68 12 127 13q141 0 213 -54q74 -55 74 -153q0 -72 -53 -121 q-52 -49 -148 -68q117 -14 180 -75q59 -57 60 -160q0 -111 -88 -174q-86 -61 -250 -62q-76 0 -141 15q-81 16 -138 41z" />
<glyph unicode="&#xb4;" horiz-adv-x="1024" d="M393 1262l258 376h199l-340 -376h-117z" />
<glyph unicode="&#xb5;" horiz-adv-x="1329" d="M59 -319h177v1275h-166v107h350v-619q0 -195 49 -266.5t168 -71.5q127 0 194.5 94.5t67.5 272.5v483h-160v107h344v-959h174v-104h-358v188q-51 -106 -125 -161.5t-164 -55.5q-58 0 -104 19q-49 20 -86 53v-362h174v-107h-535v107z" />
<glyph unicode="&#xb6;" horiz-adv-x="1302" d="M158 1071q0 186 131 305q129 117 344 117h538v-107h-118v-1583h-107v1583h-231v-1583h-107v846q-217 18 -332 127q-118 113 -118 295z" />
<glyph unicode="&#xb7;" horiz-adv-x="649" d="M190 711q0 55 39 94t94.5 39t94.5 -39t39 -94.5t-39 -94t-94 -38.5q-51 0 -95 38q-39 38 -39 95z" />
<glyph unicode="&#xb8;" horiz-adv-x="1024" d="M291 -240q35 -16 80 -26q35 -8 75 -8q57 0 90 26.5t33 71.5q0 27 -22 72q-18 39 -66 104h97q66 -66 96.5 -121t30.5 -104q0 -82 -64 -125q-68 -45 -174 -45q-43 0 -86 6q-45 6 -90 18v131z" />
<glyph unicode="&#xb9;" horiz-adv-x="819" d="M147 1280v94l240 129h102v-751h173v-84h-486v84h172v634z" />
<glyph unicode="&#xba;" horiz-adv-x="962" d="M94 1128.5q0 178.5 106.5 285t280.5 106.5t280.5 -106.5t106.5 -285.5q0 -174 -106 -284q-104 -106 -281 -107q-174 0 -280.5 106.5t-106.5 285zM137 535v104h688v-104h-688zM268 1128.5q0 -157.5 54 -235.5q55 -80 159 -80q108 0 160 80q53 82 53 235q0 156 -55 236 t-158 80q-104 0 -159 -80q-54 -78 -54 -235.5z" />
<glyph unicode="&#xbb;" horiz-adv-x="1251" d="M193 141v115l296 344l-296 344v115l469 -418v-82zM627 141v115l297 344l-297 344v115l469 -418v-82z" />
<glyph unicode="&#xbc;" horiz-adv-x="1984" d="M1216 221v84l400 530h141v-532h164v-82h-164v-137h145v-84h-434v84h146v137h-398zM1306 303h308v407zM147 1280v94l240 129h102v-751h173v-84h-486v84h172v634zM446 -29l942 1549h150l-942 -1549h-150z" />
<glyph unicode="&#xbd;" horiz-adv-x="1984" d="M147 1280v94l240 129h102v-751h173v-84h-486v84h172v634zM446 -29l942 1549h150l-942 -1549h-150zM1253 0v75l285 254q88 78 123 138q37 61 37 127q0 88 -48 135q-49 49 -133 49q-80 0 -125 -37q-47 -37 -59 -113h-70v158q65 31 136 49q63 16 139 17q135 0 223 -66 q86 -66 86 -170q0 -121 -195 -297l-18 -16l-238 -215h385v108h74v-196h-602z" />
<glyph unicode="&#xbe;" horiz-adv-x="1984" d="M1216 221v84l400 530h141v-532h164v-82h-164v-137h145v-84h-434v84h146v137h-398zM1306 303h308v407zM100 709v170h70q6 -74 53 -113t141.5 -39t145.5 43t51 127q0 96 -51 141q-53 47 -152 47h-53v74h27q98 0 147 37t49 111q0 66 -41 102q-40 37 -116 37q-80 0 -125 -33 t-51 -96h-70v151q90 31 139 39q68 12 127 13q141 0 213 -54q74 -55 74 -153q0 -72 -53 -121q-52 -49 -148 -68q117 -14 180 -75q59 -57 60 -160q0 -111 -88 -174q-86 -61 -250 -62q-76 0 -141 15q-81 16 -138 41zM446 -29l942 1549h150l-942 -1549h-150z" />
<glyph unicode="&#xbf;" horiz-adv-x="1097" d="M139 369q0 188 110.5 305t334.5 168v254h123v-328q-178 -43 -267 -143q-90 -102 -90 -258q0 -135 74 -215t199 -80q111 0 186 65q72 63 94 189h96v-260q-121 -51 -200 -70q-100 -23 -181 -23q-223 0 -350 107q-129 108 -129 289zM512 1388.5q0 55.5 39 94.5t94 39 q57 0 94 -39q39 -43 39 -94q0 -55 -39 -94.5t-94 -39.5t-94 39t-39 94.5z" />
<glyph unicode="&#xc0;" horiz-adv-x="1478" d="M-12 0v106h131l532 1387h168l533 -1387h147v-106h-543v106h166l-125 328h-628l-125 -328h164v-106h-420zM410 541h548l-274 710zM473 1899h196l183 -264h-117z" />
<glyph unicode="&#xc1;" horiz-adv-x="1478" d="M-12 0v106h131l532 1387h168l533 -1387h147v-106h-543v106h166l-125 328h-628l-125 -328h164v-106h-420zM410 541h548l-274 710zM620 1635l182 264h197l-262 -264h-117z" />
<glyph unicode="&#xc2;" horiz-adv-x="1478" d="M-12 0v106h131l532 1387h168l533 -1387h147v-106h-543v106h166l-125 328h-628l-125 -328h164v-106h-420zM410 541h548l-274 710zM420 1635l231 264h176l231 -264h-116l-203 161l-203 -161h-116z" />
<glyph unicode="&#xc3;" horiz-adv-x="1478" d="M-12 0v106h131l532 1387h168l533 -1387h147v-106h-543v106h166l-125 328h-628l-125 -328h164v-106h-420zM410 541h548l-274 710zM409 1667q4 104 54 160q53 59 135 59q33 0 67.5 -10t85.5 -39l49 -26q27 -14 45 -21q20 -6 39 -6q39 0 64 27q25 29 24 75h97 q-4 -106 -54 -161q-51 -57 -145 -58q-70 0 -139 45l-4 2l-49 29q-31 18 -41 21q-20 6 -37 6q-41 0 -66 -29q-27 -29 -28 -74h-97z" />
<glyph unicode="&#xc4;" horiz-adv-x="1478" d="M-12 0v106h131l532 1387h168l533 -1387h147v-106h-543v106h166l-125 328h-628l-125 -328h164v-106h-420zM410 541h548l-274 710zM428 1768q0 47 34.5 81.5t82 34.5t82 -34.5t34.5 -81.5q0 -51 -32.5 -84t-84.5 -33q-49 0 -81 33q-35 35 -35 84zM817 1768q0 47 34.5 81.5 t82 34.5t82 -34.5t34.5 -81.5q0 -49 -35 -84q-33 -33 -81 -33q-51 0 -84 33t-33 84z" />
<glyph unicode="&#xc5;" horiz-adv-x="1478" d="M-12 0v106h131l489 1278q-76 39 -110 99q-37 61 -37 143q0 115 80 195t194.5 80t194.5 -80t80 -195q0 -80 -39 -143q-40 -65 -111 -99l492 -1278h147v-106h-543v106h166l-125 328h-628l-125 -328h164v-106h-420zM410 541h546l-272 710zM584 1626q0 -63 43 -106 q45 -45 108 -45q61 0 106.5 45t45.5 106.5t-45 106.5t-107 45q-66 0 -108.5 -43t-42.5 -109z" />
<glyph unicode="&#xc6;" horiz-adv-x="2048" d="M-35 0v106h131l590 1280h-215v107h1456v-332h-123v209h-688v-500h492v187h123v-496h-123v187h-492v-625h705v209h123v-332h-1219v106h190v328h-538l-152 -328h164v-106h-424zM426 541h489v845h-100z" />
<glyph unicode="&#xc7;" horiz-adv-x="1566" d="M115 745q0 348 200.5 561.5t530.5 213.5q121 0 260 -31q119 -27 297 -98v-344h-113q-37 186 -149.5 276t-311.5 90q-240 0 -362 -170q-123 -169 -123 -497.5t123 -497.5q123 -170 362 -170q166 0 275 80q106 78 156 237h184q-66 -211 -221.5 -317.5t-393.5 -106.5 q-145 0 -272 49q-121 47 -221 148q-109 109 -166 254q-55 141 -55 323zM623 -240q35 -16 80 -26q35 -8 75 -8q57 0 90 26.5t33 71.5q0 27 -22 72q-18 39 -66 104h97q66 -66 96.5 -121t30.5 -104q0 -82 -64 -125q-68 -45 -174 -45q-43 0 -86 6q-45 6 -90 18v131z" />
<glyph unicode="&#xc8;" horiz-adv-x="1492" d="M113 0v106h190v1280h-190v107h1202v-332h-123v209h-686v-500h489v187h123v-496h-123v187h-489v-625h702v209h123v-332h-1218zM482 1899h196l183 -264h-117z" />
<glyph unicode="&#xc9;" horiz-adv-x="1492" d="M113 0v106h190v1280h-190v107h1202v-332h-123v209h-686v-500h489v187h123v-496h-123v187h-489v-625h702v209h123v-332h-1218zM629 1635l182 264h197l-262 -264h-117z" />
<glyph unicode="&#xca;" horiz-adv-x="1492" d="M113 0v106h190v1280h-190v107h1202v-332h-123v209h-686v-500h489v187h123v-496h-123v187h-489v-625h702v209h123v-332h-1218zM429 1635l231 264h176l231 -264h-116l-203 161l-203 -161h-116z" />
<glyph unicode="&#xcb;" horiz-adv-x="1492" d="M113 0v106h190v1280h-190v107h1202v-332h-123v209h-686v-500h489v187h123v-496h-123v187h-489v-625h702v209h123v-332h-1218zM437 1768q0 47 34.5 81.5t82 34.5t82 -34.5t34.5 -81.5q0 -51 -32.5 -84t-84.5 -33q-49 0 -81 33q-35 35 -35 84zM826 1768q0 47 34.5 81.5 t82 34.5t82 -34.5t34.5 -81.5q0 -49 -35 -84q-33 -33 -81 -33q-51 0 -84 33t-33 84z" />
<glyph unicode="&#xcc;" horiz-adv-x="808" d="M113 0v106h190v1280h-190v107h583v-107h-190v-1280h190v-106h-583zM140 1899h196l183 -264h-117z" />
<glyph unicode="&#xcd;" horiz-adv-x="808" d="M113 0v106h190v1280h-190v107h583v-107h-190v-1280h190v-106h-583zM287 1635l182 264h197l-262 -264h-117z" />
<glyph unicode="&#xce;" horiz-adv-x="808" d="M113 0v106h190v1280h-190v107h583v-107h-190v-1280h190v-106h-583zM87 1635l231 264h176l231 -264h-116l-203 161l-203 -161h-116z" />
<glyph unicode="&#xcf;" horiz-adv-x="808" d="M113 0v106h190v1280h-190v107h583v-107h-190v-1280h190v-106h-583zM95 1768q0 47 34.5 81.5t82 34.5t82 -34.5t34.5 -81.5q0 -51 -32.5 -84t-84.5 -33q-49 0 -81 33q-35 35 -35 84zM484 1768q0 47 34.5 81.5t82 34.5t82 -34.5t34.5 -81.5q0 -49 -35 -84q-33 -33 -81 -33 q-51 0 -84 33t-33 84z" />
<glyph unicode="&#xd0;" horiz-adv-x="1652" d="M113 719v125h200v542h-190v107h594q387 0 602 -196.5t215 -549t-215 -548.5q-217 -199 -602 -199h-594v106h190v613h-200zM514 106h188q289 0 447 166q156 164 156 476q0 313 -156 475q-158 164 -447 163h-188v-542h336v-125h-336v-613z" />
<glyph unicode="&#xd1;" horiz-adv-x="1792" d="M100 0v106h201v1280h-201v107h383l895 -1178v1071h-200v107h524v-107h-201v-1415h-121l-956 1258v-1123h201v-106h-525zM567 1667q4 104 54 160q53 59 135 59q33 0 67.5 -10t85.5 -39l49 -26q27 -14 45 -21q20 -6 39 -6q39 0 64 27q25 29 24 75h97q-4 -106 -54 -161 q-51 -57 -145 -58q-70 0 -139 45l-4 2l-49 29q-31 18 -41 21q-20 6 -37 6q-41 0 -66 -29q-27 -29 -28 -74h-97z" />
<glyph unicode="&#xd2;" horiz-adv-x="1677" d="M115 745q0 182 55 324q57 145 166 254q98 98 223 147.5t281 49.5q326 0 526 -213q199 -211 199 -562q0 -180 -55.5 -323t-166.5 -254q-98 -98 -225 -147.5t-278 -49.5q-150 0 -279 49q-125 47 -225 148q-109 109 -166 254q-55 141 -55 323zM344 745.5 q0 -331.5 125 -499.5t370.5 -168t370.5 168t125 499.5t-125 499.5t-370.5 168t-370.5 -168t-125 -499.5zM574 1899h196l183 -264h-117z" />
<glyph unicode="&#xd3;" horiz-adv-x="1677" d="M115 745q0 182 55 324q57 145 166 254q98 98 223 147.5t281 49.5q326 0 526 -213q199 -211 199 -562q0 -180 -55.5 -323t-166.5 -254q-98 -98 -225 -147.5t-278 -49.5q-150 0 -279 49q-125 47 -225 148q-109 109 -166 254q-55 141 -55 323zM344 745.5 q0 -331.5 125 -499.5t370.5 -168t370.5 168t125 499.5t-125 499.5t-370.5 168t-370.5 -168t-125 -499.5zM721 1635l182 264h197l-262 -264h-117z" />
<glyph unicode="&#xd4;" horiz-adv-x="1677" d="M115 745q0 182 55 324q57 145 166 254q98 98 223 147.5t281 49.5q326 0 526 -213q199 -211 199 -562q0 -180 -55.5 -323t-166.5 -254q-98 -98 -225 -147.5t-278 -49.5q-150 0 -279 49q-125 47 -225 148q-109 109 -166 254q-55 141 -55 323zM344 745.5 q0 -331.5 125 -499.5t370.5 -168t370.5 168t125 499.5t-125 499.5t-370.5 168t-370.5 -168t-125 -499.5zM521 1635l231 264h176l231 -264h-116l-203 161l-203 -161h-116z" />
<glyph unicode="&#xd5;" horiz-adv-x="1677" d="M115 745q0 182 55 324q57 145 166 254q98 98 223 147.5t281 49.5q326 0 526 -213q199 -211 199 -562q0 -180 -55.5 -323t-166.5 -254q-98 -98 -225 -147.5t-278 -49.5q-150 0 -279 49q-125 47 -225 148q-109 109 -166 254q-55 141 -55 323zM344 745.5 q0 -331.5 125 -499.5t370.5 -168t370.5 168t125 499.5t-125 499.5t-370.5 168t-370.5 -168t-125 -499.5zM510 1667q4 104 54 160q53 59 135 59q33 0 67.5 -10t85.5 -39l49 -26q27 -14 45 -21q20 -6 39 -6q39 0 64 27q25 29 24 75h97q-4 -106 -54 -161q-51 -57 -145 -58 q-70 0 -139 45l-4 2l-49 29q-31 18 -41 21q-20 6 -37 6q-41 0 -66 -29q-27 -29 -28 -74h-97z" />
<glyph unicode="&#xd6;" horiz-adv-x="1677" d="M115 745q0 182 55 324q57 145 166 254q98 98 223 147.5t281 49.5q326 0 526 -213q199 -211 199 -562q0 -180 -55.5 -323t-166.5 -254q-98 -98 -225 -147.5t-278 -49.5q-150 0 -279 49q-125 47 -225 148q-109 109 -166 254q-55 141 -55 323zM344 745.5 q0 -331.5 125 -499.5t370.5 -168t370.5 168t125 499.5t-125 499.5t-370.5 168t-370.5 -168t-125 -499.5zM529 1768q0 47 34.5 81.5t82 34.5t82 -34.5t34.5 -81.5q0 -51 -32.5 -84t-84.5 -33q-49 0 -81 33q-35 35 -35 84zM918 1768q0 47 34.5 81.5t82 34.5t82 -34.5 t34.5 -81.5q0 -49 -35 -84q-33 -33 -81 -33q-51 0 -84 33t-33 84z" />
<glyph unicode="&#xd7;" d="M283 180l460 461l-460 463l114 113l461 -461l461 461l115 -113l-463 -463l463 -461l-115 -112l-461 460l-461 -460z" />
<glyph unicode="&#xd8;" horiz-adv-x="1677" d="M100 12l187 207q-84 102 -129 236q-43 129 -43 290q0 342 200 560q201 215 525 215q143 0 262 -43q121 -43 215 -125l178 198l80 -71l-184 -203q90 -113 131 -240q43 -131 43 -291q0 -342 -201 -559q-201 -215 -524 -215q-139 0 -260 43q-117 41 -220 129l-182 -200z M344 745q0 -113 16 -215q16 -100 50 -178l804 887q-63 86 -157 131q-92 43 -217 43q-246 0 -371 -168t-125 -500zM463 256q68 -92 158 -133q100 -45 219 -45q246 0 370.5 168t124.5 499q0 111 -16 216q-14 88 -51 180z" />
<glyph unicode="&#xd9;" horiz-adv-x="1724" d="M96 1386v107h584v-107h-191v-772q0 -286 93 -399q92 -113 323 -113q229 0 322 113q94 117 94 399v772h-191v107h504v-107h-190v-792q0 -342 -131 -481q-133 -141 -445 -142q-315 0 -448 142q-133 143 -133 481v792h-191zM637 1899h196l183 -264h-117z" />
<glyph unicode="&#xda;" horiz-adv-x="1724" d="M96 1386v107h584v-107h-191v-772q0 -286 93 -399q92 -113 323 -113q229 0 322 113q94 117 94 399v772h-191v107h504v-107h-190v-792q0 -342 -131 -481q-133 -141 -445 -142q-315 0 -448 142q-133 143 -133 481v792h-191zM784 1635l182 264h197l-262 -264h-117z" />
<glyph unicode="&#xdb;" horiz-adv-x="1724" d="M96 1386v107h584v-107h-191v-772q0 -286 93 -399q92 -113 323 -113q229 0 322 113q94 117 94 399v772h-191v107h504v-107h-190v-792q0 -342 -131 -481q-133 -141 -445 -142q-315 0 -448 142q-133 143 -133 481v792h-191zM584 1635l231 264h176l231 -264h-116l-203 161 l-203 -161h-116z" />
<glyph unicode="&#xdc;" horiz-adv-x="1724" d="M96 1386v107h584v-107h-191v-772q0 -286 93 -399q92 -113 323 -113q229 0 322 113q94 117 94 399v772h-191v107h504v-107h-190v-792q0 -342 -131 -481q-133 -141 -445 -142q-315 0 -448 142q-133 143 -133 481v792h-191zM592 1768q0 47 34.5 81.5t82 34.5t82 -34.5 t34.5 -81.5q0 -51 -32.5 -84t-84.5 -33q-49 0 -81 33q-35 35 -35 84zM981 1768q0 47 34.5 81.5t82 34.5t82 -34.5t34.5 -81.5q0 -49 -35 -84q-33 -33 -81 -33q-51 0 -84 33t-33 84z" />
<glyph unicode="&#xdd;" horiz-adv-x="1351" d="M-23 1386v107h555v-107h-174l373 -604l373 604h-168v107h434v-107h-141l-449 -724v-556h191v-106h-584v106h191v537l-461 743h-140zM557 1635l182 264h197l-262 -264h-117z" />
<glyph unicode="&#xde;" horiz-adv-x="1382" d="M113 0v106h190v1280h-190v107h624v-107h-231v-219h313q221 0 355 -114q131 -113 131 -305q0 -195 -131 -308q-133 -115 -355 -114h-313v-220h231v-106h-624zM506 434h264q151 0 227 80q78 82 78 233.5t-78 233.5q-77 80 -227 80h-264v-627z" />
<glyph unicode="&#xdf;" horiz-adv-x="1366" d="M59 0v106h177v1080q0 174 114 272q113 98 324 98q215 0 325.5 -104t122.5 -315h-22q-147 0 -228 -54q-84 -55 -84 -147q0 -51 27 -90q29 -41 100 -86l89 -55q160 -102 215 -185q59 -88 59 -198q0 -156 -115 -252q-117 -98 -301 -99q-88 0 -170 19q-76 16 -162 53v233h109 q2 -100 59.5 -153t157.5 -53q111 0 174.5 61.5t63.5 163.5q0 86 -39 143q-39 55 -158 131l-86 54q-109 68 -149 129q-43 65 -44 147q0 123 84 205q86 82 238 106q-8 119 -78 183q-72 66 -188 65q-131 0 -193 -65q-61 -65 -61 -203v-1190h-361z" />
<glyph unicode="&#xe0;" horiz-adv-x="1220" d="M102 319q0 164 119 256q117 90 336 91h258v73q0 119 -73.5 186.5t-206.5 67.5q-106 0 -174 -51t-82 -147h-95v215q92 39 187 61q84 20 176 21q221 0 336 -109q117 -111 116 -319v-558h164v-106h-348v115q-63 -76 -141 -109q-82 -35 -187 -35q-178 0 -280 95 q-105 93 -105 253zM307 319q0 -111 68 -176q70 -66 184.5 -65.5t185.5 72.5q70 70 70 184v225h-237q-133 0 -203 -59q-68 -58 -68 -181zM227 1636h197l260 -376h-117z" />
<glyph unicode="&#xe1;" horiz-adv-x="1220" d="M102 319q0 164 119 256q117 90 336 91h258v73q0 119 -73.5 186.5t-206.5 67.5q-106 0 -174 -51t-82 -147h-95v215q92 39 187 61q84 20 176 21q221 0 336 -109q117 -111 116 -319v-558h164v-106h-348v115q-63 -76 -141 -109q-82 -35 -187 -35q-178 0 -280 95 q-105 93 -105 253zM307 319q0 -111 68 -176q70 -66 184.5 -65.5t185.5 72.5q70 70 70 184v225h-237q-133 0 -203 -59q-68 -58 -68 -181zM450 1262l258 376h199l-340 -376h-117z" />
<glyph unicode="&#xe2;" horiz-adv-x="1220" d="M102 319q0 164 119 256q117 90 336 91h258v73q0 119 -73.5 186.5t-206.5 67.5q-106 0 -174 -51t-82 -147h-95v215q92 39 187 61q84 20 176 21q221 0 336 -109q117 -111 116 -319v-558h164v-106h-348v115q-63 -76 -141 -109q-82 -35 -187 -35q-178 0 -280 95 q-105 93 -105 253zM307 319q0 -111 68 -176q70 -66 184.5 -65.5t185.5 72.5q70 70 70 184v225h-237q-133 0 -203 -59q-68 -58 -68 -181zM250 1262l235 376h168l235 -376h-116l-203 260l-203 -260h-116z" />
<glyph unicode="&#xe3;" horiz-adv-x="1220" d="M102 319q0 164 119 256q117 90 336 91h258v73q0 119 -73.5 186.5t-206.5 67.5q-106 0 -174 -51t-82 -147h-95v215q92 39 187 61q84 20 176 21q221 0 336 -109q117 -111 116 -319v-558h164v-106h-348v115q-63 -76 -141 -109q-82 -35 -187 -35q-178 0 -280 95 q-105 93 -105 253zM307 319q0 -111 68 -176q70 -66 184.5 -65.5t185.5 72.5q70 70 70 184v225h-237q-133 0 -203 -59q-68 -58 -68 -181zM239 1309q4 137 54 209q51 74 141 73q41 0 69 -14q41 -20 70 -47l57 -55q23 -23 39.5 -31t38.5 -8q43 0 68 41q23 39 26 114h97 q-4 -137 -54 -209q-51 -74 -141 -73q-41 0 -69 14q-41 20 -70 47l-57 55q-23 23 -43.5 31t-34.5 8q-41 0 -66 -39q-23 -37 -28 -116h-97z" />
<glyph unicode="&#xe4;" horiz-adv-x="1220" d="M102 319q0 164 119 256q117 90 336 91h258v73q0 119 -73.5 186.5t-206.5 67.5q-106 0 -174 -51t-82 -147h-95v215q92 39 187 61q84 20 176 21q221 0 336 -109q117 -111 116 -319v-558h164v-106h-348v115q-63 -76 -141 -109q-82 -35 -187 -35q-178 0 -280 95 q-105 93 -105 253zM307 319q0 -111 68 -176q70 -66 184.5 -65.5t185.5 72.5q70 70 70 184v225h-237q-133 0 -203 -59q-68 -58 -68 -181zM258 1452q0 47 34.5 82t82 35t82 -35t34.5 -82q0 -51 -32.5 -84t-84 -33t-84 33t-32.5 84zM647 1452q0 47 34.5 82t82 35t82 -35 t34.5 -82q0 -51 -32.5 -84t-84 -33t-84 33t-32.5 84z" />
<glyph unicode="&#xe5;" horiz-adv-x="1220" d="M102 319q0 164 119 256q117 90 336 91h258v73q0 119 -73.5 186.5t-206.5 67.5q-106 0 -174 -51t-82 -147h-95v215q92 39 187 61q84 20 176 21q221 0 336 -109q117 -111 116 -319v-558h164v-106h-348v115q-63 -76 -141 -109q-82 -35 -187 -35q-178 0 -280 95 q-105 93 -105 253zM307 319q0 -111 68 -176q70 -66 184.5 -65.5t185.5 72.5q70 70 70 184v225h-237q-133 0 -203 -59q-68 -58 -68 -181zM295 1524q0 115 79.5 194.5t194.5 79.5t194.5 -80t79.5 -194.5t-79.5 -194.5t-194.5 -80t-194.5 80t-79.5 195zM417 1523.5 q0 -65.5 43 -108.5t109 -43t109 43t43 109q0 63 -43 106q-45 45 -109 45q-66 0 -109 -43t-43 -108.5z" />
<glyph unicode="&#xe6;" horiz-adv-x="1923" d="M102 319q0 164 119 256q117 90 336 91h258v73q0 119 -71.5 186.5t-200.5 67.5q-117 0 -183 -49q-66 -51 -81 -149h-95v215q92 39 187 61q84 20 176 21q141 0 237.5 -43t151.5 -134q72 86 170 132q100 45 213 45q242 0 371 -150q131 -152 133 -430h-793v-8 q0 -213 80 -323.5t240 -110.5q123 0 198 63q78 66 109 189h147q-43 -174 -161.5 -262.5t-311.5 -88.5q-123 0 -225 45q-109 47 -182 134q-83 -92 -185 -136q-100 -43 -225 -43q-201 0 -305 90q-107 92 -107 258zM307 319q0 -111 68 -176q70 -66 184.5 -65.5t185.5 72.5 q70 70 70 184v225h-237q-133 0 -203 -59q-68 -58 -68 -181zM1030 618h576q-6 188 -78 281q-74 94 -209 94q-127 0 -201 -96q-72 -95 -88 -279z" />
<glyph unicode="&#xe7;" horiz-adv-x="1146" d="M102 532.5q0 253.5 142 407.5q139 152 372 152q109 0 201 -23q106 -27 201 -72v-272h-107q-20 139 -92 205q-70 63 -201 63q-147 0 -225 -116q-76 -115 -76 -345q0 -231 76 -346q78 -117 225 -116q120 0 191 61q72 61 96 188h148q-41 -172 -149.5 -260t-287.5 -88 q-231 0 -372.5 154t-141.5 407.5zM391 -240q35 -16 80 -26q35 -8 75 -8q57 0 90 26.5t33 71.5q0 27 -22 72q-18 39 -66 104h97q66 -66 96.5 -121t30.5 -104q0 -82 -64 -125q-68 -45 -174 -45q-43 0 -86 6q-45 6 -90 18v131z" />
<glyph unicode="&#xe8;" horiz-adv-x="1210" d="M102 532q0 250 140 406q139 154 364 154q242 0 371 -148q127 -145 133 -432h-793v-8q0 -213 80 -323.5t240 -110.5q123 0 199 63q78 66 108 189h148q-43 -174 -162 -262.5t-312 -88.5q-233 0 -374.5 153.5t-141.5 407.5zM317 618h576q-6 188 -78 281q-74 94 -209 94 q-127 0 -200 -96q-73 -95 -89 -279zM264 1636h197l260 -376h-117z" />
<glyph unicode="&#xe9;" horiz-adv-x="1210" d="M102 532q0 250 140 406q139 154 364 154q242 0 371 -148q127 -145 133 -432h-793v-8q0 -213 80 -323.5t240 -110.5q123 0 199 63q78 66 108 189h148q-43 -174 -162 -262.5t-312 -88.5q-233 0 -374.5 153.5t-141.5 407.5zM317 618h576q-6 188 -78 281q-74 94 -209 94 q-127 0 -200 -96q-73 -95 -89 -279zM487 1262l258 376h199l-340 -376h-117z" />
<glyph unicode="&#xea;" horiz-adv-x="1210" d="M102 532q0 250 140 406q139 154 364 154q242 0 371 -148q127 -145 133 -432h-793v-8q0 -213 80 -323.5t240 -110.5q123 0 199 63q78 66 108 189h148q-43 -174 -162 -262.5t-312 -88.5q-233 0 -374.5 153.5t-141.5 407.5zM317 618h576q-6 188 -78 281q-74 94 -209 94 q-127 0 -200 -96q-73 -95 -89 -279zM287 1262l235 376h168l235 -376h-116l-203 260l-203 -260h-116z" />
<glyph unicode="&#xeb;" horiz-adv-x="1210" d="M102 532q0 250 140 406q139 154 364 154q242 0 371 -148q127 -145 133 -432h-793v-8q0 -213 80 -323.5t240 -110.5q123 0 199 63q78 66 108 189h148q-43 -174 -162 -262.5t-312 -88.5q-233 0 -374.5 153.5t-141.5 407.5zM317 618h576q-6 188 -78 281q-74 94 -209 94 q-127 0 -200 -96q-73 -95 -89 -279zM295 1452q0 47 34.5 82t82 35t82 -35t34.5 -82q0 -51 -32.5 -84t-84 -33t-84 33t-32.5 84zM684 1452q0 47 34.5 82t82 35t82 -35t34.5 -82q0 -51 -32.5 -84t-84 -33t-84 33t-32.5 84z" />
<glyph unicode="&#xec;" horiz-adv-x="653" d="M74 0v106h176v850h-176v107h360v-957h174v-106h-534zM-14 1636h197l260 -376h-117z" />
<glyph unicode="&#xed;" horiz-adv-x="653" d="M74 0v106h176v850h-176v107h360v-957h174v-106h-534zM209 1262l258 376h199l-340 -376h-117z" />
<glyph unicode="&#xee;" horiz-adv-x="653" d="M74 0v106h176v850h-176v107h360v-957h174v-106h-534zM9 1262l235 376h168l235 -376h-116l-203 260l-203 -260h-116z" />
<glyph unicode="&#xef;" horiz-adv-x="653" d="M74 0v106h176v850h-176v107h360v-957h174v-106h-534zM17 1452q0 47 34.5 82t82 35t82 -35t34.5 -82q0 -51 -32.5 -84t-84 -33t-84 33t-32.5 84zM406 1452q0 47 34.5 82t82 35t82 -35t34.5 -82q0 -51 -32.5 -84t-84 -33t-84 33t-32.5 84z" />
<glyph unicode="&#xf0;" horiz-adv-x="1232" d="M102 518q0 237 142 381q141 145 368 145q23 0 72 -4q61 -4 90 -10q-23 53 -59 107q-41 57 -86 108l-322 -149l-37 78l293 135q-63 61 -139 98q-88 45 -174 63l18 86q104 -23 224 -73q100 -45 196 -115l322 150l37 -78l-287 -133q184 -166 276 -363q94 -201 94 -412 q0 -254 -141 -407.5t-372.5 -153.5t-373 151.5t-141.5 395.5zM317 508q0 -213 78 -324q80 -115 221 -114q143 0 221 114.5t78 327.5q0 113 -24 217q-27 113 -70 199q-63 12 -86 14q-53 4 -80 4q-174 0 -256 -106.5t-82 -331.5z" />
<glyph unicode="&#xf1;" horiz-adv-x="1318" d="M74 956v107h360v-189q53 109 133 162q84 55 189 56q178 0 260 -100.5t82 -315.5v-570h164v-106h-508v106h159v512q0 193 -49 266.5t-168 73.5q-125 0 -194 -94q-68 -92 -68 -272v-486h160v-106h-510v106h166v850h-176zM329 1309q4 137 54 209q51 74 141 73q41 0 69 -14 q41 -20 70 -47l57 -55q23 -23 39.5 -31t38.5 -8q43 0 68 41q23 39 26 114h97q-4 -137 -54 -209q-51 -74 -141 -73q-41 0 -69 14q-41 20 -70 47l-57 55q-23 23 -43.5 31t-34.5 8q-41 0 -66 -39q-23 -37 -28 -116h-97z" />
<glyph unicode="&#xf2;" horiz-adv-x="1232" d="M102 532q0 254 140 406q141 154 374 154q231 0 372.5 -154t141.5 -406q0 -254 -141 -407.5t-372.5 -153.5t-373 153.5t-141.5 407.5zM317 532q0 -231 76 -346q78 -117 223.5 -116.5t223.5 116.5q76 115 75 346q0 229 -75 345q-78 117 -223.5 116.5t-223.5 -116.5 q-76 -116 -76 -345zM274 1636h197l260 -376h-117z" />
<glyph unicode="&#xf3;" horiz-adv-x="1232" d="M102 532q0 254 140 406q141 154 374 154q231 0 372.5 -154t141.5 -406q0 -254 -141 -407.5t-372.5 -153.5t-373 153.5t-141.5 407.5zM317 532q0 -231 76 -346q78 -117 223.5 -116.5t223.5 116.5q76 115 75 346q0 229 -75 345q-78 117 -223.5 116.5t-223.5 -116.5 q-76 -116 -76 -345zM497 1262l258 376h199l-340 -376h-117z" />
<glyph unicode="&#xf4;" horiz-adv-x="1232" d="M102 532q0 254 140 406q141 154 374 154q231 0 372.5 -154t141.5 -406q0 -254 -141 -407.5t-372.5 -153.5t-373 153.5t-141.5 407.5zM317 532q0 -231 76 -346q78 -117 223.5 -116.5t223.5 116.5q76 115 75 346q0 229 -75 345q-78 117 -223.5 116.5t-223.5 -116.5 q-76 -116 -76 -345zM297 1262l235 376h168l235 -376h-116l-203 260l-203 -260h-116z" />
<glyph unicode="&#xf5;" horiz-adv-x="1232" d="M102 532q0 254 140 406q141 154 374 154q231 0 372.5 -154t141.5 -406q0 -254 -141 -407.5t-372.5 -153.5t-373 153.5t-141.5 407.5zM317 532q0 -231 76 -346q78 -117 223.5 -116.5t223.5 116.5q76 115 75 346q0 229 -75 345q-78 117 -223.5 116.5t-223.5 -116.5 q-76 -116 -76 -345zM286 1309q4 137 54 209q51 74 141 73q41 0 69 -14q41 -20 70 -47l57 -55q23 -23 39.5 -31t38.5 -8q43 0 68 41q23 39 26 114h97q-4 -137 -54 -209q-51 -74 -141 -73q-41 0 -69 14q-41 20 -70 47l-57 55q-23 23 -43.5 31t-34.5 8q-41 0 -66 -39 q-23 -37 -28 -116h-97z" />
<glyph unicode="&#xf6;" horiz-adv-x="1232" d="M102 532q0 254 140 406q141 154 374 154q231 0 372.5 -154t141.5 -406q0 -254 -141 -407.5t-372.5 -153.5t-373 153.5t-141.5 407.5zM317 532q0 -231 76 -346q78 -117 223.5 -116.5t223.5 116.5q76 115 75 346q0 229 -75 345q-78 117 -223.5 116.5t-223.5 -116.5 q-76 -116 -76 -345zM305 1452q0 47 34.5 82t82 35t82 -35t34.5 -82q0 -51 -32.5 -84t-84 -33t-84 33t-32.5 84zM694 1452q0 47 34.5 82t82 35t82 -35t34.5 -82q0 -51 -32.5 -84t-84 -33t-84 33t-32.5 84z" />
<glyph unicode="&#xf7;" d="M217 561v162h1282v-162h-1282zM725 272q0 55 39 94.5t94 39.5t94 -39t39 -94.5t-39 -94.5t-94 -39q-57 0 -94 39q-39 43 -39 94zM725 1011.5q0 55.5 39 94.5t94 39t94 -39t39 -94.5t-39 -94t-94 -38.5t-94 38.5t-39 94z" />
<glyph unicode="&#xf8;" horiz-adv-x="1232" d="M76 -31l149 178q-61 77 -92 172q-31 94 -31 213q0 254 140 406q141 154 374 154q94 0 175 -25q74 -23 143 -76l139 166l76 -63l-145 -172q66 -78 94 -172q33 -104 32 -218q0 -254 -141 -407.5t-373 -153.5q-96 0 -174 27q-86 31 -147 80l-143 -172zM317 532q0 -74 7 -131 q6 -55 22 -108l494 586q-37 57 -94.5 85.5t-129.5 28.5q-145 0 -223 -116q-76 -116 -76 -345zM391 190q37 -57 96 -90q55 -31 129 -30q145 0 224 118q76 115 75 344q0 53 -8 136q-6 55 -22 112z" />
<glyph unicode="&#xf9;" horiz-adv-x="1318" d="M55 956v107h351v-619q0 -195 47 -266.5t170 -71.5q127 0 194.5 94.5t67.5 272.5v483h-160v107h344v-957h174v-106h-358v188q-51 -106 -131 -161.5t-189 -55.5q-178 0 -260 101q-84 102 -84 315v569h-166zM242 1636h197l260 -376h-117z" />
<glyph unicode="&#xfa;" horiz-adv-x="1318" d="M55 956v107h351v-619q0 -195 47 -266.5t170 -71.5q127 0 194.5 94.5t67.5 272.5v483h-160v107h344v-957h174v-106h-358v188q-51 -106 -131 -161.5t-189 -55.5q-178 0 -260 101q-84 102 -84 315v569h-166zM465 1262l258 376h199l-340 -376h-117z" />
<glyph unicode="&#xfb;" horiz-adv-x="1318" d="M55 956v107h351v-619q0 -195 47 -266.5t170 -71.5q127 0 194.5 94.5t67.5 272.5v483h-160v107h344v-957h174v-106h-358v188q-51 -106 -131 -161.5t-189 -55.5q-178 0 -260 101q-84 102 -84 315v569h-166zM265 1262l235 376h168l235 -376h-116l-203 260l-203 -260h-116z " />
<glyph unicode="&#xfc;" horiz-adv-x="1318" d="M55 956v107h351v-619q0 -195 47 -266.5t170 -71.5q127 0 194.5 94.5t67.5 272.5v483h-160v107h344v-957h174v-106h-358v188q-51 -106 -131 -161.5t-189 -55.5q-178 0 -260 101q-84 102 -84 315v569h-166zM273 1452q0 47 34.5 82t82 35t82 -35t34.5 -82q0 -51 -32.5 -84 t-84 -33t-84 33t-32.5 84zM662 1452q0 47 34.5 82t82 35t82 -35t34.5 -82q0 -51 -32.5 -84t-84 -33t-84 33t-32.5 84z" />
<glyph unicode="&#xfd;" horiz-adv-x="1155" d="M-6 956v107h489v-107h-170l299 -731l299 731h-159v107h399v-107h-119l-487 -1196q-49 -125 -111 -170q-59 -45 -172 -45q-53 0 -96 9q-72 12 -100 22v203h94q6 -66 35 -98q27 -29 88 -29q53 0 88 31q35 33 71 122l70 177l-397 974h-121zM461 1262l258 376h199l-340 -376 h-117z" />
<glyph unicode="&#xfe;" horiz-adv-x="1310" d="M59 -319h177v1769h-177v106h361v-659q55 102 137 147q84 47 207 48q197 0 319 -154q125 -156 125 -406q0 -246 -125 -405q-123 -156 -319 -156q-123 0 -207 47q-82 45 -137 148v-485h174v-107h-535v107zM420 479q0 -193 73.5 -293t213 -100t213 112.5t73.5 334t-73 331.5 q-76 113 -213 113q-139 0 -213 -100q-74 -102 -74 -293v-105z" />
<glyph unicode="&#xff;" horiz-adv-x="1155" d="M-6 956v107h489v-107h-170l299 -731l299 731h-159v107h399v-107h-119l-487 -1196q-49 -125 -111 -170q-59 -45 -172 -45q-53 0 -96 9q-72 12 -100 22v203h94q6 -66 35 -98q27 -29 88 -29q53 0 88 31q35 33 71 122l70 177l-397 974h-121zM269 1452q0 47 34.5 82t82 35 t82 -35t34.5 -82q0 -51 -32.5 -84t-84 -33t-84 33t-32.5 84zM658 1452q0 47 34.5 82t82 35t82 -35t34.5 -82q0 -51 -32.5 -84t-84 -33t-84 33t-32.5 84z" />
<glyph unicode="&#x100;" horiz-adv-x="1478" d="M436 1693v148h598v-148h-598zM-12 0v106h131l532 1387h168l533 -1387h147v-106h-543v106h166l-125 328h-628l-125 -328h164v-106h-420zM410 541h548l-274 710z" />
<glyph unicode="&#x101;" horiz-adv-x="1220" d="M248 1378v148h598v-148h-598zM102 319q0 164 119 256q117 90 336 91h258v73q0 119 -73.5 186.5t-206.5 67.5q-106 0 -174 -51t-82 -147h-95v215q92 39 187 61q84 20 176 21q221 0 336 -109q117 -111 116 -319v-558h164v-106h-348v115q-63 -76 -141 -109q-82 -35 -187 -35 q-178 0 -280 95q-105 93 -105 253zM307 319q0 -111 68 -176q70 -66 184.5 -65.5t185.5 72.5q70 70 70 184v225h-237q-133 0 -203 -59q-68 -58 -68 -181z" />
<glyph unicode="&#x102;" horiz-adv-x="1478" d="M435 1897h96q12 -76 65 -115q49 -35 151.5 -35t152.5 35q53 39 65 115h96q-8 -143 -90 -215t-223 -72t-223 72t-90 215zM-12 0v106h131l532 1387h168l533 -1387h147v-106h-543v106h166l-125 328h-628l-125 -328h164v-106h-420zM410 541h548l-274 710z" />
<glyph unicode="&#x103;" horiz-adv-x="1220" d="M283 1581h96q12 -76 65 -115q49 -35 151.5 -35t152.5 35q53 39 65 115h96q-8 -143 -90 -215t-223 -72t-223 72t-90 215zM102 319q0 164 119 256q117 90 336 91h258v73q0 119 -73.5 186.5t-206.5 67.5q-106 0 -174 -51t-82 -147h-95v215q92 39 187 61q84 20 176 21 q221 0 336 -109q117 -111 116 -319v-558h164v-106h-348v115q-63 -76 -141 -109q-82 -35 -187 -35q-178 0 -280 95q-105 93 -105 253zM307 319q0 -111 68 -176q70 -66 184.5 -65.5t185.5 72.5q70 70 70 184v225h-237q-133 0 -203 -59q-68 -58 -68 -181z" />
<glyph unicode="&#x104;" horiz-adv-x="1478" d="M832 -223q0 51 30 102q33 55 99 121h94v-2q-88 -125 -88 -170q0 -47 33 -74q35 -29 90 -28q28 0 55 6q18 4 60 20v-127q-51 -12 -70 -14q-45 -4 -66 -4q-113 0 -176 45q-61 43 -61 125zM-12 0v106h131l532 1387h168l533 -1387h147v-106h-543v106h166l-125 328h-628 l-125 -328h164v-106h-420zM410 541h548l-274 710z" />
<glyph unicode="&#x105;" horiz-adv-x="1220" d="M686 -223q0 51 30 102q33 55 99 121h94v-2q-88 -125 -88 -170q0 -47 33 -74q35 -29 90 -28q28 0 55 6q18 4 60 20v-127q-51 -12 -70 -14q-45 -4 -66 -4q-113 0 -176 45q-61 43 -61 125zM102 319q0 164 119 256q117 90 336 91h258v73q0 119 -73.5 186.5t-206.5 67.5 q-106 0 -174 -51t-82 -147h-95v215q92 39 187 61q84 20 176 21q221 0 336 -109q117 -111 116 -319v-558h164v-106h-348v115q-63 -76 -141 -109q-82 -35 -187 -35q-178 0 -280 95q-105 93 -105 253zM307 319q0 -111 68 -176q70 -66 184.5 -65.5t185.5 72.5q70 70 70 184v225 h-237q-133 0 -203 -59q-68 -58 -68 -181z" />
<glyph unicode="&#x106;" horiz-adv-x="1566" d="M115 745q0 348 200.5 561.5t530.5 213.5q121 0 260 -31q119 -27 297 -98v-344h-113q-37 186 -149.5 276t-311.5 90q-240 0 -362 -170q-123 -169 -123 -497.5t123 -497.5q123 -170 362 -170q166 0 275 80q106 78 156 237h184q-66 -211 -221.5 -317.5t-393.5 -106.5 q-145 0 -272 49q-121 47 -221 148q-109 109 -166 254q-55 141 -55 323zM702 1635l182 264h197l-262 -264h-117z" />
<glyph unicode="&#x107;" horiz-adv-x="1146" d="M102 532.5q0 253.5 142 407.5q139 152 372 152q109 0 201 -23q106 -27 201 -72v-272h-107q-20 139 -92 205q-70 63 -201 63q-147 0 -225 -116q-76 -115 -76 -345q0 -231 76 -346q78 -117 225 -116q120 0 191 61q72 61 96 188h148q-41 -172 -149.5 -260t-287.5 -88 q-231 0 -372.5 154t-141.5 407.5zM487 1262l258 376h199l-340 -376h-117z" />
<glyph unicode="&#x108;" horiz-adv-x="1566" d="M510 1635l231 264h176l231 -264h-116l-203 161l-203 -161h-116zM115 745q0 348 200.5 561.5t530.5 213.5q121 0 260 -31q119 -27 297 -98v-344h-113q-37 186 -149.5 276t-311.5 90q-240 0 -362 -170q-123 -169 -123 -497.5t123 -497.5q123 -170 362 -170q166 0 275 80 q106 78 156 237h184q-66 -211 -221.5 -317.5t-393.5 -106.5q-145 0 -272 49q-121 47 -221 148q-109 109 -166 254q-55 141 -55 323z" />
<glyph unicode="&#x109;" horiz-adv-x="1146" d="M297 1262l235 376h168l235 -376h-116l-203 260l-203 -260h-116zM102 532.5q0 253.5 142 407.5q139 152 372 152q109 0 201 -23q106 -27 201 -72v-272h-107q-20 139 -92 205q-70 63 -201 63q-147 0 -225 -116q-76 -115 -76 -345q0 -231 76 -346q78 -117 225 -116 q120 0 191 61q72 61 96 188h148q-41 -172 -149.5 -260t-287.5 -88q-231 0 -372.5 154t-141.5 407.5z" />
<glyph unicode="&#x10a;" horiz-adv-x="1566" d="M712 1770q0 47 35 81.5t82 34.5t82 -34.5t35 -81.5q0 -51 -33 -84t-84 -33t-84 33t-33 84zM115 745q0 348 200.5 561.5t530.5 213.5q121 0 260 -31q119 -27 297 -98v-344h-113q-37 186 -149.5 276t-311.5 90q-240 0 -362 -170q-123 -169 -123 -497.5t123 -497.5 q123 -170 362 -170q166 0 275 80q106 78 156 237h184q-66 -211 -221.5 -317.5t-393.5 -106.5q-145 0 -272 49q-121 47 -221 148q-109 109 -166 254q-55 141 -55 323z" />
<glyph unicode="&#x10b;" horiz-adv-x="1146" d="M499 1452q0 47 35 82t82 35t82 -35t35 -82q0 -51 -33 -84t-84 -33t-84 33t-33 84zM102 532.5q0 253.5 142 407.5q139 152 372 152q109 0 201 -23q106 -27 201 -72v-272h-107q-20 139 -92 205q-70 63 -201 63q-147 0 -225 -116q-76 -115 -76 -345q0 -231 76 -346 q78 -117 225 -116q120 0 191 61q72 61 96 188h148q-41 -172 -149.5 -260t-287.5 -88q-231 0 -372.5 154t-141.5 407.5z" />
<glyph unicode="&#x10c;" horiz-adv-x="1566" d="M115 745q0 348 200.5 561.5t530.5 213.5q121 0 260 -31q119 -27 297 -98v-344h-113q-37 186 -149.5 276t-311.5 90q-240 0 -362 -170q-123 -169 -123 -497.5t123 -497.5q123 -170 362 -170q166 0 275 80q106 78 156 237h184q-66 -211 -221.5 -317.5t-393.5 -106.5 q-145 0 -272 49q-121 47 -221 148q-109 109 -166 254q-55 141 -55 323zM502 1899h116l203 -162l203 162h116l-231 -264h-176z" />
<glyph unicode="&#x10d;" horiz-adv-x="1146" d="M102 532.5q0 253.5 142 407.5q139 152 372 152q109 0 201 -23q106 -27 201 -72v-272h-107q-20 139 -92 205q-70 63 -201 63q-147 0 -225 -116q-76 -115 -76 -345q0 -231 76 -346q78 -117 225 -116q120 0 191 61q72 61 96 188h148q-41 -172 -149.5 -260t-287.5 -88 q-231 0 -372.5 154t-141.5 407.5zM287 1638h116l203 -260l203 260h116l-235 -376h-168z" />
<glyph unicode="&#x10e;" horiz-adv-x="1640" d="M113 0v106h190v1280h-190v107h594q387 0 602 -196.5t215 -549t-215 -548.5q-217 -199 -602 -199h-594zM506 106h186q291 0 447 166q156 164 155 476q0 309 -155 475q-154 164 -447 163h-186v-1280zM424 1899h116l203 -162l203 162h116l-231 -264h-176z" />
<glyph unicode="&#x10f;" horiz-adv-x="1310" d="M102 532q0 252 123 406t322 154q123 0 207 -48q82 -45 137 -147v553h-174v106h358v-1450h176v-106h-360v166q-55 -102 -137 -148q-84 -47 -207 -47q-195 0 -320 155.5t-125 405.5zM317 532q0 -223 72 -333q74 -113 215 -113q139 0 213 100.5t74 292.5v105q0 190 -74 293 q-74 100 -213 100t-215 -113q-72 -107 -72 -332zM1251 1178l62 376h198l-143 -376h-117z" />
<glyph unicode="&#x110;" horiz-adv-x="1652" d="M113 719v125h200v542h-190v107h594q387 0 602 -196.5t215 -549t-215 -548.5q-217 -199 -602 -199h-594v106h190v613h-200zM514 106h188q289 0 447 166q156 164 156 476q0 313 -156 475q-158 164 -447 163h-188v-542h336v-125h-336v-613z" />
<glyph unicode="&#x111;" horiz-adv-x="1310" d="M102 532q0 252 123 406t322 154q123 0 207 -48q82 -45 137 -147v330h-326v106h326v117h-174v106h358v-223h176v-106h-176v-1121h176v-106h-360v166q-55 -102 -137 -148q-84 -47 -207 -47q-195 0 -320 155.5t-125 405.5zM317 532q0 -223 72 -333q74 -113 215 -113 q139 0 213 100.5t74 292.5v105q0 190 -74 293q-74 100 -213 100t-215 -113q-72 -107 -72 -332z" />
<glyph unicode="&#x112;" horiz-adv-x="1492" d="M416 1693v148h598v-148h-598zM113 0v106h190v1280h-190v107h1202v-332h-123v209h-686v-500h489v187h123v-496h-123v187h-489v-625h702v209h123v-332h-1218z" />
<glyph unicode="&#x113;" horiz-adv-x="1210" d="M307 1378v148h598v-148h-598zM102 532q0 250 140 406q139 154 364 154q242 0 371 -148q127 -145 133 -432h-793v-8q0 -213 80 -323.5t240 -110.5q123 0 199 63q78 66 108 189h148q-43 -174 -162 -262.5t-312 -88.5q-233 0 -374.5 153.5t-141.5 407.5zM317 618h576 q-6 188 -78 281q-74 94 -209 94q-127 0 -200 -96q-73 -95 -89 -279z" />
<glyph unicode="&#x114;" horiz-adv-x="1492" d="M437 1901h94q18 -53 72 -82q51 -27 145 -27t145 27q53 29 72 82h94q-23 -121 -100 -180q-80 -61 -211 -61.5t-211 61.5q-77 59 -100 180zM113 0v106h190v1280h-190v107h1202v-332h-123v209h-686v-500h489v187h123v-496h-123v187h-489v-625h702v209h123v-332h-1218z" />
<glyph unicode="&#x115;" horiz-adv-x="1210" d="M293 1608h96q12 -76 65 -115q49 -35 151.5 -35t152.5 35q53 39 65 115h96q-8 -143 -90 -215t-223 -72t-223 72t-90 215zM102 532q0 250 140 406q139 154 364 154q242 0 371 -148q127 -145 133 -432h-793v-8q0 -213 80 -323.5t240 -110.5q123 0 199 63q78 66 108 189h148 q-43 -174 -162 -262.5t-312 -88.5q-233 0 -374.5 153.5t-141.5 407.5zM317 618h576q-6 188 -78 281q-74 94 -209 94q-127 0 -200 -96q-73 -95 -89 -279z" />
<glyph unicode="&#x116;" horiz-adv-x="1492" d="M631 1770q0 47 35 81.5t82 34.5t82 -34.5t35 -81.5q0 -51 -33 -84t-84 -33t-84 33t-33 84zM113 0v106h190v1280h-190v107h1202v-332h-123v209h-686v-500h489v187h123v-496h-123v187h-489v-625h702v209h123v-332h-1218z" />
<glyph unicode="&#x117;" horiz-adv-x="1210" d="M489 1452q0 47 35 82t82 35t82 -35t35 -82q0 -51 -33 -84t-84 -33t-84 33t-33 84zM102 532q0 250 140 406q139 154 364 154q242 0 371 -148q127 -145 133 -432h-793v-8q0 -213 80 -323.5t240 -110.5q123 0 199 63q78 66 108 189h148q-43 -174 -162 -262.5t-312 -88.5 q-233 0 -374.5 153.5t-141.5 407.5zM317 618h576q-6 188 -78 281q-74 94 -209 94q-127 0 -200 -96q-73 -95 -89 -279z" />
<glyph unicode="&#x118;" horiz-adv-x="1492" d="M957 -223q0 51 30 102q33 55 99 121h94v-2q-88 -125 -88 -170q0 -47 33 -74q35 -29 90 -28q28 0 55 6q18 4 60 20v-127q-51 -12 -70 -14q-45 -4 -66 -4q-113 0 -176 45q-61 43 -61 125zM113 0v106h190v1280h-190v107h1202v-332h-123v209h-686v-500h489v187h123v-496h-123 v187h-489v-625h702v209h123v-332h-1218z" />
<glyph unicode="&#x119;" horiz-adv-x="1210" d="M592 -223q0 51 30 102q33 55 99 121h94v-2q-88 -125 -88 -170q0 -47 33 -74q35 -29 90 -28q28 0 55 6q18 4 60 20v-127q-51 -12 -70 -14q-45 -4 -66 -4q-113 0 -176 45q-61 43 -61 125zM102 532q0 250 140 406q139 154 364 154q242 0 371 -148q127 -145 133 -432h-793v-8 q0 -213 80 -323.5t240 -110.5q123 0 199 63q78 66 108 189h148q-43 -174 -162 -262.5t-312 -88.5q-233 0 -374.5 153.5t-141.5 407.5zM317 618h576q-6 188 -78 281q-74 94 -209 94q-127 0 -200 -96q-73 -95 -89 -279z" />
<glyph unicode="&#x11a;" horiz-adv-x="1492" d="M113 0v106h190v1280h-190v107h1202v-332h-123v209h-686v-500h489v187h123v-496h-123v187h-489v-625h702v209h123v-332h-1218zM502 1899h116l203 -162l203 162h116l-231 -264h-176z" />
<glyph unicode="&#x11b;" horiz-adv-x="1210" d="M102 532q0 250 140 406q139 154 364 154q242 0 371 -148q127 -145 133 -432h-793v-8q0 -213 80 -323.5t240 -110.5q123 0 199 63q78 66 108 189h148q-43 -174 -162 -262.5t-312 -88.5q-233 0 -374.5 153.5t-141.5 407.5zM317 618h576q-6 188 -78 281q-74 94 -209 94 q-127 0 -200 -96q-73 -95 -89 -279zM287 1638h116l203 -260l203 260h116l-235 -376h-168z" />
<glyph unicode="&#x11c;" horiz-adv-x="1634" d="M537 1635l231 264h176l231 -264h-116l-203 161l-203 -161h-116zM115 745.5q0 348.5 204 563.5q203 211 549 211q137 0 265 -29q152 -35 290 -90v-354h-112q-33 186 -145.5 276t-309.5 90q-258 0 -385 -166q-127 -168 -127 -502q0 -330 131 -497q133 -170 385 -170 q106 0 215 28q102 27 197 84v385h-281v107h484v-557q-125 -72 -287 -115q-150 -39 -328 -39q-338 0 -541 211q-204 215 -204 563.5z" />
<glyph unicode="&#x11d;" horiz-adv-x="1310" d="M285 1262l235 376h168l235 -376h-116l-203 260l-203 -260h-116zM102 532q0 252 123 406t322 154q123 0 207 -48q82 -45 137 -147v166h360v-107h-176v-933q0 -225 -127 -353q-125 -125 -358 -125q-106 0 -201 19q-86 16 -184 57v223h96q18 -104 84 -151q68 -49 193 -49 q160 0 237 92q76 90 76 287v143q-55 -102 -137 -148q-84 -47 -207 -47q-195 0 -320 155.5t-125 405.5zM317 532q0 -223 72 -333q74 -113 215 -113q139 0 213 100.5t74 292.5v105q0 190 -74 293q-74 100 -213 100t-215 -113q-72 -107 -72 -332z" />
<glyph unicode="&#x11e;" horiz-adv-x="1634" d="M115 745.5q0 348.5 204 563.5q203 211 549 211q137 0 265 -29q152 -35 290 -90v-354h-112q-33 186 -145.5 276t-309.5 90q-258 0 -385 -166q-127 -168 -127 -502q0 -330 131 -497q133 -170 385 -170q106 0 215 28q102 27 197 84v385h-281v107h484v-557 q-125 -72 -287 -115q-150 -39 -328 -39q-338 0 -541 211q-204 215 -204 563.5zM508 1901h94q18 -53 72 -82q51 -27 145 -27t145 27q53 29 72 82h94q-23 -121 -100 -180q-80 -61 -211 -61.5t-211 61.5q-77 59 -100 180z" />
<glyph unicode="&#x11f;" horiz-adv-x="1310" d="M102 532q0 252 123 406t322 154q123 0 207 -48q82 -45 137 -147v166h360v-107h-176v-933q0 -225 -127 -353q-125 -125 -358 -125q-106 0 -201 19q-86 16 -184 57v223h96q18 -104 84 -151q68 -49 193 -49q160 0 237 92q76 90 76 287v143q-55 -102 -137 -148 q-84 -47 -207 -47q-195 0 -320 155.5t-125 405.5zM317 532q0 -223 72 -333q74 -113 215 -113q139 0 213 100.5t74 292.5v105q0 190 -74 293q-74 100 -213 100t-215 -113q-72 -107 -72 -332zM342 1608h96q12 -76 65 -115q49 -35 151.5 -35t152.5 35q53 39 65 115h96 q-8 -143 -90 -215t-223 -72t-223 72t-90 215z" />
<glyph unicode="&#x120;" horiz-adv-x="1634" d="M739 1770q0 47 35 81.5t82 34.5t82 -34.5t35 -81.5q0 -51 -33 -84t-84 -33t-84 33t-33 84zM115 745.5q0 348.5 204 563.5q203 211 549 211q137 0 265 -29q152 -35 290 -90v-354h-112q-33 186 -145.5 276t-309.5 90q-258 0 -385 -166q-127 -168 -127 -502q0 -330 131 -497 q133 -170 385 -170q106 0 215 28q102 27 197 84v385h-281v107h484v-557q-125 -72 -287 -115q-150 -39 -328 -39q-338 0 -541 211q-204 215 -204 563.5z" />
<glyph unicode="&#x121;" horiz-adv-x="1310" d="M487 1452q0 47 35 82t82 35t82 -35t35 -82q0 -51 -33 -84t-84 -33t-84 33t-33 84zM102 532q0 252 123 406t322 154q123 0 207 -48q82 -45 137 -147v166h360v-107h-176v-933q0 -225 -127 -353q-125 -125 -358 -125q-106 0 -201 19q-86 16 -184 57v223h96q18 -104 84 -151 q68 -49 193 -49q160 0 237 92q76 90 76 287v143q-55 -102 -137 -148q-84 -47 -207 -47q-195 0 -320 155.5t-125 405.5zM317 532q0 -223 72 -333q74 -113 215 -113q139 0 213 100.5t74 292.5v105q0 190 -74 293q-74 100 -213 100t-215 -113q-72 -107 -72 -332z" />
<glyph unicode="&#x122;" horiz-adv-x="1634" d="M706 -410q77 43 111 99q35 57 35 135v22h157q-6 -104 -63 -176q-57 -74 -176 -129zM115 745.5q0 348.5 204 563.5q203 211 549 211q137 0 265 -29q152 -35 290 -90v-354h-112q-33 186 -145.5 276t-309.5 90q-258 0 -385 -166q-127 -168 -127 -502q0 -330 131 -497 q133 -170 385 -170q106 0 215 28q102 27 197 84v385h-281v107h484v-557q-125 -72 -287 -115q-150 -39 -328 -39q-338 0 -541 211q-204 215 -204 563.5z" />
<glyph unicode="&#x123;" horiz-adv-x="1310" d="M536 1215q6 100 66 176q59 74 174 129l64 -49q-77 -43 -111 -99q-35 -57 -35 -135v-22h-158zM102 532q0 252 123 406t322 154q123 0 207 -48q82 -45 137 -147v166h360v-107h-176v-933q0 -225 -127 -353q-125 -125 -358 -125q-106 0 -201 19q-86 16 -184 57v223h96 q18 -104 84 -151q68 -49 193 -49q160 0 237 92q76 90 76 287v143q-55 -102 -137 -148q-84 -47 -207 -47q-195 0 -320 155.5t-125 405.5zM317 532q0 -223 72 -333q74 -113 215 -113q139 0 213 100.5t74 292.5v105q0 190 -74 293q-74 100 -213 100t-215 -113 q-72 -107 -72 -332z" />
<glyph unicode="&#x124;" horiz-adv-x="1785" d="M574 1635l231 264h176l231 -264h-116l-203 161l-203 -161h-116zM113 0v106h190v1280h-190v107h583v-107h-190v-516h774v516h-190v107h583v-107h-190v-1280h190v-106h-583v106h190v642h-774v-642h190v-106h-583z" />
<glyph unicode="&#x125;" horiz-adv-x="1318" d="M-61 1635l231 264h176l231 -264h-116l-203 161l-203 -161h-116zM74 1450v106h360v-682q53 109 133 162q84 55 189 56q178 0 260 -100.5t82 -315.5v-570h164v-106h-508v106h159v512q0 195 -47 266.5t-170 71.5q-125 0 -194 -94q-68 -92 -68 -270v-486h160v-106h-510v106 h166v1344h-176z" />
<glyph unicode="&#x126;" horiz-adv-x="1785" d="M113 0v106h190v961h-190v123h190v196h-190v107h583v-107h-190v-196h774v196h-190v107h583v-107h-190v-196h190v-123h-190v-961h190v-106h-583v106h190v642h-774v-642h190v-106h-583zM506 870h774v197h-774v-197z" />
<glyph unicode="&#x127;" horiz-adv-x="1318" d="M74 1210v121h176v119h-176v106h360v-225h316v-121h-316v-336q53 109 133 162q84 55 189 56q178 0 260 -100.5t82 -315.5v-570h164v-106h-508v106h159v512q0 195 -47 266.5t-170 71.5q-125 0 -194 -94q-68 -92 -68 -270v-486h160v-106h-510v106h166v1104h-176z" />
<glyph unicode="&#x128;" horiz-adv-x="808" d="M73 1667q4 104 54 160q53 59 135 59q33 0 67.5 -10t85.5 -39l49 -26q27 -14 45 -21q20 -6 39 -6q39 0 64 27q25 29 24 75h97q-4 -106 -54 -161q-51 -57 -145 -58q-70 0 -139 45l-4 2l-49 29q-31 18 -41 21q-20 6 -37 6q-41 0 -66 -29q-27 -29 -28 -74h-97zM113 0v106h190 v1280h-190v107h583v-107h-190v-1280h190v-106h-583z" />
<glyph unicode="&#x129;" horiz-adv-x="653" d="M-2 1309q4 137 54 209q51 74 141 73q41 0 69 -14q41 -20 70 -47l57 -55q23 -23 39.5 -31t38.5 -8q43 0 68 41q23 39 26 114h97q-4 -137 -54 -209q-51 -74 -141 -73q-41 0 -69 14q-41 20 -70 47l-57 55q-23 23 -43.5 31t-34.5 8q-41 0 -66 -39q-23 -37 -28 -116h-97zM74 0 v106h176v850h-176v107h360v-957h174v-106h-534z" />
<glyph unicode="&#x12a;" horiz-adv-x="808" d="M104 1693v148h598v-148h-598zM113 0v106h190v1280h-190v107h583v-107h-190v-1280h190v-106h-583z" />
<glyph unicode="&#x12b;" horiz-adv-x="653" d="M-45 1378v148h598v-148h-598zM74 0v106h176v850h-176v107h360v-957h174v-106h-534z" />
<glyph unicode="&#x12c;" horiz-adv-x="808" d="M92 1901h94q18 -53 72 -82q51 -27 145 -27t145 27q53 29 72 82h94q-23 -121 -100 -180q-80 -61 -211 -61.5t-211 61.5q-77 59 -100 180zM113 0v106h190v1280h-190v107h583v-107h-190v-1280h190v-106h-583z" />
<glyph unicode="&#x12d;" horiz-adv-x="653" d="M15 1608h96q12 -76 65 -115q49 -35 151.5 -35t152.5 35q53 39 65 115h96q-8 -143 -90 -215t-223 -72t-223 72t-90 215zM74 0v106h176v850h-176v107h360v-957h174v-106h-534z" />
<glyph unicode="&#x12e;" horiz-adv-x="808" d="M113 0v106h190v1280h-190v107h583v-107h-190v-1280h190v-106h-583zM283 -223q0 51 30 102q33 55 99 121h94v-2q-88 -125 -88 -170q0 -47 33 -74q35 -29 90 -28q28 0 55 6q18 4 60 20v-127q-51 -12 -70 -14q-45 -4 -66 -4q-113 0 -176 45q-61 43 -61 125z" />
<glyph unicode="&#x12f;" horiz-adv-x="653" d="M74 0v106h176v850h-176v107h360v-957h174v-106h-534zM199 1393q0 45 34.5 79.5t79.5 34.5t80 -34q33 -33 33 -80t-33 -80t-80 -33t-80 33q-34 35 -34 80zM211 -223q0 51 30 102q33 55 99 121h94v-2q-88 -125 -88 -170q0 -47 33 -74q35 -29 90 -28q28 0 55 6q18 4 60 20 v-127q-51 -12 -70 -14q-45 -4 -66 -4q-113 0 -176 45q-61 43 -61 125z" />
<glyph unicode="&#x130;" horiz-adv-x="808" d="M113 0v106h190v1280h-190v107h583v-107h-190v-1280h190v-106h-583zM289 1770q0 47 35 81.5t82 34.5t82 -34.5t35 -81.5q0 -51 -33 -84t-84 -33t-84 33t-33 84z" />
<glyph unicode="&#x131;" horiz-adv-x="653" d="M74 0v106h176v850h-176v107h360v-957h174v-106h-534z" />
<glyph unicode="&#x132;" horiz-adv-x="1640" d="M113 0v106h190v1280h-190v107h583v-107h-190v-1280h190v-106h-583zM647 -123h115q2 -96 47 -147q43 -49 131 -49q119 0 166 75.5t47 292.5v1337h-232v107h625v-107h-190v-1345q0 -246 -98.5 -356.5t-319.5 -110.5q-78 0 -144 16q-78 20 -147 52v235z" />
<glyph unicode="&#x133;" horiz-adv-x="1091" d="M74 0v106h176v850h-176v107h360v-957h174v-106h-534zM199 1393q0 45 34.5 79.5t79.5 34.5t80 -34q33 -33 33 -80t-33 -80t-80 -33t-80 33q-34 35 -34 80zM387 -170h95q6 -95 49 -141q43 -45 125 -45q92 0 135 61.5t43 190.5v1060h-174v107h358v-1167q0 -166 -98 -258.5 t-268 -92.5q-68 0 -138 17q-66 16 -127 49v219zM789 1393q0 47 33 80q35 35 81 34q45 0 80 -34q33 -33 33 -80t-32.5 -80t-80.5 -33q-49 0 -81.5 33t-32.5 80z" />
<glyph unicode="&#x134;" horiz-adv-x="819" d="M95 1635l231 264h176l231 -264h-116l-203 161l-203 -161h-116zM-172 -123h115q2 -96 47 -147q43 -49 131 -49q119 0 166 75.5t47 292.5v1337h-232v107h625v-107h-190v-1345q0 -246 -98.5 -356.5t-319.5 -110.5q-78 0 -144 16q-78 20 -147 52v235z" />
<glyph unicode="&#x135;" horiz-adv-x="634" d="M-57 1262l235 376h168l235 -376h-116l-203 260l-203 -260h-116zM-197 -170h95q6 -95 49 -141q43 -45 125 -45q92 0 135 61.5t43 190.5v1060h-174v107h358v-1167q0 -166 -98 -258.5t-268 -92.5q-68 0 -138 17q-66 16 -127 49v219z" />
<glyph unicode="&#x136;" horiz-adv-x="1529" d="M684 -381q77 43 111 99q35 57 35 135v22h157q-6 -104 -63 -176q-57 -74 -176 -129zM113 0v106h190v1280h-190v107h583v-107h-190v-565l643 565h-162v107h496v-107h-168l-641 -563l717 -717h170v-106h-347l-708 709v-603h190v-106h-583z" />
<glyph unicode="&#x137;" horiz-adv-x="1239" d="M510 -381q77 43 111 99q35 57 35 135v22h157q-6 -104 -63 -176q-57 -74 -176 -129zM59 1450v106h361v-1013l448 413h-153v107h481v-107h-182l-316 -292l404 -558h153v-106h-524v106h152l-318 437l-145 -135v-302h166v-106h-516v106h166v1344h-177z" />
<glyph unicode="&#x138;" horiz-adv-x="1239" d="M59 952v109h361v-520l448 411h-153v109h481v-109h-182l-316 -290l404 -556h153v-106h-524v106h152l-318 435l-145 -135v-300h166v-106h-516v106h166v846h-177z" />
<glyph unicode="&#x139;" horiz-adv-x="1359" d="M239 1637l182 264h197l-262 -264h-117zM113 0v106h190v1280h-190v107h583v-107h-190v-1263h682v250h123v-373h-1198z" />
<glyph unicode="&#x13a;" horiz-adv-x="653" d="M139 1637l182 264h197l-262 -264h-117zM59 0v106h177v1344h-177v106h361v-1450h174v-106h-535z" />
<glyph unicode="&#x13b;" horiz-adv-x="1359" d="M559 -381q77 43 111 99q35 57 35 135v22h157q-6 -104 -63 -176q-57 -74 -176 -129zM113 0v106h190v1280h-190v107h583v-107h-190v-1263h682v250h123v-373h-1198z" />
<glyph unicode="&#x13c;" horiz-adv-x="653" d="M102 -375q77 43 111 99q35 57 35 135v22h157q-6 -104 -63 -176q-57 -74 -176 -129zM59 0v106h177v1344h-177v106h361v-1450h174v-106h-535z" />
<glyph unicode="&#x13d;" horiz-adv-x="1359" d="M860 1117l62 376h198l-143 -376h-117zM113 0v106h190v1280h-190v107h583v-107h-190v-1263h682v250h123v-373h-1198z" />
<glyph unicode="&#x13e;" horiz-adv-x="653" d="M596 1180l62 376h198l-143 -376h-117zM59 0v106h177v1344h-177v106h361v-1450h174v-106h-535z" />
<glyph unicode="&#x13f;" horiz-adv-x="1359" d="M999 844q0 55 39 94t94.5 39t94.5 -39t39 -94.5t-39 -94t-94 -38.5q-51 0 -95 38q-39 38 -39 95zM113 0v106h190v1280h-190v107h583v-107h-190v-1263h682v250h123v-373h-1198z" />
<glyph unicode="&#x140;" horiz-adv-x="653" d="M571 836q0 55 39 94t94.5 39t94.5 -39t39 -94.5t-39 -94t-94 -38.5q-51 0 -95 38q-39 38 -39 95zM59 0v106h177v1344h-177v106h361v-1450h174v-106h-535z" />
<glyph unicode="&#x141;" horiz-adv-x="1368" d="M86 565l227 162v659h-190v107h582v-107h-191v-516l307 226l70 -92l-377 -275v-606h684v250h123v-373h-1198v106h190v480l-157 -113z" />
<glyph unicode="&#x142;" horiz-adv-x="663" d="M45 670l199 141v639h-174v106h358v-616l147 98l60 -86l-207 -141v-705h176v-106h-534v106h174v574l-138 -96z" />
<glyph unicode="&#x143;" horiz-adv-x="1792" d="M755 1637l182 264h197l-262 -264h-117zM100 0v106h201v1280h-201v107h383l895 -1178v1071h-200v107h524v-107h-201v-1415h-121l-956 1258v-1123h201v-106h-525z" />
<glyph unicode="&#x144;" horiz-adv-x="1318" d="M469 1215l258 376h199l-340 -376h-117zM74 956v107h360v-189q53 109 133 162q84 55 189 56q178 0 260 -100.5t82 -315.5v-570h164v-106h-508v106h159v512q0 193 -49 266.5t-168 73.5q-125 0 -194 -94q-68 -92 -68 -272v-486h160v-106h-510v106h166v850h-176z" />
<glyph unicode="&#x145;" horiz-adv-x="1792" d="M700 -396q77 43 111 99q35 57 35 135v22h157q-6 -104 -63 -176q-57 -74 -176 -129zM100 0v106h201v1280h-201v107h383l895 -1178v1071h-200v107h524v-107h-201v-1415h-121l-956 1258v-1123h201v-106h-525z" />
<glyph unicode="&#x146;" horiz-adv-x="1318" d="M520 -381q77 43 111 99q35 57 35 135v22h157q-6 -104 -63 -176q-57 -74 -176 -129zM74 956v107h360v-189q53 109 133 162q84 55 189 56q178 0 260 -100.5t82 -315.5v-570h164v-106h-508v106h159v512q0 193 -49 266.5t-168 73.5q-125 0 -194 -94q-68 -92 -68 -272v-486 h160v-106h-510v106h166v850h-176z" />
<glyph unicode="&#x147;" horiz-adv-x="1792" d="M100 0v106h201v1280h-201v107h383l895 -1178v1071h-200v107h524v-107h-201v-1415h-121l-956 1258v-1123h201v-106h-525zM551 1909h116l203 -162l203 162h116l-231 -264h-176z" />
<glyph unicode="&#x148;" horiz-adv-x="1318" d="M74 956v107h360v-189q53 109 133 162q84 55 189 56q178 0 260 -100.5t82 -315.5v-570h164v-106h-508v106h159v512q0 193 -49 266.5t-168 73.5q-125 0 -194 -94q-68 -92 -68 -272v-486h160v-106h-510v106h166v850h-176zM287 1638h116l203 -260l203 260h116l-235 -376h-168 z" />
<glyph unicode="&#x149;" horiz-adv-x="1773" d="M113 1094q78 66 110 149q35 88 35 213v64h195q0 -172 -64 -295q-59 -117 -198 -211zM473 956v107h360v-189q53 109 133 162q84 55 189 56q178 0 260 -100.5t82 -315.5v-570h164v-106h-508v106h159v512q0 193 -49 266.5t-168 73.5q-125 0 -194 -94q-68 -92 -68 -272v-486 h160v-106h-510v106h166v850h-176z" />
<glyph unicode="&#x14a;" horiz-adv-x="1724" d="M96 0v106h191v1280h-176v107h378v-201q74 113 193 172q115 57 270 58q252 0 373 -146q119 -143 119 -454v-881q0 -246 -98.5 -356.5t-319.5 -110.5q-80 0 -145 16q-74 18 -146 52v235h113q0 -100 45 -147q45 -49 133 -49q115 0 166 75q47 76 47 293v832q0 291 -76 401 q-74 109 -264 109q-201 0 -305.5 -129t-104.5 -375v-781h191v-106h-584z" />
<glyph unicode="&#x14b;" horiz-adv-x="1318" d="M74 956v107h360v-189q53 109 133 162q84 55 189 56q174 0 260 -101q82 -96 82 -315v-780q0 -168 -97 -258q-98 -92 -270 -93q-68 0 -137 17q-66 16 -127 49v219h94q6 -92 51 -141q43 -45 123 -45q92 0 135 61.5t43 190.5v722q0 193 -49 266.5t-168 73.5q-125 0 -194 -94 q-68 -92 -68 -272v-486h160v-106h-510v106h166v850h-176z" />
<glyph unicode="&#x14c;" horiz-adv-x="1677" d="M541 1693v148h598v-148h-598zM115 745q0 182 55 324q57 145 166 254q98 98 223 147.5t281 49.5q326 0 526 -213q199 -211 199 -562q0 -180 -55.5 -323t-166.5 -254q-98 -98 -225 -147.5t-278 -49.5q-150 0 -279 49q-125 47 -225 148q-109 109 -166 254q-55 141 -55 323z M344 745.5q0 -331.5 125 -499.5t370.5 -168t370.5 168t125 499.5t-125 499.5t-370.5 168t-370.5 -168t-125 -499.5z" />
<glyph unicode="&#x14d;" horiz-adv-x="1232" d="M317 1378v148h598v-148h-598zM102 532q0 254 140 406q141 154 374 154q231 0 372.5 -154t141.5 -406q0 -254 -141 -407.5t-372.5 -153.5t-373 153.5t-141.5 407.5zM317 532q0 -231 76 -346q78 -117 223.5 -116.5t223.5 116.5q76 115 75 346q0 229 -75 345 q-78 117 -223.5 116.5t-223.5 -116.5q-76 -116 -76 -345z" />
<glyph unicode="&#x14e;" horiz-adv-x="1677" d="M529 1901h94q18 -53 72 -82q51 -27 145 -27t145 27q53 29 72 82h94q-23 -121 -100 -180q-80 -61 -211 -61.5t-211 61.5q-77 59 -100 180zM115 745q0 182 55 324q57 145 166 254q98 98 223 147.5t281 49.5q326 0 526 -213q199 -211 199 -562q0 -180 -55.5 -323 t-166.5 -254q-98 -98 -225 -147.5t-278 -49.5q-150 0 -279 49q-125 47 -225 148q-109 109 -166 254q-55 141 -55 323zM344 745.5q0 -331.5 125 -499.5t370.5 -168t370.5 168t125 499.5t-125 499.5t-370.5 168t-370.5 -168t-125 -499.5z" />
<glyph unicode="&#x14f;" horiz-adv-x="1232" d="M303 1608h96q12 -76 65 -115q49 -35 151.5 -35t152.5 35q53 39 65 115h96q-8 -143 -90 -215t-223 -72t-223 72t-90 215zM102 532q0 254 140 406q141 154 374 154q231 0 372.5 -154t141.5 -406q0 -254 -141 -407.5t-372.5 -153.5t-373 153.5t-141.5 407.5zM317 532 q0 -231 76 -346q78 -117 223.5 -116.5t223.5 116.5q76 115 75 346q0 229 -75 345q-78 117 -223.5 116.5t-223.5 -116.5q-76 -116 -76 -345z" />
<glyph unicode="&#x150;" horiz-adv-x="1677" d="M572 1635l182 264h197l-263 -264h-116zM889 1635l182 264h197l-262 -264h-117zM115 745q0 182 55 324q57 145 166 254q98 98 223 147.5t281 49.5q326 0 526 -213q199 -211 199 -562q0 -180 -55.5 -323t-166.5 -254q-98 -98 -225 -147.5t-278 -49.5q-150 0 -279 49 q-125 47 -225 148q-109 109 -166 254q-55 141 -55 323zM344 745.5q0 -331.5 125 -499.5t370.5 -168t370.5 168t125 499.5t-125 499.5t-370.5 168t-370.5 -168t-125 -499.5z" />
<glyph unicode="&#x151;" horiz-adv-x="1232" d="M412 1262l188 376h170l-244 -376h-114zM705 1262l225 376h178l-287 -376h-116zM102 532q0 254 140 406q141 154 374 154q231 0 372.5 -154t141.5 -406q0 -254 -141 -407.5t-372.5 -153.5t-373 153.5t-141.5 407.5zM317 532q0 -231 76 -346q78 -117 223.5 -116.5 t223.5 116.5q76 115 75 346q0 229 -75 345q-78 117 -223.5 116.5t-223.5 -116.5q-76 -116 -76 -345z" />
<glyph unicode="&#x152;" horiz-adv-x="2328" d="M119 750q0 350 215 546.5t602 196.5h1212v-332h-123v209h-686v-500h492v187h121v-496h-121v187h-492v-625h703v209h123v-332h-1229q-383 0 -600 199t-217 551zM348 750q0 -313 156 -478q156 -166 446 -166h187v1280h-187q-293 0 -446 -163q-156 -166 -156 -473z" />
<glyph unicode="&#x153;" horiz-adv-x="2023" d="M102 532q0 254 140 406q141 154 374 154q131 0 236 -50q98 -47 172 -145q78 98 172 145q102 49 223 50q242 0 371 -148q127 -145 133 -432h-793v-8q0 -213 80 -323.5t240 -110.5q123 0 199 63q78 66 108 189h148q-43 -174 -162 -262.5t-311 -88.5q-129 0 -233.5 49.5 t-176.5 145.5q-70 -96 -172 -146q-104 -49 -234 -49q-231 0 -372.5 153.5t-141.5 407.5zM317 532q0 -231 76 -346q78 -117 223.5 -116.5t223.5 116.5q76 115 75 346q0 229 -75 345q-78 117 -223.5 116.5t-223.5 -116.5q-76 -116 -76 -345zM1130 618h576q-6 188 -78 281 q-74 94 -209 94q-127 0 -200 -96q-73 -95 -89 -279z" />
<glyph unicode="&#x154;" horiz-adv-x="1540" d="M649 1637l182 264h197l-262 -264h-117zM113 0v106h190v1280h-190v107h757q215 0 336 -104q119 -104 119 -295q0 -152 -86 -242q-86 -89 -258 -111q70 -18 121 -65q53 -49 90 -127l217 -443h182v-106h-352l-233 475q-68 138 -123 178q-57 41 -154 41h-223v-588h211v-106 h-604zM506 801h295q152 0 223.5 71.5t71.5 221t-72 221t-223 71.5h-295v-585z" />
<glyph unicode="&#x155;" horiz-adv-x="978" d="M469 1215l258 376h199l-340 -376h-117zM74 958v105h360v-189q57 115 139 164q88 53 207 54q45 0 94 -7q29 -4 105 -20v-266h-107q-6 82 -43 119q-39 39 -114 38q-135 0 -209 -94q-72 -92 -72 -270v-486h213v-106h-563v106h166v852h-176z" />
<glyph unicode="&#x156;" horiz-adv-x="1540" d="M698 -381q77 43 111 99q35 57 35 135v22h157q-6 -104 -63 -176q-57 -74 -176 -129zM113 0v106h190v1280h-190v107h757q215 0 336 -104q119 -104 119 -295q0 -152 -86 -242q-86 -89 -258 -111q70 -18 121 -65q53 -49 90 -127l217 -443h182v-106h-352l-233 475 q-68 138 -123 178q-57 41 -154 41h-223v-588h211v-106h-604zM506 801h295q152 0 223.5 71.5t71.5 221t-72 221t-223 71.5h-295v-585z" />
<glyph unicode="&#x157;" horiz-adv-x="978" d="M106 -381q77 43 111 99q35 57 35 135v22h157q-6 -104 -63 -176q-57 -74 -176 -129zM74 958v105h360v-189q57 115 139 164q88 53 207 54q45 0 94 -7q29 -4 105 -20v-266h-107q-6 82 -43 119q-39 39 -114 38q-135 0 -209 -94q-72 -92 -72 -270v-486h213v-106h-563v106h166 v852h-176z" />
<glyph unicode="&#x158;" horiz-adv-x="1540" d="M113 0v106h190v1280h-190v107h757q215 0 336 -104q119 -104 119 -295q0 -152 -86 -242q-86 -89 -258 -111q70 -18 121 -65q53 -49 90 -127l217 -443h182v-106h-352l-233 475q-68 138 -123 178q-57 41 -154 41h-223v-588h211v-106h-604zM506 801h295q152 0 223.5 71.5 t71.5 221t-72 221t-223 71.5h-295v-585zM412 1899h116l203 -162l203 162h116l-231 -264h-176z" />
<glyph unicode="&#x159;" horiz-adv-x="978" d="M74 958v105h360v-189q57 115 139 164q88 53 207 54q45 0 94 -7q29 -4 105 -20v-266h-107q-6 82 -43 119q-39 39 -114 38q-135 0 -209 -94q-72 -92 -72 -270v-486h213v-106h-563v106h166v852h-176zM244 1638h116l203 -260l203 260h116l-235 -376h-168z" />
<glyph unicode="&#x15a;" horiz-adv-x="1402" d="M649 1637l182 264h197l-262 -264h-117zM172 1120q0 190 135 295t379 105q98 0 227 -23q115 -20 265 -65v-318h-113q-18 162 -104 229q-88 70 -271 70q-158 0 -241 -65q-82 -63 -82 -187q0 -106 61 -168q57 -57 264 -121l185 -55q207 -63 290 -155q86 -96 86 -254 q0 -215 -139 -326t-414 -111q-123 0 -252 24.5t-258 76.5v340h115q6 -169 98 -252q90 -82 285 -82q178 0 273 72q92 72 92 204q0 108 -56 166q-53 55 -239 113l-197 59q-217 66 -301 162q-88 100 -88 266z" />
<glyph unicode="&#x15b;" horiz-adv-x="1050" d="M469 1215l258 376h199l-340 -376h-117zM115 59v248h106q3 -120 74 -178q72 -59 209 -59q123 0 188.5 47t65.5 135q0 70 -47 113q-45 43 -201 92l-133 45q-133 41 -199 110q-61 63 -61 168q0 147 106.5 229.5t296.5 82.5q80 0 176 -23q102 -25 193 -63v-232h-107 q-2 102 -71 162q-66 57 -185 57q-117 0 -176 -41t-59 -123q0 -70 45 -108.5t180 -81.5l146 -45q150 -45 217 -116.5t67 -182.5q0 -154 -115 -238q-117 -86 -319 -86q-98 0 -201 23q-94 20 -196 65z" />
<glyph unicode="&#x15c;" horiz-adv-x="1402" d="M383 1635l231 264h176l231 -264h-116l-203 161l-203 -161h-116zM172 1120q0 190 135 295t379 105q98 0 227 -23q115 -20 265 -65v-318h-113q-18 162 -104 229q-88 70 -271 70q-158 0 -241 -65q-82 -63 -82 -187q0 -106 61 -168q57 -57 264 -121l185 -55q207 -63 290 -155 q86 -96 86 -254q0 -215 -139 -326t-414 -111q-123 0 -252 24.5t-258 76.5v340h115q6 -169 98 -252q90 -82 285 -82q178 0 273 72q92 72 92 204q0 108 -56 166q-53 55 -239 113l-197 59q-217 66 -301 162q-88 100 -88 266z" />
<glyph unicode="&#x15d;" horiz-adv-x="1050" d="M207 1262l235 376h168l235 -376h-116l-203 260l-203 -260h-116zM115 59v248h106q3 -120 74 -178q72 -59 209 -59q123 0 188.5 47t65.5 135q0 70 -47 113q-45 43 -201 92l-133 45q-133 41 -199 110q-61 63 -61 168q0 147 106.5 229.5t296.5 82.5q80 0 176 -23 q102 -25 193 -63v-232h-107q-2 102 -71 162q-66 57 -185 57q-117 0 -176 -41t-59 -123q0 -70 45 -108.5t180 -81.5l146 -45q150 -45 217 -116.5t67 -182.5q0 -154 -115 -238q-117 -86 -319 -86q-98 0 -201 23q-94 20 -196 65z" />
<glyph unicode="&#x15e;" horiz-adv-x="1402" d="M172 1120q0 190 135 295t379 105q98 0 227 -23q115 -20 265 -65v-318h-113q-18 162 -104 229q-88 70 -271 70q-158 0 -241 -65q-82 -63 -82 -187q0 -106 61 -168q57 -57 264 -121l185 -55q207 -63 290 -155q86 -96 86 -254q0 -215 -139 -326t-414 -111q-123 0 -252 24.5 t-258 76.5v340h115q6 -169 98 -252q90 -82 285 -82q178 0 273 72q92 72 92 204q0 108 -56 166q-53 55 -239 113l-197 59q-217 66 -301 162q-88 100 -88 266zM481 -240q35 -16 80 -26q35 -8 75 -8q57 0 90 26.5t33 71.5q0 27 -22 72q-18 39 -66 104h97q66 -66 96.5 -121 t30.5 -104q0 -82 -64 -125q-68 -45 -174 -45q-43 0 -86 6q-45 6 -90 18v131z" />
<glyph unicode="&#x15f;" horiz-adv-x="1050" d="M115 59v248h106q3 -120 74 -178q72 -59 209 -59q123 0 188.5 47t65.5 135q0 70 -47 113q-45 43 -201 92l-133 45q-133 41 -199 110q-61 63 -61 168q0 147 106.5 229.5t296.5 82.5q80 0 176 -23q102 -25 193 -63v-232h-107q-2 102 -71 162q-66 57 -185 57q-117 0 -176 -41 t-59 -123q0 -70 45 -108.5t180 -81.5l146 -45q150 -45 217 -116.5t67 -182.5q0 -154 -115 -238q-117 -86 -319 -86q-98 0 -201 23q-94 20 -196 65zM305 -240q35 -16 80 -26q35 -8 75 -8q57 0 90 26.5t33 71.5q0 27 -22 72q-18 39 -66 104h97q66 -66 96.5 -121t30.5 -104 q0 -82 -64 -125q-68 -45 -174 -45q-43 0 -86 6q-45 6 -90 18v131z" />
<glyph unicode="&#x160;" horiz-adv-x="1402" d="M172 1120q0 190 135 295t379 105q98 0 227 -23q115 -20 265 -65v-318h-113q-18 162 -104 229q-88 70 -271 70q-158 0 -241 -65q-82 -63 -82 -187q0 -106 61 -168q57 -57 264 -121l185 -55q207 -63 290 -155q86 -96 86 -254q0 -215 -139 -326t-414 -111q-123 0 -252 24.5 t-258 76.5v340h115q6 -169 98 -252q90 -82 285 -82q178 0 273 72q92 72 92 204q0 108 -56 166q-53 55 -239 113l-197 59q-217 66 -301 162q-88 100 -88 266zM383 1899h116l203 -162l203 162h116l-231 -264h-176z" />
<glyph unicode="&#x161;" horiz-adv-x="1050" d="M115 59v248h106q3 -120 74 -178q72 -59 209 -59q123 0 188.5 47t65.5 135q0 70 -47 113q-45 43 -201 92l-133 45q-133 41 -199 110q-61 63 -61 168q0 147 106.5 229.5t296.5 82.5q80 0 176 -23q102 -25 193 -63v-232h-107q-2 102 -71 162q-66 57 -185 57q-117 0 -176 -41 t-59 -123q0 -70 45 -108.5t180 -81.5l146 -45q150 -45 217 -116.5t67 -182.5q0 -154 -115 -238q-117 -86 -319 -86q-98 0 -201 23q-94 20 -196 65zM207 1638h116l203 -260l203 260h116l-235 -376h-168z" />
<glyph unicode="&#x162;" horiz-adv-x="1363" d="M438 -240q35 -16 80 -26q35 -8 75 -8q57 0 90 26.5t33 71.5q0 27 -22 72q-18 39 -66 104h97q66 -66 96.5 -121t30.5 -104q0 -82 -64 -125q-68 -45 -174 -45q-43 0 -86 6q-45 6 -90 18v131zM20 1141v352h1326v-352h-123v233h-439v-1268h191v-106h-584v106h191v1268h-439 v-233h-123z" />
<glyph unicode="&#x163;" horiz-adv-x="821" d="M260 -240q35 -16 80 -26q35 -8 75 -8q57 0 90 26.5t33 71.5q0 27 -22 72q-18 39 -66 104h97q66 -66 96.5 -121t30.5 -104q0 -82 -64 -125q-68 -45 -174 -45q-43 0 -86 6q-45 6 -90 18v131zM59 956v107h162v330h185v-330h346v-107h-346v-675q0 -133 26.5 -172t95.5 -39 q71 0 105 43q31 41 35 137h139q-8 -143 -80 -211q-71 -68 -215 -68q-162 0 -225 70q-66 72 -66 240v675h-162z" />
<glyph unicode="&#x164;" horiz-adv-x="1363" d="M20 1141v352h1326v-352h-123v233h-439v-1268h191v-106h-584v106h191v1268h-439v-233h-123zM359 1899h116l203 -162l203 162h116l-231 -264h-176z" />
<glyph unicode="&#x165;" horiz-adv-x="821" d="M59 956v107h162v330h185v-330h346v-107h-346v-675q0 -133 26.5 -172t95.5 -39q71 0 105 43q31 41 35 137h139q-8 -143 -80 -211q-71 -68 -215 -68q-162 0 -225 70q-66 72 -66 240v675h-162zM532 1237l62 376h198l-143 -376h-117z" />
<glyph unicode="&#x166;" horiz-adv-x="1363" d="M20 1141v352h1326v-352h-123v233h-439v-575h267v-119h-267v-574h191v-106h-584v106h191v574h-267v119h267v575h-439v-233h-123z" />
<glyph unicode="&#x167;" horiz-adv-x="821" d="M59 956v107h162v330h185v-330h346v-107h-346v-233h190v-141h-190v-301q0 -133 26.5 -172t95.5 -39q71 0 105 43q31 41 35 137h139q-8 -143 -80 -211q-71 -68 -215 -68q-160 0 -225.5 72t-65.5 238v301h-135v141h135v233h-162z" />
<glyph unicode="&#x168;" horiz-adv-x="1724" d="M573 1667q4 104 54 160q53 59 135 59q33 0 67.5 -10t85.5 -39l49 -26q27 -14 45 -21q20 -6 39 -6q39 0 64 27q25 29 24 75h97q-4 -106 -54 -161q-51 -57 -145 -58q-70 0 -139 45l-4 2l-49 29q-31 18 -41 21q-20 6 -37 6q-41 0 -66 -29q-27 -29 -28 -74h-97zM96 1386v107 h584v-107h-191v-772q0 -286 93 -399q92 -113 323 -113q229 0 322 113q94 117 94 399v772h-191v107h504v-107h-190v-792q0 -342 -131 -481q-133 -141 -445 -142q-315 0 -448 142q-133 143 -133 481v792h-191z" />
<glyph unicode="&#x169;" horiz-adv-x="1318" d="M254 1309q4 137 54 209q51 74 141 73q41 0 69 -14q41 -20 70 -47l57 -55q23 -23 39.5 -31t38.5 -8q43 0 68 41q23 39 26 114h97q-4 -137 -54 -209q-51 -74 -141 -73q-41 0 -69 14q-41 20 -70 47l-57 55q-23 23 -43.5 31t-34.5 8q-41 0 -66 -39q-23 -37 -28 -116h-97z M55 956v107h351v-619q0 -195 47 -266.5t170 -71.5q127 0 194.5 94.5t67.5 272.5v483h-160v107h344v-957h174v-106h-358v188q-51 -106 -131 -161.5t-189 -55.5q-178 0 -260 101q-84 102 -84 315v569h-166z" />
<glyph unicode="&#x16a;" horiz-adv-x="1724" d="M565 1693v148h598v-148h-598zM96 1386v107h584v-107h-191v-772q0 -286 93 -399q92 -113 323 -113q229 0 322 113q94 117 94 399v772h-191v107h504v-107h-190v-792q0 -342 -131 -481q-133 -141 -445 -142q-315 0 -448 142q-133 143 -133 481v792h-191z" />
<glyph unicode="&#x16b;" horiz-adv-x="1318" d="M334 1378v148h598v-148h-598zM55 956v107h351v-619q0 -195 47 -266.5t170 -71.5q127 0 194.5 94.5t67.5 272.5v483h-160v107h344v-957h174v-106h-358v188q-51 -106 -131 -161.5t-189 -55.5q-178 0 -260 101q-84 102 -84 315v569h-166z" />
<glyph unicode="&#x16c;" horiz-adv-x="1724" d="M592 1901h94q18 -53 72 -82q51 -27 145 -27t145 27q53 29 72 82h94q-23 -121 -100 -180q-80 -61 -211 -61.5t-211 61.5q-77 59 -100 180zM96 1386v107h584v-107h-191v-772q0 -286 93 -399q92 -113 323 -113q229 0 322 113q94 117 94 399v772h-191v107h504v-107h-190v-792 q0 -342 -131 -481q-133 -141 -445 -142q-315 0 -448 142q-133 143 -133 481v792h-191z" />
<glyph unicode="&#x16d;" horiz-adv-x="1318" d="M271 1608h96q12 -76 65 -115q49 -35 151.5 -35t152.5 35q53 39 65 115h96q-8 -143 -90 -215t-223 -72t-223 72t-90 215zM55 956v107h351v-619q0 -195 47 -266.5t170 -71.5q127 0 194.5 94.5t67.5 272.5v483h-160v107h344v-957h174v-106h-358v188q-51 -106 -131 -161.5 t-189 -55.5q-178 0 -260 101q-84 102 -84 315v569h-166z" />
<glyph unicode="&#x16e;" horiz-adv-x="1724" d="M96 1386v107h584v-107h-191v-772q0 -286 93 -399q92 -113 323 -113q229 0 322 113q94 117 94 399v772h-191v107h504v-107h-190v-792q0 -342 -131 -481q-133 -141 -445 -142q-315 0 -448 142q-133 143 -133 481v792h-191zM603 1878q0 115 79.5 194.5t194.5 79.5t194.5 -80 t79.5 -194.5t-79.5 -194.5t-194.5 -80t-194.5 80t-79.5 195zM725 1877.5q0 -65.5 43 -108.5t109 -43t109 43t43 109q0 63 -43 106q-45 45 -109 45q-66 0 -109 -43t-43 -108.5z" />
<glyph unicode="&#x16f;" horiz-adv-x="1318" d="M55 956v107h351v-619q0 -195 47 -266.5t170 -71.5q127 0 194.5 94.5t67.5 272.5v483h-160v107h344v-957h174v-106h-358v188q-51 -106 -131 -161.5t-189 -55.5q-178 0 -260 101q-84 102 -84 315v569h-166zM324 1504q0 115 79.5 194.5t194.5 79.5t194.5 -80t79.5 -194.5 t-79.5 -194.5t-194.5 -80t-194.5 80t-79.5 195zM446 1503.5q0 -65.5 43 -108.5t109 -43t109 43t43 109q0 63 -43 106q-45 45 -109 45q-66 0 -109 -43t-43 -108.5z" />
<glyph unicode="&#x170;" horiz-adv-x="1724" d="M635 1635l182 264h197l-263 -264h-116zM952 1635l182 264h197l-262 -264h-117zM96 1386v107h584v-107h-191v-772q0 -286 93 -399q92 -113 323 -113q229 0 322 113q94 117 94 399v772h-191v107h504v-107h-190v-792q0 -342 -131 -481q-133 -141 -445 -142q-315 0 -448 142 q-133 143 -133 481v792h-191z" />
<glyph unicode="&#x171;" horiz-adv-x="1318" d="M359 1262l188 376h170l-244 -376h-114zM652 1262l225 376h178l-287 -376h-116zM55 956v107h351v-619q0 -195 47 -266.5t170 -71.5q127 0 194.5 94.5t67.5 272.5v483h-160v107h344v-957h174v-106h-358v188q-51 -106 -131 -161.5t-189 -55.5q-178 0 -260 101 q-84 102 -84 315v569h-166z" />
<glyph unicode="&#x172;" horiz-adv-x="1724" d="M96 1386v107h584v-107h-191v-772q0 -286 93 -399q92 -113 323 -113q229 0 322 113q94 117 94 399v772h-191v107h504v-107h-190v-792q0 -342 -131 -481q-133 -141 -445 -142q-315 0 -448 142q-133 143 -133 481v792h-191zM692 -239q0 51 30 102q33 55 99 121h94v-2 q-88 -125 -88 -170q0 -47 33 -74q35 -29 90 -28q28 0 55 6q18 4 60 20v-127q-51 -12 -70 -14q-45 -4 -66 -4q-113 0 -176 45q-61 43 -61 125z" />
<glyph unicode="&#x173;" horiz-adv-x="1318" d="M55 956v107h351v-619q0 -195 47 -266.5t170 -71.5q127 0 194.5 94.5t67.5 272.5v483h-160v107h344v-957h174v-106h-358v188q-51 -106 -131 -161.5t-189 -55.5q-178 0 -260 101q-84 102 -84 315v569h-166zM948 -223q0 51 30 102q33 55 99 121h94v-2q-88 -125 -88 -170 q0 -47 33 -74q35 -29 90 -28q28 0 55 6q18 4 60 20v-127q-51 -12 -70 -14q-45 -4 -66 -4q-113 0 -176 45q-61 43 -61 125z" />
<glyph unicode="&#x174;" horiz-adv-x="2103" d="M736 1643l231 264h176l231 -264h-116l-203 161l-203 -161h-116zM10 1386v107h545v-107h-186l311 -1103l340 1210h162l346 -1223l313 1116h-172v107h430v-107h-147l-391 -1386h-164l-342 1214l-342 -1214h-164l-391 1386h-148z" />
<glyph unicode="&#x175;" horiz-adv-x="1751" d="M562 1262l235 376h168l235 -376h-116l-203 260l-203 -260h-116zM33 956v107h481v-107h-172l238 -723l274 830h129l272 -830l240 723h-154v107h385v-107h-118l-316 -956h-153l-262 795l-263 -795h-147l-315 956h-119z" />
<glyph unicode="&#x176;" horiz-adv-x="1351" d="M355 1643l231 264h176l231 -264h-116l-203 161l-203 -161h-116zM-23 1386v107h555v-107h-174l373 -604l373 604h-168v107h434v-107h-141l-449 -724v-556h191v-106h-584v106h191v537l-461 743h-140z" />
<glyph unicode="&#x177;" horiz-adv-x="1155" d="M252 1262l235 376h168l235 -376h-116l-203 260l-203 -260h-116zM-6 956v107h489v-107h-170l299 -731l299 731h-159v107h399v-107h-119l-487 -1196q-49 -125 -111 -170q-59 -45 -172 -45q-53 0 -96 9q-72 12 -100 22v203h94q6 -66 35 -98q27 -29 88 -29q53 0 88 31 q35 33 71 122l70 177l-397 974h-121z" />
<glyph unicode="&#x178;" horiz-adv-x="1351" d="M-23 1386v107h555v-107h-174l373 -604l373 604h-168v107h434v-107h-141l-449 -724v-556h191v-106h-584v106h191v537l-461 743h-140zM365 1768q0 47 34.5 81.5t82 34.5t82 -34.5t34.5 -81.5q0 -51 -32.5 -84t-84.5 -33q-49 0 -81 33q-35 35 -35 84zM754 1768 q0 47 34.5 81.5t82 34.5t82 -34.5t34.5 -81.5q0 -49 -35 -84q-33 -33 -81 -33q-51 0 -84 33t-33 84z" />
<glyph unicode="&#x179;" horiz-adv-x="1421" d="M649 1637l182 264h197l-262 -264h-117zM92 0v72l930 1298h-772v-223h-123v346h1180v-72l-930 -1298h844v209h122v-332h-1251z" />
<glyph unicode="&#x17a;" horiz-adv-x="1077" d="M469 1215l258 376h199l-340 -376h-117zM82 0v86l666 870h-527v-184h-106v291h870v-86l-666 -871h578v193h107v-299h-922z" />
<glyph unicode="&#x17b;" horiz-adv-x="1421" d="M606 1788q0 47 35 81.5t82 34.5t82 -34.5t35 -81.5q0 -51 -33 -84t-84 -33t-84 33t-33 84zM92 0v72l930 1298h-772v-223h-123v346h1180v-72l-930 -1298h844v209h122v-332h-1251z" />
<glyph unicode="&#x17c;" horiz-adv-x="1077" d="M454 1386q0 47 35 82t82 35t82 -35t35 -82q0 -51 -33 -84t-84 -33t-84 33t-33 84zM82 0v86l666 870h-527v-184h-106v291h870v-86l-666 -871h578v193h107v-299h-922z" />
<glyph unicode="&#x17d;" horiz-adv-x="1421" d="M92 0v72l930 1298h-772v-223h-123v346h1180v-72l-930 -1298h844v209h122v-332h-1251zM394 1899h116l203 -162l203 162h116l-231 -264h-176z" />
<glyph unicode="&#x17e;" horiz-adv-x="1077" d="M82 0v86l666 870h-527v-184h-106v291h870v-86l-666 -871h578v193h107v-299h-922zM222 1638h116l203 -260l203 260h116l-235 -376h-168z" />
<glyph unicode="&#x17f;" horiz-adv-x="757" d="M74 0v106h176v850h-176v107h176v133q0 176 92 268t272 92q66 0 134 -12q70 -12 133 -37v-202h-97q0 76 -43 114q-41 39 -120 39q-102 0 -146 -55q-41 -55 -41 -203v-1094h236v-106h-596z" />
<glyph unicode="&#x180;" horiz-adv-x="1310" d="M59 0v106h177v1104h-177v121h177v119h-177v106h361v-225h315v-121h-315v-313q55 102 137 147q84 47 207 48q197 0 319 -154q125 -156 125 -406q0 -246 -125 -405q-123 -156 -319 -156q-123 0 -207 47q-82 45 -137 148v-166h-361zM420 479q0 -193 73.5 -293t213 -100 t213 112.5t73.5 334t-73 331.5q-76 113 -213 113q-139 0 -213 -100q-74 -102 -74 -293v-105z" />
<glyph unicode="&#x181;" horiz-adv-x="1503" d="M-193 1020v344q100 76 283 113q100 16 213 16h547q223 0 340 -92q115 -92 115 -277q0 -135 -78 -212.5t-234 -96.5q193 -25 289 -121q98 -98 98 -262q0 -223 -141 -327.5t-436 -104.5h-690v106h190v1280q-227 0 -295 -90q-72 -94 -71 -276h-130zM506 106h299 q178 0 262 78t84 248q0 166 -84 246q-84 78 -262 78h-299v-650zM506 862h254q164 0 239 64q76 66 76 198q0 154 -76 199q-111 63 -239 63h-254v-524z" />
<glyph unicode="&#x182;" horiz-adv-x="1503" d="M113 0v106h190v1280h-190v107h1202v-334h-123v211h-686v-508h254q381 0 500 -143q121 -145 120 -287q0 -223 -141 -327.5t-436 -104.5h-690zM506 106h299q178 0 262 78t84 248t-82 246q-84 78 -264 78h-299v-650z" />
<glyph unicode="&#x183;" horiz-adv-x="1310" d="M59 0v106h177v1344h-177v106h953v-268h-105v146h-487v-537q55 102 137 147q80 47 207 48q197 0 319 -154q125 -156 125 -406q0 -246 -125 -405q-125 -156 -319 -156q-123 0 -207 47q-84 49 -137 148v-166h-361zM420 479q0 -193 73.5 -293t213.5 -100q143 0 213 113 q74 113 73.5 334t-73.5 331q-72 113 -213 113q-139 0 -213 -100q-74 -102 -74 -293v-105z" />
<glyph unicode="&#x184;" horiz-adv-x="1503" d="M113 0v106h190v885h-190v107l393 395v-631h254q381 0 522 -168q98 -117 98 -262q0 -223 -141 -327.5t-436 -104.5h-690zM506 106h299q178 0 262 78t84 248t-82 246q-84 78 -264 78h-299v-650z" />
<glyph unicode="&#x185;" horiz-adv-x="1310" d="M59 0v106h177v1018h-177v127l361 305v-659q55 102 137 147q84 47 207 48q197 0 319 -154q125 -156 125 -406q0 -246 -125 -405q-123 -156 -319 -156q-123 0 -207 47q-82 45 -137 148v-166h-361zM420 479q0 -193 73.5 -293t213 -100t213 112.5t73.5 334t-73 331.5 q-76 113 -213 113q-139 0 -213 -100q-74 -102 -74 -293v-105z" />
<glyph unicode="&#x186;" horiz-adv-x="1566" d="M115 1096q66 211 221.5 317.5t392.5 106.5q147 0 272 -50q121 -47 222 -147q109 -109 166 -254q55 -141 55 -324q0 -348 -201 -561t-530 -213q-123 0 -260 31q-119 27 -297 98v344h112q37 -186 149.5 -276t311.5 -90q240 0 363 170q123 169 122.5 497.5t-122.5 497.5 q-123 170 -363 170q-168 0 -274 -80q-106 -78 -156 -237h-184z" />
<glyph unicode="&#x187;" horiz-adv-x="1566" d="M115 745q0 348 200 562q199 213 531 213q121 0 260 -31q92 -20 209 -64q0 86 80 146q72 59 188 59q70 0 139 -16q78 -23 127 -49v-219h-96q0 95 -49 141q-43 45 -125 45q-90 0 -133 -61.5t-43 -190.5v-233h-113q-37 187 -147 276q-113 90 -314 90q-240 0 -362 -170 q-123 -169 -123 -497.5t123 -497.5q123 -170 362 -170q166 0 275 80q106 78 156 237h184q-66 -211 -221 -317q-152 -106 -394 -107q-145 0 -272 49q-121 47 -221 148q-109 109 -166 254q-55 143 -55 323z" />
<glyph unicode="&#x188;" horiz-adv-x="1146" d="M102 532.5q0 253.5 142 407.5q141 152 372 152q100 0 201 -25q66 -16 98 -29q18 147 101 217q63 53 182 54q68 0 137 -17q76 -20 129 -51v-217h-96q0 94 -47 139q-43 45 -127 45q-92 0 -133 -59q-43 -61 -43 -193v-231h-107q-20 139 -92 205q-70 63 -201 63 q-147 0 -225 -114q-76 -115 -76 -347q0 -229 74 -346q77 -117 227 -116q120 0 191 61q72 61 96 188h148q-41 -172 -149.5 -260t-287.5 -88q-231 0 -372.5 154t-141.5 407.5z" />
<glyph unicode="&#x189;" horiz-adv-x="1652" d="M113 719v125h200v542h-190v107h594q387 0 602 -196.5t215 -549t-215 -548.5q-217 -199 -602 -199h-594v106h190v613h-200zM514 106h188q289 0 447 166q156 164 156 476q0 313 -156 475q-158 164 -447 163h-188v-542h336v-125h-336v-613z" />
<glyph unicode="&#x18a;" horiz-adv-x="1640" d="M-193 1020v344q137 102 283 113q84 16 213 16h404q387 0 602 -196.5t215 -549t-215 -548.5q-217 -199 -602 -199h-594v106h190v1280q-227 0 -295 -90q-72 -94 -71 -276h-130zM506 106h186q293 0 447 166q156 164 155 476q0 309 -155 475q-154 164 -447 163h-186v-1280z " />
<glyph unicode="&#x18b;" horiz-adv-x="1503" d="M113 432q0 145 98 262q141 168 522 168h254v508h-686v-209h-123v332h1202v-107h-190v-1280h190v-106h-690q-295 0 -436 104.5t-141 327.5zM342 432q0 -170 84 -248t262 -78h299v650h-299q-180 0 -264 -78q-82 -76 -82 -246z" />
<glyph unicode="&#x18c;" horiz-adv-x="1310" d="M59 532q0 252 123 406t322 154q127 0 207 -48q82 -45 137 -147v537h-488v-146h-104v268h952v-106h-178v-1344h178v-106h-360v166q-53 -98 -137 -148q-84 -47 -207 -47q-197 0 -322 156q-123 156 -123 405zM274 532.5q0 -219.5 72 -333.5q74 -113 213 -113 q141 0 215 100.5t74 292.5v105q0 190 -74 293q-74 100 -215 100q-137 0 -213 -113q-72 -112 -72 -331.5z" />
<glyph unicode="&#x18d;" horiz-adv-x="1232" d="M102 530q0 256 140 408q141 154 374 154q231 0 372.5 -154t141.5 -408q0 -252 -141 -405q-68 -70 -123 -98q65 -25 99 -74q39 -59 39 -193q0 -129 -98.5 -196.5t-295.5 -67.5q-47 0 -157 17q-125 23 -215 47v196l106 27q12 -88 84 -135q70 -45 168 -45q94 0 162 49 q74 51 69 117q0 96 -36 127q-80 76 -175 75q-233 0 -374 154q-140 151 -140 405zM317 530q0 -227 74 -344q76 -117 225 -116q145 0 224 116q76 121 75 344q0 231 -75 347q-78 117 -224 116q-150 0 -225 -116q-74 -118 -74 -347z" />
<glyph unicode="&#x18e;" horiz-adv-x="1492" d="M113 0v332h123v-209h702v625h-489v-187h-123v496h123v-187h489v500h-686v-209h-123v332h1202v-107h-190v-1280h190v-106h-1218z" />
<glyph unicode="&#x18f;" horiz-adv-x="1677" d="M115 745v70h1218q0 279 -123 428q-127 170 -358 170q-180 0 -287 -80q-106 -78 -155 -237h-185q63 205 221 315q158 109 394 109q326 0 526 -213q199 -211 199 -562q0 -180 -56 -323q-57 -145 -166 -254q-98 -98 -225 -147.5t-278.5 -49.5t-280.5 49q-125 49 -223 148 q-109 109 -166 254q-55 141 -55 323zM344 694q0 -289 125 -448q125 -168 370.5 -168t370.5 168q123 157 123 448h-989z" />
<glyph unicode="&#x190;" horiz-adv-x="1275" d="M125 403q0 170 102.5 279t284.5 133q-152 31 -242 123q-84 86 -84 225q0 168 123 262q121 94 391 95q205 0 447 -90v-263h-113q-12 126 -86 191q-72 63 -246 63q-172 0 -241 -69q-72 -72 -72 -207q0 -141 86 -211q88 -72 305 -72h49v-106h-94q-219 0 -309 -90.5 t-90 -253.5q0 -166 88 -254t225 -88q133 0 232 69q94 68 100 125h184q-35 -100 -159 -198q-119 -94 -361 -95q-238 0 -379 110.5t-141 321.5z" />
<glyph unicode="&#x191;" horiz-adv-x="1419" d="M-203 -123h115q0 -197 178 -196q119 0 166 75q47 74 47 293v1337h-190v107h1222v-332h-123v209h-706v-500h510v187h123v-496h-123v187h-510v-707q0 -313 -166 -412q-92 -55 -252 -55q-143 0 -291 68v235z" />
<glyph unicode="&#x192;" horiz-adv-x="757" d="M-197 -127h97q0 -16 4 -41q8 -43 39 -74q41 -39 120 -39q102 0 146 58q41 53 41 205v974h-176v107h176v133q0 176 92 268t272 92q66 0 134 -12q70 -12 133 -37v-202h-97q0 16 -4 41q-8 43 -39 73q-41 39 -120 39q-102 0 -146 -55q-41 -55 -41 -203v-137h297v-107h-297 v-974q0 -178 -92 -271q-90 -90 -272 -90q-66 0 -133 12q-70 12 -134 37v203z" />
<glyph unicode="&#x193;" horiz-adv-x="1634" d="M115 745q0 350 204 566q203 209 549 209q209 0 461 -84q25 77 86 135q61 59 189 59q141 0 266 -65v-219h-96q0 145 -111 176q-31 10 -64 10q-123 0 -159 -119q-16 -59 -17 -133v-233h-112v6q-51 266 -269 333q-86 27 -186 27q-258 0 -385 -166q-127 -168 -127 -502 q0 -530 332 -641q80 -27 184 -26q221 0 412 112v385h-281v107h484v-557q-266 -154 -615 -154q-340 0 -542.5 211t-202.5 563z" />
<glyph unicode="&#x194;" horiz-adv-x="1456" d="M18 1386v107h592v-107h-176l320 -481l329 481h-192v107h489v-107h-168l-395 -575q555 -684 371 -854q-158 -145 -508 -145q-354 0 -416 200q-55 180 350 721l-436 653h-160zM391 55q0 -137 289 -137q272 0 272 137q0 215 -272 582q-289 -379 -289 -582z" />
<glyph unicode="&#x195;" horiz-adv-x="1908" d="M74 1450v106h360v-682q51 106 131 162q83 55 191 56q180 0 260 -101q82 -102 82 -315v-326q0 -129 43 -190.5t135 -61.5q123 0 235 131q92 106 93 297q0 152 -62 256q-63 104 -178 150v57h111q156 -66 243 -192q90 -131 90 -287q0 -113 -43 -207q-43 -98 -123 -172 q-72 -70 -165 -102q-90 -35 -201 -35q-168 0 -270 100q-92 82 -93 256v268q0 195 -47 267q-49 72 -170 71q-125 0 -194 -94q-68 -92 -68 -270v-486h160v-106h-510v106h166v1344h-176z" />
<glyph unicode="&#x196;" horiz-adv-x="808" d="M113 1386v107h583v-107h-190v-1036q0 -129 43 -190.5t133 -61.5h14v-98h-14q-203 0 -262 53q-117 102 -117 297v1036h-190z" />
<glyph unicode="&#x197;" horiz-adv-x="808" d="M39 629v170h264v587h-190v107h583v-107h-190v-587h264v-170h-264v-523h190v-106h-583v106h190v523h-264z" />
<glyph unicode="&#x198;" horiz-adv-x="1529" d="M113 0v106h190v1280h-190v107h583v-107h-190v-565l643 565q150 131 272 132q70 0 133 -19q68 -16 127 -49v-217h-94q0 94 -49 139q-37 37 -98 43q-90 0 -162 -59l-604 -533l717 -717h170v-106h-347l-708 709v-603h190v-106h-583z" />
<glyph unicode="&#x199;" horiz-adv-x="1239" d="M70 0v106h166v1098q0 163 98 258q96 94 268 94q72 0 137 -16q78 -23 127 -49v-219h-94q0 92 -49 139q-43 45 -125 45q-92 0 -133 -59q-43 -57 -43 -193v-661l446 413h-153v107h481v-107h-182l-316 -292l404 -558h153v-106h-524v106h152l-318 437l-145 -135v-302h166v-106 h-516z" />
<glyph unicode="&#x19a;" horiz-adv-x="653" d="M59 0v106h177v359h-177v104h177v881h-177v106h361v-987h174v-104h-174v-359h174v-106h-535z" />
<glyph unicode="&#x19b;" horiz-adv-x="1296" d="M84 0v106h121l413 977l-38 101l-267 -189l-61 86l289 203l-9 23q-37 90 -71 123q-35 31 -88 30q-59 0 -88 -28q-29 -33 -35 -99h-94v203q29 10 100 23q43 8 96 8q113 0 172 -45q61 -45 111 -170l147 98l60 -86l-166 -115l446 -1143h119v-106h-399v106h159l-282 736 l-316 -736h170v-106h-489z" />
<glyph unicode="&#x19c;" horiz-adv-x="1941" d="M74 1389v106h510v-106h-160v-981q0 -166 47 -232q51 -70 160 -70q121 0 186 95q66 96 66 270v918h-160v106h504v-106h-160v-988q0 -162 47 -227q49 -68 160 -68q123 0 188 95q63 94 64 270v918h-160v106h510v-106h-166v-1285h176v-104h-360v188q-53 -109 -129 -161 q-80 -55 -180 -56q-123 0 -207 61.5t-111 174.5q-53 -119 -135 -176q-84 -59 -193 -60q-168 0 -249.5 102.5t-81.5 313.5v1002h-166z" />
<glyph unicode="&#x19d;" horiz-adv-x="1792" d="M-205 -123h115q0 -96 47 -147q43 -49 131 -49q119 0 166 75.5t47 292.5v1337h-201v107h383l895 -1178v1071h-200v107h524v-107h-201v-1415h-121l-954 1258v-1188q0 -244 -100 -356q-98 -111 -291 -111q-27 0 -92 16q-78 20 -148 52v235z" />
<glyph unicode="&#x19e;" horiz-adv-x="1318" d="M74 956v107h360v-189q53 109 133 162q84 55 189 56q178 0 260 -100.5t82 -315.5v-995h164v-107h-508v107h159v937q0 193 -49 266.5t-168 73.5q-125 0 -194 -94q-68 -92 -68 -272v-486h160v-106h-510v106h166v850h-176z" />
<glyph unicode="&#x19f;" horiz-adv-x="1677" d="M115 745.5q0 182.5 55 323.5q57 145 166 254q98 98 223 147.5t281 49.5q326 0 526 -213q199 -211 199 -562q0 -180 -56 -323q-57 -145 -166 -254q-98 -98 -225 -147.5t-278 -49.5q-150 0 -279 49q-125 47 -225 148q-109 109 -166 254q-55 141 -55 323.5zM344 694 q8 -289 125 -448q125 -168 370.5 -168t370.5 168q114 157 123 448h-989zM346 815h987q-12 276 -123 428q-127 170 -370.5 170t-370.5 -170q-111 -152 -123 -428z" />
<glyph unicode="&#x1a0;" horiz-adv-x="1677" d="M111 745q0 182 55 324q57 145 166 254q98 98 223 147.5t281 49.5q326 0 526 -213q199 -211 199 -562q0 -180 -55.5 -323t-166.5 -254q-98 -98 -225 -147.5t-278 -49.5q-150 0 -279 49q-125 47 -225 148q-109 109 -166 254q-55 141 -55 323zM340 745.5 q0 -331.5 125 -499.5t370.5 -168t370.5 168t125 499.5t-125 499.5t-370.5 168t-370.5 -168t-125 -499.5zM1223 1315v92h2q123 -86 170 -86t73.5 33t26.5 90q0 28 -6 55q-8 41 -18 60l127 -3q6 -25 14 -69q4 -23 4 -66q0 -115 -45 -174q-45 -61 -125 -61q-53 0 -102 28 q-41 25 -121 101z" />
<glyph unicode="&#x1a1;" horiz-adv-x="1232" d="M100 532q0 254 140 406q141 154 374 154q231 0 372.5 -154t141.5 -406q0 -254 -141 -407.5t-372.5 -153.5t-373 153.5t-141.5 407.5zM315 532q0 -231 76 -346q78 -117 223.5 -116.5t223.5 116.5q76 115 75 346q0 229 -75 345q-78 117 -223.5 116.5t-223.5 -116.5 q-76 -116 -76 -345zM930 846v92h2q123 -86 170 -86t73.5 33t26.5 90q0 28 -6 55q-8 41 -18 60l127 -3q6 -25 14 -69q4 -23 4 -66q0 -115 -45 -174q-45 -61 -125 -61q-53 0 -102 28q-41 25 -121 101z" />
<glyph unicode="&#x1a2;" horiz-adv-x="2127" d="M115 745.5q0 182.5 55 323.5q57 145 166 254q98 98 223 147.5t281 49.5q203 0 358 -84q68 27 123 41q66 16 143 16q221 0 319.5 -110.5t98.5 -356.5v-1239h191v-109h-625v109h231v1231q0 217 -47 292.5t-166 75.5q-90 0 -133 -49l16.5 -16t16.5 -14q199 -211 199 -562 q0 -180 -56 -323q-57 -145 -166 -254q-98 -98 -225 -147.5t-278 -49.5q-150 0 -279 49q-125 47 -225 148q-109 109 -166 254q-55 141 -55 323.5zM344 745.5q0 -331.5 125 -499.5t370.5 -168t370.5 168t125 499.5t-125 499.5t-370.5 168t-370.5 -168t-125 -499.5z" />
<glyph unicode="&#x1a3;" horiz-adv-x="1652" d="M102 532.5q0 253.5 140 405.5q141 154 374 154q143 0 252 -60q0 2 45 15q57 16 138 16q168 0 268 -94q98 -92 98 -256v-1032h176v-107h-534v107h174v1032q0 129 -43 190.5t-135 61.5q-61 0 -76 -15l10 -12q141 -154 141 -406q0 -254 -141 -407.5t-372.5 -153.5t-373 154 t-141.5 407.5zM317 532q0 -231 76 -346q78 -117 223.5 -116.5t223.5 116.5q76 115 75 346q0 229 -75 345q-78 117 -223.5 116.5t-223.5 -116.5q-76 -116 -76 -345z" />
<glyph unicode="&#x1a4;" horiz-adv-x="1376" d="M-193 1020v344q96 72 283 113q100 16 213 16h516q223 0 354.5 -112.5t131.5 -307.5q0 -193 -131 -305q-133 -115 -355 -115h-313v-547h231v-106h-624v106h190v1280q-227 0 -295 -90q-72 -94 -71 -276h-130zM506 760h264q151 0 227 80q78 82 78 233.5t-78 233.5 q-77 80 -227 79h-264v-626z" />
<glyph unicode="&#x1a5;" horiz-adv-x="1310" d="M59 -319h177v1433q0 168 96 258q100 94 268 94q74 0 137 -16q70 -16 129 -49v-219h-96q0 96 -47 141q-41 43 -125 43q-92 0 -135 -61.5t-43 -190.5v-217q55 102 137 147q80 47 207 48q197 0 319 -154q125 -156 125 -406q0 -246 -125 -405q-125 -156 -319 -156 q-123 0 -207 47q-84 49 -137 148v-485h174v-107h-535v107zM420 479q0 -193 73.5 -293t213.5 -100q143 0 213 113q74 113 73.5 334t-73.5 331q-72 113 -213 113q-139 0 -213 -100q-74 -102 -74 -293v-105z" />
<glyph unicode="&#x1a6;" horiz-adv-x="1540" d="M113 0v106h190v1280h-190v107h604v-107h-211v-219h364q219 0 336 -102q119 -104 119 -297q0 -154 -86 -242q-86 -89 -258 -110q70 -18 121 -64q51 -47 90 -129l217 -442h182v-107h-352l-233 476q-68 138 -123 178q-57 41 -154 41h-223v-263h211v-106h-604zM506 475h295 q152 0 223.5 71.5t71.5 221.5t-72 221.5t-223 71.5h-295v-586z" />
<glyph unicode="&#x1a7;" horiz-adv-x="1402" d="M172 408q0 158 86 254q84 92 291 155l184 55q205 63 262 121q63 63 64 168q0 123 -82 187q-84 66 -242 65q-178 0 -268 -72q-88 -70 -107 -227h-112v318q150 45 264 65q129 23 227 23q244 0 379 -104.5t135 -295.5q0 -166 -88 -266q-88 -98 -301 -162l-196 -59 q-182 -55 -240 -113q-55 -58 -55 -166q0 -137 94 -207q90 -70 270 -69q190 0 285 82q92 80 98 252h115v-340q-127 -51 -258 -76q-129 -25 -252 -25q-274 0 -413.5 111t-139.5 326z" />
<glyph unicode="&#x1a8;" horiz-adv-x="1050" d="M115 295q0 111 67 180q66 72 217 119l146 45q131 41 180 84q45 39 45 106q0 84 -59 123q-59 41 -176 41q-119 0 -185 -57q-70 -59 -71 -162h-107v232q90 39 193 63q96 23 176 23q190 0 296.5 -82t106.5 -230q0 -104 -61 -168q-66 -70 -199 -110l-133 -45 q-150 -47 -201 -92q-47 -43 -47 -113q0 -88 65.5 -135t188.5 -47q137 0 209 59q71 58 74 178h106v-248q-102 -45 -196 -65q-102 -23 -201 -23q-203 0 -320 86q-114 86 -114 238z" />
<glyph unicode="&#x1a9;" horiz-adv-x="1447" d="M84 0l664 748l-664 745h1227v-332h-123v209h-696l469 -557l-553 -625h780v144h123v-332h-1227z" />
<glyph unicode="&#x1aa;" horiz-adv-x="663" d="M-197 1360q2 199 379 199q158 0 262 -95q68 -66 88 -131q31 61 31 156v63h101v-63q-2 -219 -125 -305q-88 -535 -197 -1288q-16 -111 43 -191q43 -61 133 -61q82 0 125 45q43 43 49 141h94v-219q-61 -33 -127 -49q-70 -16 -137 -17q-170 0 -268 93q-121 115 -98 258 q-6 12 188 1232h-8q-539 1 -533 232zM20 1352q0 -123 312 -123q4 0 14 1t14 1q8 92 -45 166q-46 61 -135 61q-160 0 -160 -106z" />
<glyph unicode="&#x1ab;" horiz-adv-x="821" d="M59 956v107h162v330h185v-330h346v-107h-346v-675q0 -133 26.5 -172t95.5 -39q71 0 105 43q31 41 35 137h139v-354q0 -166 -98.5 -258.5t-268.5 -92.5q-68 0 -137 17q-66 16 -127 49v219h94q6 -95 49 -141q43 -45 125 -45q92 0 135.5 61.5t43.5 190.5v88 q-49 -12 -111 -13q-162 0 -225 70q-66 72 -66 240v675h-162z" />
<glyph unicode="&#x1ac;" horiz-adv-x="1363" d="M86 1008v356q100 76 283 113q106 16 213 16h764v-352h-123v233h-439v-1268h191v-106h-584v106h191v1268q-227 0 -295 -90q-72 -94 -72 -276h-129z" />
<glyph unicode="&#x1ad;" horiz-adv-x="821" d="M59 956v107h162v141q0 163 98 258q96 94 269 94q72 0 137 -16q78 -23 127 -49v-219h-94q0 92 -51 139q-43 45 -123 45q-94 0 -135 -59q-43 -57 -43 -193v-141h346v-107h-346v-675q0 -133 26.5 -172t95.5 -39q71 0 105 43q31 41 35 137h139q0 -143 -80 -211 q-71 -68 -215 -68q-160 0 -225.5 72t-65.5 238v675h-162z" />
<glyph unicode="&#x1ae;" horiz-adv-x="1363" d="M20 1141v352h1326v-352h-123v233h-439v-1325q0 -215 47 -293q47 -76 166 -75q88 0 131 49q45 51 48 147h114v-235q-72 -33 -145 -52q-66 -16 -146 -16q-221 0 -319 110.5t-98 356.5v1333h-439v-233h-123z" />
<glyph unicode="&#x1af;" horiz-adv-x="1724" d="M90 1386v107h584v-107h-191v-772q0 -286 93 -399q92 -113 323 -113q229 0 322 113q94 117 94 399v772h-191v107h504v-107h-190v-792q0 -342 -131 -481q-133 -141 -445 -142q-315 0 -448 142q-133 143 -133 481v792h-191zM1415 1315v92h2q123 -86 170 -86t73.5 33t26.5 90 q0 28 -6 55q-8 41 -18 60l127 -3q6 -25 14 -69q4 -23 4 -66q0 -115 -45 -174q-45 -61 -125 -61q-53 0 -102 28q-41 25 -121 101z" />
<glyph unicode="&#x1b0;" horiz-adv-x="1318" d="M45 956v107h351v-619q0 -195 47 -266.5t170 -71.5q127 0 194.5 94.5t67.5 272.5v483h-160v107h344v-957h174v-106h-358v188q-51 -106 -131 -161.5t-189 -55.5q-178 0 -260 101q-84 102 -84 315v569h-166zM1016 846v92h2q123 -86 170 -86t73.5 33t26.5 90q0 28 -6 55 q-8 41 -18 60l127 -3q6 -25 14 -69q4 -23 4 -66q0 -115 -45 -174q-45 -61 -125 -61q-53 0 -102 28q-41 25 -121 101z" />
<glyph unicode="&#x1b1;" horiz-adv-x="1697" d="M125 702q0 215 123 390q123 178 332 264h-336v-137h-117v301h592v-183q-182 -72 -273 -225q-92 -154 -92 -387q0 -281 138 -449q139 -170 358 -170t358 170q137 168 138 449q0 233 -93 387q-92 156 -270 225v183h590v-301h-117v137h-334q205 -84 330 -262 q123 -176 123 -392q0 -152 -57 -280q-57 -131 -168 -236q-94 -88 -228 -139q-123 -47 -272 -47q-152 0 -272 47q-125 45 -226 139q-113 106 -170 235t-57 281z" />
<glyph unicode="&#x1b2;" horiz-adv-x="1554" d="M113 1386v107h583v-107h-190v-1036q0 -126 43 -190q31 -47 160 -54q213 -8 358 170q137 168 137 449q0 249 -92 387q-89 132 -240 160v114h109q219 -82 328 -258q125 -207 125 -426q0 -152 -58 -280q-55 -131 -168 -236q-94 -88 -227 -139q-98 -37 -272 -47 q-213 -12 -289 53q-117 102 -117 297v1036h-190z" />
<glyph unicode="&#x1b3;" horiz-adv-x="1511" d="M-23 1386v107h555v-107h-174l373 -604l373 604q127 106 266 107q74 0 137 -16q66 -16 127 -50v-219h-94q-6 95 -49 142q-43 45 -125 45q-123 0 -176 -72l-410 -661v-556h191v-106h-584v106h191v537l-461 743h-140z" />
<glyph unicode="&#x1b4;" horiz-adv-x="1355" d="M-6 956v107h489v-107h-170l299 -731l267 645q49 125 110 170q59 45 172 45q53 0 96 -8q70 -12 101 -22v-203h-94q-6 63 -35 96q-29 31 -88 31q-55 0 -90 -31q-33 -29 -70 -123l-436 -1065q-49 -125 -111 -170q-59 -45 -172 -45q-53 0 -96 9q-72 12 -100 22v203h94 q6 -66 35 -98q27 -29 88 -29q53 0 88 31q35 33 71 122l70 177l-397 974h-121z" />
<glyph unicode="&#x1b5;" horiz-adv-x="1421" d="M92 0v72l397 557h-247v170h370l410 571h-772v-223h-123v346h1180v-72l-447 -622h322v-170h-443l-362 -506h844v209h122v-332h-1251z" />
<glyph unicode="&#x1b6;" horiz-adv-x="1077" d="M82 0v86l289 379h-99v104h181l295 387h-527v-184h-106v291h870v-86l-311 -408h133v-104h-213l-275 -359h578v193h107v-299h-922z" />
<glyph unicode="&#x1b7;" horiz-adv-x="1155" d="M102 84v324h111q8 -158 98 -244q84 -82 244 -82q158 0 244 98q88 96 88 273q0 199 -92.5 299t-266.5 100h-96v102l344 416h-526v-223h-123v346h872v-125l-368 -444l80 -9q180 -27 284 -149q102 -121 103 -311q0 -233 -142 -361q-141 -123 -403 -123q-115 0 -229 29 q-120 29 -222 84z" />
<glyph unicode="&#x1b8;" horiz-adv-x="1155" d="M102 455q0 193 101 311q102 123 286 149l78 9l-368 444v125h872v-346h-123v223h-526l344 -416v-102h-94q-176 0 -269 -100q-90 -98 -90 -299q0 -176 88 -273q86 -98 242 -98q162 0 246 82q86 84 96 244h113v-324q-102 -53 -224 -84q-115 -29 -227 -29q-262 0 -403 123 q-142 128 -142 361z" />
<glyph unicode="&#x1b9;" horiz-adv-x="1155" d="M102 25q0 195 101 313q102 123 286 149l78 7l-368 483v86h870v-291h-106v184h-527l330 -432v-100h-94q-176 0 -269 -102q-90 -98 -90 -299q0 -174 88 -271q88 -100 242 -100q158 0 246 84q86 84 96 244h113v-324q-109 -57 -223.5 -86t-227.5 -29q-260 0 -403 125 q-142 126 -142 359z" />
<glyph unicode="&#x1bb;" horiz-adv-x="1302" d="M139 0v109l453 452q23 23 63 68h-473v170h602q6 10 12.5 19t10.5 18q63 125 63 264q0 147 -77 235q-80 86 -218 86q-143 0 -221 -71q-92 -72 -92 -213h-112v266q100 55 217 88q100 29 211 29q236 0 368 -113q135 -114 135 -307q0 -135 -116 -301h155v-170h-295l-463 -465 h623v184h117v-348h-963z" />
<glyph unicode="&#x1bc;" horiz-adv-x="1404" d="M113 1386v107h1085v-332h-123v209h-569v-510h133q92 0 227 -20q184 -25 287 -133q100 -106 100 -304q0 -213 -139 -321q-141 -111 -405 -111q-117 0 -228 25q-119 27 -223 76v290h113q8 -143 98 -219q86 -74 244 -73q154 0 241.5 88t87.5 243q0 178 -90 267 q-94 90 -268 90h-381v628h-190z" />
<glyph unicode="&#x1bd;" horiz-adv-x="1155" d="M39 958v105h952v-266h-104v143h-488v-416h129l183 -20q180 -27 284 -150q102 -121 103 -329q0 -233 -142 -359q-143 -125 -403 -125q-115 0 -229 29q-111 28 -222 86v324h111q8 -158 98 -244q88 -84 244 -84t244 100q88 96 88 271q0 199 -92 299q-92 102 -267 102h-313 v534h-176z" />
<glyph unicode="&#x1be;" horiz-adv-x="1097" d="M221 958v107h176v328h185v-328h174v-107h-174v-172q117 -10 196 -84q98 -96 98.5 -321t-98.5 -318q-100 -94 -268 -94q-68 0 -137 17q-59 14 -127 51v217h94q6 -96 49 -139q43 -47 125 -47q90 0 133 61t43 252q0 193 -43 254t-133 61h-117v262h-176z" />
<glyph unicode="&#x1c0;" horiz-adv-x="602" d="M221 0v1493h162v-1493h-162z" />
<glyph unicode="&#x1c1;" horiz-adv-x="1007" d="M624 0v1493h162v-1493h-162zM221 0v1493h162v-1493h-162z" />
<glyph unicode="&#x1c2;" horiz-adv-x="937" d="M18 479v162h371v211h-371v162h371v479h162v-479h371v-162h-371v-211h371v-162h-371v-479h-162v479h-371z" />
<glyph unicode="&#x1c3;" horiz-adv-x="602" d="M221 0v156h162v-156h-162zM221 311v1182h162v-1182h-162z" />
<glyph unicode="&#x1c4;" horiz-adv-x="3063" d="M1734 0v72l930 1298h-772v-223h-123v346h1180v-72l-930 -1298h844v209h122v-332h-1251zM2036 1899h116l203 -162l203 162h116l-231 -264h-176zM113 0v106h190v1280h-190v107h594q387 0 602 -196.5t215 -549t-215 -548.5q-217 -199 -602 -199h-594zM506 106h186 q291 0 447 166q156 164 155 476q0 309 -155 475q-154 164 -447 163h-186v-1280z" />
<glyph unicode="&#x1c5;" horiz-adv-x="2719" d="M1724 0v86l666 870h-527v-184h-106v291h870v-86l-666 -871h578v193h107v-299h-922zM1864 1638h116l203 -260l203 260h116l-235 -376h-168zM113 0v106h190v1280h-190v107h594q387 0 602 -196.5t215 -549t-215 -548.5q-217 -199 -602 -199h-594zM506 106h186q291 0 447 166 q156 164 155 476q0 309 -155 475q-154 164 -447 163h-186v-1280z" />
<glyph unicode="&#x1c6;" horiz-adv-x="2387" d="M1393 0v86l666 870h-527v-184h-106v291h870v-86l-666 -871h578v193h107v-299h-922zM1533 1638h116l203 -260l203 260h116l-235 -376h-168zM102 532q0 252 123 406t322 154q123 0 207 -48q82 -45 137 -147v553h-174v106h358v-1450h176v-106h-360v166q-55 -102 -137 -148 q-84 -47 -207 -47q-195 0 -320 155.5t-125 405.5zM317 532q0 -223 72 -333q74 -113 215 -113q139 0 213 100.5t74 292.5v105q0 190 -74 293q-74 100 -213 100t-215 -113q-72 -107 -72 -332z" />
<glyph unicode="&#x1c7;" horiz-adv-x="2179" d="M1188 -123h115q2 -96 47 -147q43 -49 131 -49q119 0 166 75.5t47 292.5v1337h-232v107h625v-107h-190v-1345q0 -246 -98.5 -356.5t-319.5 -110.5q-78 0 -144 16q-78 20 -147 52v235zM113 0v106h190v1280h-190v107h583v-107h-190v-1263h682v250h123v-373h-1198z" />
<glyph unicode="&#x1c8;" horiz-adv-x="1994" d="M1163 -170h95q6 -95 49 -141q43 -45 125 -45q92 0 135 61.5t43 190.5v1060h-174v107h358v-1167q0 -166 -98 -258.5t-268 -92.5q-68 0 -138 17q-66 16 -127 49v219zM1565 1393q0 47 33 80q35 35 81 34q45 0 80 -34q33 -33 33 -80t-32.5 -80t-80.5 -33q-49 0 -81.5 33 t-32.5 80zM113 0v106h190v1280h-190v107h583v-107h-190v-1263h682v250h123v-373h-1198z" />
<glyph unicode="&#x1c9;" horiz-adv-x="1288" d="M458 -170h95q6 -95 49 -141q43 -45 125 -45q92 0 135 61.5t43 190.5v1060h-174v107h358v-1167q0 -166 -98 -258.5t-268 -92.5q-68 0 -138 17q-66 16 -127 49v219zM860 1393q0 47 33 80q35 35 81 34q45 0 80 -34q33 -33 33 -80t-32.5 -80t-80.5 -33q-49 0 -81.5 33 t-32.5 80zM59 0v106h177v1344h-177v106h361v-1450h174v-106h-535z" />
<glyph unicode="&#x1ca;" horiz-adv-x="2611" d="M1620 -123h115q2 -96 47 -147q43 -49 131 -49q119 0 166 75.5t47 292.5v1337h-232v107h625v-107h-190v-1345q0 -246 -98.5 -356.5t-319.5 -110.5q-78 0 -144 16q-78 20 -147 52v235zM100 0v106h201v1280h-201v107h383l895 -1178v1071h-200v107h524v-107h-201v-1415h-121 l-956 1258v-1123h201v-106h-525z" />
<glyph unicode="&#x1cb;" horiz-adv-x="2426" d="M1595 -170h95q6 -95 49 -141q43 -45 125 -45q92 0 135 61.5t43 190.5v1060h-174v107h358v-1167q0 -166 -98 -258.5t-268 -92.5q-68 0 -138 17q-66 16 -127 49v219zM1997 1393q0 47 33 80q35 35 81 34q45 0 80 -34q33 -33 33 -80t-32.5 -80t-80.5 -33q-49 0 -81.5 33 t-32.5 80zM100 0v106h201v1280h-201v107h383l895 -1178v1071h-200v107h524v-107h-201v-1415h-121l-956 1258v-1123h201v-106h-525z" />
<glyph unicode="&#x1cc;" horiz-adv-x="1953" d="M1122 -170h95q6 -95 49 -141q43 -45 125 -45q92 0 135 61.5t43 190.5v1060h-174v107h358v-1167q0 -166 -98 -258.5t-268 -92.5q-68 0 -138 17q-66 16 -127 49v219zM1524 1393q0 47 33 80q35 35 81 34q45 0 80 -34q33 -33 33 -80t-32.5 -80t-80.5 -33q-49 0 -81.5 33 t-32.5 80zM74 956v107h360v-189q53 109 133 162q84 55 189 56q178 0 260 -100.5t82 -315.5v-570h164v-106h-508v106h159v512q0 193 -49 266.5t-168 73.5q-125 0 -194 -94q-68 -92 -68 -272v-486h160v-106h-510v106h166v850h-176z" />
<glyph unicode="&#x1cd;" horiz-adv-x="1478" d="M-12 0v106h131l532 1387h168l533 -1387h147v-106h-543v106h166l-125 328h-628l-125 -328h164v-106h-420zM410 541h548l-274 710zM418 1899h116l203 -162l203 162h116l-231 -264h-176z" />
<glyph unicode="&#x1ce;" horiz-adv-x="1220" d="M102 319q0 164 119 256q117 90 336 91h258v73q0 119 -73.5 186.5t-206.5 67.5q-106 0 -174 -51t-82 -147h-95v215q92 39 187 61q84 20 176 21q221 0 336 -109q117 -111 116 -319v-558h164v-106h-348v115q-63 -76 -141 -109q-82 -35 -187 -35q-178 0 -280 95 q-105 93 -105 253zM307 319q0 -111 68 -176q70 -66 184.5 -65.5t185.5 72.5q70 70 70 184v225h-237q-133 0 -203 -59q-68 -58 -68 -181zM248 1638h116l203 -260l203 260h116l-235 -376h-168z" />
<glyph unicode="&#x1cf;" horiz-adv-x="808" d="M113 0v106h190v1280h-190v107h583v-107h-190v-1280h190v-106h-583zM87 1899h116l203 -162l203 162h116l-231 -264h-176z" />
<glyph unicode="&#x1d0;" horiz-adv-x="653" d="M74 0v106h176v850h-176v107h360v-957h174v-106h-534zM9 1638h116l203 -260l203 260h116l-235 -376h-168z" />
<glyph unicode="&#x1d1;" horiz-adv-x="1677" d="M115 745q0 182 55 324q57 145 166 254q98 98 223 147.5t281 49.5q326 0 526 -213q199 -211 199 -562q0 -180 -55.5 -323t-166.5 -254q-98 -98 -225 -147.5t-278 -49.5q-150 0 -279 49q-125 47 -225 148q-109 109 -166 254q-55 141 -55 323zM344 745.5 q0 -331.5 125 -499.5t370.5 -168t370.5 168t125 499.5t-125 499.5t-370.5 168t-370.5 -168t-125 -499.5zM521 1899h116l203 -162l203 162h116l-231 -264h-176z" />
<glyph unicode="&#x1d2;" horiz-adv-x="1232" d="M102 532q0 254 140 406q141 154 374 154q231 0 372.5 -154t141.5 -406q0 -254 -141 -407.5t-372.5 -153.5t-373 153.5t-141.5 407.5zM317 532q0 -231 76 -346q78 -117 223.5 -116.5t223.5 116.5q76 115 75 346q0 229 -75 345q-78 117 -223.5 116.5t-223.5 -116.5 q-76 -116 -76 -345zM295 1638h116l203 -260l203 260h116l-235 -376h-168z" />
<glyph unicode="&#x1d3;" horiz-adv-x="1724" d="M96 1386v107h584v-107h-191v-772q0 -286 93 -399q92 -113 323 -113q229 0 322 113q94 117 94 399v772h-191v107h504v-107h-190v-792q0 -342 -131 -481q-133 -141 -445 -142q-315 0 -448 142q-133 143 -133 481v792h-191zM584 1899h116l203 -162l203 162h116l-231 -264 h-176z" />
<glyph unicode="&#x1d4;" horiz-adv-x="1318" d="M55 956v107h351v-619q0 -195 47 -266.5t170 -71.5q127 0 194.5 94.5t67.5 272.5v483h-160v107h344v-957h174v-106h-358v188q-51 -106 -131 -161.5t-189 -55.5q-178 0 -260 101q-84 102 -84 315v569h-166zM265 1638h116l203 -260l203 260h116l-235 -376h-168z" />
<glyph unicode="&#x1d5;" horiz-adv-x="1724" d="M602 2066v148h598v-148h-598zM96 1386v107h584v-107h-191v-772q0 -286 93 -399q92 -113 323 -113q229 0 322 113q94 117 94 399v772h-191v107h504v-107h-190v-792q0 -342 -131 -481q-133 -141 -445 -142q-315 0 -448 142q-133 143 -133 481v792h-191zM592 1768 q0 47 34.5 81.5t82 34.5t82 -34.5t34.5 -81.5q0 -51 -32.5 -84t-84.5 -33q-49 0 -81 33q-35 35 -35 84zM981 1768q0 47 34.5 81.5t82 34.5t82 -34.5t34.5 -81.5q0 -49 -35 -84q-33 -33 -81 -33q-51 0 -84 33t-33 84z" />
<glyph unicode="&#x1d6;" horiz-adv-x="1318" d="M285 1693v148h598v-148h-598zM55 956v107h351v-619q0 -195 47 -266.5t170 -71.5q127 0 194.5 94.5t67.5 272.5v483h-160v107h344v-957h174v-106h-358v188q-51 -106 -131 -161.5t-189 -55.5q-178 0 -260 101q-84 102 -84 315v569h-166zM273 1452q0 47 34.5 82t82 35 t82 -35t34.5 -82q0 -51 -32.5 -84t-84 -33t-84 33t-32.5 84zM662 1452q0 47 34.5 82t82 35t82 -35t34.5 -82q0 -51 -32.5 -84t-84 -33t-84 33t-32.5 84z" />
<glyph unicode="&#x1d7;" horiz-adv-x="1724" d="M784 1981l182 264h197l-262 -264h-117zM96 1386v107h584v-107h-191v-772q0 -286 93 -399q92 -113 323 -113q229 0 322 113q94 117 94 399v772h-191v107h504v-107h-190v-792q0 -342 -131 -481q-133 -141 -445 -142q-315 0 -448 142q-133 143 -133 481v792h-191zM592 1768 q0 47 34.5 81.5t82 34.5t82 -34.5t34.5 -81.5q0 -51 -32.5 -84t-84.5 -33q-49 0 -81 33q-35 35 -35 84zM981 1768q0 47 34.5 81.5t82 34.5t82 -34.5t34.5 -81.5q0 -49 -35 -84q-33 -33 -81 -33q-51 0 -84 33t-33 84z" />
<glyph unicode="&#x1d8;" horiz-adv-x="1318" d="M467 1635l258 376h199l-340 -376h-117zM55 956v107h351v-619q0 -195 47 -266.5t170 -71.5q127 0 194.5 94.5t67.5 272.5v483h-160v107h344v-957h174v-106h-358v188q-51 -106 -131 -161.5t-189 -55.5q-178 0 -260 101q-84 102 -84 315v569h-166zM273 1452q0 47 34.5 82 t82 35t82 -35t34.5 -82q0 -51 -32.5 -84t-84 -33t-84 33t-32.5 84zM662 1452q0 47 34.5 82t82 35t82 -35t34.5 -82q0 -51 -32.5 -84t-84 -33t-84 33t-32.5 84z" />
<glyph unicode="&#x1d9;" horiz-adv-x="1724" d="M584 2245h116l203 -162l203 162h116l-231 -264h-176zM96 1386v107h584v-107h-191v-772q0 -286 93 -399q92 -113 323 -113q229 0 322 113q94 117 94 399v772h-191v107h504v-107h-190v-792q0 -342 -131 -481q-133 -141 -445 -142q-315 0 -448 142q-133 143 -133 481v792 h-191zM592 1768q0 47 34.5 81.5t82 34.5t82 -34.5t34.5 -81.5q0 -51 -32.5 -84t-84.5 -33q-49 0 -81 33q-35 35 -35 84zM981 1768q0 47 34.5 81.5t82 34.5t82 -34.5t34.5 -81.5q0 -49 -35 -84q-33 -33 -81 -33q-51 0 -84 33t-33 84z" />
<glyph unicode="&#x1da;" horiz-adv-x="1318" d="M267 2011h116l203 -260l203 260h116l-235 -376h-168zM55 956v107h351v-619q0 -195 47 -266.5t170 -71.5q127 0 194.5 94.5t67.5 272.5v483h-160v107h344v-957h174v-106h-358v188q-51 -106 -131 -161.5t-189 -55.5q-178 0 -260 101q-84 102 -84 315v569h-166zM273 1452 q0 47 34.5 82t82 35t82 -35t34.5 -82q0 -51 -32.5 -84t-84 -33t-84 33t-32.5 84zM662 1452q0 47 34.5 82t82 35t82 -35t34.5 -82q0 -51 -32.5 -84t-84 -33t-84 33t-32.5 84z" />
<glyph unicode="&#x1db;" horiz-adv-x="1724" d="M637 2245h196l183 -264h-117zM96 1386v107h584v-107h-191v-772q0 -286 93 -399q92 -113 323 -113q229 0 322 113q94 117 94 399v772h-191v107h504v-107h-190v-792q0 -342 -131 -481q-133 -141 -445 -142q-315 0 -448 142q-133 143 -133 481v792h-191zM592 1768 q0 47 34.5 81.5t82 34.5t82 -34.5t34.5 -81.5q0 -51 -32.5 -84t-84.5 -33q-49 0 -81 33q-35 35 -35 84zM981 1768q0 47 34.5 81.5t82 34.5t82 -34.5t34.5 -81.5q0 -49 -35 -84q-33 -33 -81 -33q-51 0 -84 33t-33 84z" />
<glyph unicode="&#x1dc;" horiz-adv-x="1318" d="M250 2009h197l260 -376h-117zM55 956v107h351v-619q0 -195 47 -266.5t170 -71.5q127 0 194.5 94.5t67.5 272.5v483h-160v107h344v-957h174v-106h-358v188q-51 -106 -131 -161.5t-189 -55.5q-178 0 -260 101q-84 102 -84 315v569h-166zM273 1452q0 47 34.5 82t82 35 t82 -35t34.5 -82q0 -51 -32.5 -84t-84 -33t-84 33t-32.5 84zM662 1452q0 47 34.5 82t82 35t82 -35t34.5 -82q0 -51 -32.5 -84t-84 -33t-84 33t-32.5 84z" />
<glyph unicode="&#x1dd;" horiz-adv-x="1210" d="M102 551h793v8q0 213 -82 326q-80 109 -238 108q-123 0 -198 -63q-78 -66 -109 -189h-147q41 170 162 263q119 88 311 88q233 0 374.5 -154t141.5 -408q0 -250 -139 -405q-139 -154 -365 -154q-242 0 -370 150q-128 145 -134 430zM319 444q6 -188 78 -280q70 -94 209 -94 q127 0 201 96q72 94 88 278h-576z" />
<glyph unicode="&#x1de;" horiz-adv-x="1478" d="M440 2066v148h598v-148h-598zM-12 0v106h131l532 1387h168l533 -1387h147v-106h-543v106h166l-125 328h-628l-125 -328h164v-106h-420zM410 541h548l-274 710zM428 1768q0 47 34.5 81.5t82 34.5t82 -34.5t34.5 -81.5q0 -51 -32.5 -84t-84.5 -33q-49 0 -81 33 q-35 35 -35 84zM817 1768q0 47 34.5 81.5t82 34.5t82 -34.5t34.5 -81.5q0 -49 -35 -84q-33 -33 -81 -33q-51 0 -84 33t-33 84z" />
<glyph unicode="&#x1df;" horiz-adv-x="1220" d="M270 1693v148h598v-148h-598zM102 319q0 164 119 256q117 90 336 91h258v73q0 119 -73.5 186.5t-206.5 67.5q-106 0 -174 -51t-82 -147h-95v215q92 39 187 61q84 20 176 21q221 0 336 -109q117 -111 116 -319v-558h164v-106h-348v115q-63 -76 -141 -109q-82 -35 -187 -35 q-178 0 -280 95q-105 93 -105 253zM307 319q0 -111 68 -176q70 -66 184.5 -65.5t185.5 72.5q70 70 70 184v225h-237q-133 0 -203 -59q-68 -58 -68 -181zM258 1452q0 47 34.5 82t82 35t82 -35t34.5 -82q0 -51 -32.5 -84t-84 -33t-84 33t-32.5 84zM647 1452q0 47 34.5 82 t82 35t82 -35t34.5 -82q0 -51 -32.5 -84t-84 -33t-84 33t-32.5 84z" />
<glyph unicode="&#x1e0;" horiz-adv-x="1478" d="M440 2066v148h598v-148h-598zM622 1825q0 47 35 82t82 35t82 -35t35 -82q0 -51 -33 -84t-84 -33t-84 33t-33 84zM-12 0v106h131l532 1387h168l533 -1387h147v-106h-543v106h166l-125 328h-628l-125 -328h164v-106h-420zM410 541h548l-274 710z" />
<glyph unicode="&#x1e1;" horiz-adv-x="1220" d="M270 1693v148h598v-148h-598zM452 1452q0 47 35 82t82 35t82 -35t35 -82q0 -51 -33 -84t-84 -33t-84 33t-33 84zM102 319q0 164 119 256q117 90 336 91h258v73q0 119 -73.5 186.5t-206.5 67.5q-106 0 -174 -51t-82 -147h-95v215q92 39 187 61q84 20 176 21 q221 0 336 -109q117 -111 116 -319v-558h164v-106h-348v115q-63 -76 -141 -109q-82 -35 -187 -35q-178 0 -280 95q-105 93 -105 253zM307 319q0 -111 68 -176q70 -66 184.5 -65.5t185.5 72.5q70 70 70 184v225h-237q-133 0 -203 -59q-68 -58 -68 -181z" />
<glyph unicode="&#x1e2;" horiz-adv-x="2048" d="M899 1693v148h598v-148h-598zM-35 0v106h131l590 1280h-215v107h1456v-332h-123v209h-688v-500h492v187h123v-496h-123v187h-492v-625h705v209h123v-332h-1219v106h190v328h-538l-152 -328h164v-106h-424zM426 541h489v845h-100z" />
<glyph unicode="&#x1e3;" horiz-adv-x="1923" d="M635 1378v148h598v-148h-598zM102 319q0 164 119 256q117 90 336 91h258v73q0 119 -71.5 186.5t-200.5 67.5q-117 0 -183 -49q-66 -51 -81 -149h-95v215q92 39 187 61q84 20 176 21q141 0 237.5 -43t151.5 -134q72 86 170 132q100 45 213 45q242 0 371 -150 q131 -152 133 -430h-793v-8q0 -213 80 -323.5t240 -110.5q123 0 198 63q78 66 109 189h147q-43 -174 -161.5 -262.5t-311.5 -88.5q-123 0 -225 45q-109 47 -182 134q-83 -92 -185 -136q-100 -43 -225 -43q-201 0 -305 90q-107 92 -107 258zM307 319q0 -111 68 -176 q70 -66 184.5 -65.5t185.5 72.5q70 70 70 184v225h-237q-133 0 -203 -59q-68 -58 -68 -181zM1030 618h576q-6 188 -78 281q-74 94 -209 94q-127 0 -201 -96q-72 -95 -88 -279z" />
<glyph unicode="&#x1e4;" horiz-adv-x="1734" d="M115 745.5q0 348.5 204 563.5q203 211 549 211q137 0 265 -29q152 -35 290 -90v-354h-112q-33 186 -145.5 276t-309.5 90q-258 0 -385 -166q-127 -168 -127 -502q0 -330 131 -497q133 -170 385 -170q106 0 215 28q102 27 197 84v129h-445v107h445v149h-281v107h484v-256 h200v-107h-200v-194q-125 -72 -287 -115q-150 -39 -328 -39q-338 0 -541 211q-204 215 -204 563.5z" />
<glyph unicode="&#x1e5;" horiz-adv-x="1310" d="M102 532q0 252 123 406t322 154q123 0 207 -48q82 -45 137 -147v166h360v-107h-176v-370h176v-107h-176v-456q0 -225 -127 -353q-125 -125 -358 -125q-106 0 -201 19q-86 16 -184 57v223h96q18 -104 84 -151q68 -49 193 -49q160 0 237 92q76 90 76 287v143 q-55 -102 -137 -148q-84 -47 -207 -47q-195 0 -320 155.5t-125 405.5zM317 532q0 -223 72 -333q74 -113 215 -113q139 0 213 100.5t74 292.5h-242v107h242q0 188 -74 291q-74 100 -213 100t-215 -113q-72 -107 -72 -332z" />
<glyph unicode="&#x1e6;" horiz-adv-x="1634" d="M537 1899h116l203 -162l203 162h116l-231 -264h-176zM115 745.5q0 348.5 204 563.5q203 211 549 211q137 0 265 -29q152 -35 290 -90v-354h-112q-33 186 -145.5 276t-309.5 90q-258 0 -385 -166q-127 -168 -127 -502q0 -330 131 -497q133 -170 385 -170q106 0 215 28 q102 27 197 84v385h-281v107h484v-557q-125 -72 -287 -115q-150 -39 -328 -39q-338 0 -541 211q-204 215 -204 563.5z" />
<glyph unicode="&#x1e7;" horiz-adv-x="1310" d="M285 1638h116l203 -260l203 260h116l-235 -376h-168zM102 532q0 252 123 406t322 154q123 0 207 -48q82 -45 137 -147v166h360v-107h-176v-933q0 -225 -127 -353q-125 -125 -358 -125q-106 0 -201 19q-86 16 -184 57v223h96q18 -104 84 -151q68 -49 193 -49q160 0 237 92 q76 90 76 287v143q-55 -102 -137 -148q-84 -47 -207 -47q-195 0 -320 155.5t-125 405.5zM317 532q0 -223 72 -333q74 -113 215 -113q139 0 213 100.5t74 292.5v105q0 190 -74 293q-74 100 -213 100t-215 -113q-72 -107 -72 -332z" />
<glyph unicode="&#x1e8;" horiz-adv-x="1529" d="M521 1899h116l203 -162l203 162h116l-231 -264h-176zM113 0v106h190v1280h-190v107h583v-107h-190v-565l643 565h-162v107h496v-107h-168l-641 -563l717 -717h170v-106h-347l-708 709v-603h190v-106h-583z" />
<glyph unicode="&#x1e9;" horiz-adv-x="1239" d="M13 1968h116l203 -162l203 162h116l-231 -264h-176zM59 1450v106h361v-1013l448 413h-153v107h481v-107h-182l-316 -292l404 -558h153v-106h-524v106h152l-318 437l-145 -135v-302h166v-106h-516v106h166v1344h-177z" />
<glyph unicode="&#x1ea;" horiz-adv-x="1677" d="M664 -239q0 51 30 102q33 55 99 121h94v-2q-88 -125 -88 -170q0 -47 33 -74q35 -29 90 -28q28 0 55 6q18 4 60 20v-127q-51 -12 -70 -14q-45 -4 -66 -4q-113 0 -176 45q-61 43 -61 125zM115 745q0 182 55 324q57 145 166 254q98 98 223 147.5t281 49.5q326 0 526 -213 q199 -211 199 -562q0 -180 -55.5 -323t-166.5 -254q-98 -98 -225 -147.5t-278 -49.5q-150 0 -279 49q-125 47 -225 148q-109 109 -166 254q-55 141 -55 323zM344 745.5q0 -331.5 125 -499.5t370.5 -168t370.5 168t125 499.5t-125 499.5t-370.5 168t-370.5 -168t-125 -499.5z " />
<glyph unicode="&#x1eb;" horiz-adv-x="1232" d="M441 -239q0 51 30 102q33 55 99 121h94v-2q-88 -125 -88 -170q0 -47 33 -74q35 -29 90 -28q28 0 55 6q18 4 60 20v-127q-51 -12 -70 -14q-45 -4 -66 -4q-113 0 -176 45q-61 43 -61 125zM102 532q0 254 140 406q141 154 374 154q231 0 372.5 -154t141.5 -406 q0 -254 -141 -407.5t-372.5 -153.5t-373 153.5t-141.5 407.5zM317 532q0 -231 76 -346q78 -117 223.5 -116.5t223.5 116.5q76 115 75 346q0 229 -75 345q-78 117 -223.5 116.5t-223.5 -116.5q-76 -116 -76 -345z" />
<glyph unicode="&#x1ec;" horiz-adv-x="1677" d="M541 1693v148h598v-148h-598zM664 -239q0 51 30 102q33 55 99 121h94v-2q-88 -125 -88 -170q0 -47 33 -74q35 -29 90 -28q28 0 55 6q18 4 60 20v-127q-51 -12 -70 -14q-45 -4 -66 -4q-113 0 -176 45q-61 43 -61 125zM115 745q0 182 55 324q57 145 166 254 q98 98 223 147.5t281 49.5q326 0 526 -213q199 -211 199 -562q0 -180 -55.5 -323t-166.5 -254q-98 -98 -225 -147.5t-278 -49.5q-150 0 -279 49q-125 47 -225 148q-109 109 -166 254q-55 141 -55 323zM344 745.5q0 -331.5 125 -499.5t370.5 -168t370.5 168t125 499.5 t-125 499.5t-370.5 168t-370.5 -168t-125 -499.5z" />
<glyph unicode="&#x1ed;" horiz-adv-x="1232" d="M317 1378v148h598v-148h-598zM441 -239q0 51 30 102q33 55 99 121h94v-2q-88 -125 -88 -170q0 -47 33 -74q35 -29 90 -28q28 0 55 6q18 4 60 20v-127q-51 -12 -70 -14q-45 -4 -66 -4q-113 0 -176 45q-61 43 -61 125zM102 532q0 254 140 406q141 154 374 154 q231 0 372.5 -154t141.5 -406q0 -254 -141 -407.5t-372.5 -153.5t-373 153.5t-141.5 407.5zM317 532q0 -231 76 -346q78 -117 223.5 -116.5t223.5 116.5q76 115 75 346q0 229 -75 345q-78 117 -223.5 116.5t-223.5 -116.5q-76 -116 -76 -345z" />
<glyph unicode="&#x1ee;" horiz-adv-x="1155" d="M269 1899h116l203 -162l203 162h116l-231 -264h-176zM102 84v324h111q8 -158 98 -244q84 -82 244 -82q158 0 244 98q88 96 88 273q0 199 -92.5 299t-266.5 100h-96v102l344 416h-526v-223h-123v346h872v-125l-368 -444l80 -9q180 -27 284 -149q102 -121 103 -311 q0 -233 -142 -361q-141 -123 -403 -123q-115 0 -229 29q-120 29 -222 84z" />
<glyph unicode="&#x1ef;" horiz-adv-x="1155" d="M222 1638h116l203 -260l203 260h116l-235 -376h-168zM102 -20h111q8 -158 98 -244q88 -84 244 -84t244 100q88 96 88 271q0 199 -92 299q-92 102 -267 102h-96v100l332 432h-528v-184h-107v291h870v-86l-368 -483l80 -7q180 -27 284 -149q102 -121 103 -313 q0 -233 -142 -359q-143 -125 -403 -125q-115 0 -229 29q-111 28 -222 86v324z" />
<glyph unicode="&#x1f0;" horiz-adv-x="653" d="M-197 -170h95q6 -95 49 -141q43 -45 125 -45q92 0 135 61.5t43 190.5v1060h-174v107h358v-1167q0 -166 -98 -258.5t-268 -92.5q-68 0 -138 17q-66 16 -127 49v219zM9 1638h116l203 -260l203 260h116l-235 -376h-168z" />
<glyph unicode="&#x1f1;" horiz-adv-x="3063" d="M1734 0v72l930 1298h-772v-223h-123v346h1180v-72l-930 -1298h844v209h122v-332h-1251zM113 0v106h190v1280h-190v107h594q387 0 602 -196.5t215 -549t-215 -548.5q-217 -199 -602 -199h-594zM506 106h186q291 0 447 166q156 164 155 476q0 309 -155 475 q-154 164 -447 163h-186v-1280z" />
<glyph unicode="&#x1f2;" horiz-adv-x="2719" d="M1724 0v86l666 870h-527v-184h-106v291h870v-86l-666 -871h578v193h107v-299h-922zM113 0v106h190v1280h-190v107h594q387 0 602 -196.5t215 -549t-215 -548.5q-217 -199 -602 -199h-594zM506 106h186q291 0 447 166q156 164 155 476q0 309 -155 475q-154 164 -447 163 h-186v-1280z" />
<glyph unicode="&#x1f3;" horiz-adv-x="2387" d="M1393 0v86l666 870h-527v-184h-106v291h870v-86l-666 -871h578v193h107v-299h-922zM102 532q0 252 123 406t322 154q123 0 207 -48q82 -45 137 -147v553h-174v106h358v-1450h176v-106h-360v166q-55 -102 -137 -148q-84 -47 -207 -47q-195 0 -320 155.5t-125 405.5z M317 532q0 -223 72 -333q74 -113 215 -113q139 0 213 100.5t74 292.5v105q0 190 -74 293q-74 100 -213 100t-215 -113q-72 -107 -72 -332z" />
<glyph unicode="&#x1f4;" horiz-adv-x="1634" d="M735 1635l182 264h197l-262 -264h-117zM115 745.5q0 348.5 204 563.5q203 211 549 211q137 0 265 -29q152 -35 290 -90v-354h-112q-33 186 -145.5 276t-309.5 90q-258 0 -385 -166q-127 -168 -127 -502q0 -330 131 -497q133 -170 385 -170q106 0 215 28q102 27 197 84 v385h-281v107h484v-557q-125 -72 -287 -115q-150 -39 -328 -39q-338 0 -541 211q-204 215 -204 563.5z" />
<glyph unicode="&#x1f5;" horiz-adv-x="1310" d="M485 1262l258 376h199l-340 -376h-117zM102 532q0 252 123 406t322 154q123 0 207 -48q82 -45 137 -147v166h360v-107h-176v-933q0 -225 -127 -353q-125 -125 -358 -125q-106 0 -201 19q-86 16 -184 57v223h96q18 -104 84 -151q68 -49 193 -49q160 0 237 92q76 90 76 287 v143q-55 -102 -137 -148q-84 -47 -207 -47q-195 0 -320 155.5t-125 405.5zM317 532q0 -223 72 -333q74 -113 215 -113q139 0 213 100.5t74 292.5v105q0 190 -74 293q-74 100 -213 100t-215 -113q-72 -107 -72 -332z" />
<glyph unicode="&#x1f6;" horiz-adv-x="2361" d="M113 0v106h190v1280h-190v107h583v-107h-190v-516h774v516h-190v107h583v-107h-190v-772q0 -283 94 -399q94 -113 223 -113q143 0 213 113q76 121 76 399v340h-174v109h356v-469q0 -342 -131 -481q-129 -141 -330 -142q-262 0 -397 142q-133 139 -133 481v154h-774v-642 h190v-106h-583z" />
<glyph unicode="&#x1f8;" horiz-adv-x="1792" d="M617 1899h196l183 -264h-117zM100 0v106h201v1280h-201v107h383l895 -1178v1071h-200v107h524v-107h-201v-1415h-121l-956 1258v-1123h201v-106h-525z" />
<glyph unicode="&#x1f9;" horiz-adv-x="1318" d="M258 1636h197l260 -376h-117zM74 956v107h360v-189q53 109 133 162q84 55 189 56q178 0 260 -100.5t82 -315.5v-570h164v-106h-508v106h159v512q0 193 -49 266.5t-168 73.5q-125 0 -194 -94q-68 -92 -68 -272v-486h160v-106h-510v106h166v850h-176z" />
<glyph unicode="&#x1fa;" horiz-adv-x="1478" d="M-12 0v106h131l438 1143q-35 29 -59 66q-37 61 -37 143q0 117 80 197q63 63 147 76l139 167h197l-209 -176q61 -18 115 -67q80 -80 80 -197q0 -78 -39 -141q-25 -41 -60 -68l441 -1143h147v-106h-543v106h166l-125 328h-628l-125 -328h164v-106h-420zM410 541h548 l-256 665l-34 2zM584 1458q0 -63 43 -106t108 -43q63 0 107 43q45 45 45 106q0 63 -45 108.5t-107 45.5q-63 0 -108 -45q-43 -43 -43 -109z" />
<glyph unicode="&#x1fb;" horiz-adv-x="1220" d="M102 319q0 164 119 256q117 90 336 91h258v73q0 119 -73.5 186.5t-206.5 67.5q-106 0 -174 -51t-82 -147h-95v215q92 39 187 61q84 20 176 21q221 0 336 -109q117 -111 116 -319v-558h164v-106h-348v115q-63 -76 -141 -109q-82 -35 -187 -35q-178 0 -280 95 q-105 93 -105 253zM295 1458q0 117 80 197q72 72 172 78l115 165h196l-184 -184q55 -25 90 -59q80 -80 80 -197q0 -115 -80 -194.5t-194.5 -79.5t-194.5 79.5t-80 194.5zM307 319q0 -111 68 -176q70 -66 184.5 -65.5t185.5 72.5q70 70 70 184v225h-237q-133 0 -203 -59 q-68 -58 -68 -181zM418 1458.5q0 -65.5 43 -108.5t108 -43q63 0 109 45q43 43 43 106q0 66 -43 109t-108.5 43t-108.5 -43t-43 -108.5z" />
<glyph unicode="&#x1fc;" horiz-adv-x="2048" d="M1077 1635l182 264h197l-262 -264h-117zM-35 0v106h131l590 1280h-215v107h1456v-332h-123v209h-688v-500h492v187h123v-496h-123v187h-492v-625h705v209h123v-332h-1219v106h190v328h-538l-152 -328h164v-106h-424zM426 541h489v845h-100z" />
<glyph unicode="&#x1fd;" horiz-adv-x="1923" d="M807 1266l258 376h199l-340 -376h-117zM102 319q0 164 119 256q117 90 336 91h258v73q0 119 -71.5 186.5t-200.5 67.5q-117 0 -183 -49q-66 -51 -81 -149h-95v215q92 39 187 61q84 20 176 21q141 0 237.5 -43t151.5 -134q72 86 170 132q100 45 213 45q242 0 371 -150 q131 -152 133 -430h-793v-8q0 -213 80 -323.5t240 -110.5q123 0 198 63q78 66 109 189h147q-43 -174 -161.5 -262.5t-311.5 -88.5q-123 0 -225 45q-109 47 -182 134q-83 -92 -185 -136q-100 -43 -225 -43q-201 0 -305 90q-107 92 -107 258zM307 319q0 -111 68 -176 q70 -66 184.5 -65.5t185.5 72.5q70 70 70 184v225h-237q-133 0 -203 -59q-68 -58 -68 -181zM1030 618h576q-6 188 -78 281q-74 94 -209 94q-127 0 -201 -96q-72 -95 -88 -279z" />
<glyph unicode="&#x1fe;" horiz-adv-x="1677" d="M723 1635l182 264h197l-262 -264h-117zM100 12l187 207q-84 102 -129 236q-43 129 -43 290q0 342 200 560q201 215 525 215q143 0 262 -43q121 -43 215 -125l178 198l80 -71l-184 -203q90 -113 131 -240q43 -131 43 -291q0 -342 -201 -559q-201 -215 -524 -215 q-139 0 -260 43q-117 41 -220 129l-182 -200zM344 745q0 -113 16 -215q16 -100 50 -178l804 887q-63 86 -157 131q-92 43 -217 43q-246 0 -371 -168t-125 -500zM463 256q68 -92 158 -133q100 -45 219 -45q246 0 370.5 168t124.5 499q0 111 -16 216q-14 88 -51 180z" />
<glyph unicode="&#x1ff;" horiz-adv-x="1232" d="M602 1262l258 376h199l-340 -376h-117zM76 -31l149 178q-61 77 -92 172q-31 94 -31 213q0 254 140 406q141 154 374 154q94 0 175 -25q74 -23 143 -76l139 166l76 -63l-145 -172q66 -78 94 -172q33 -104 32 -218q0 -254 -141 -407.5t-373 -153.5q-96 0 -174 27 q-86 31 -147 80l-143 -172zM317 532q0 -74 7 -131q6 -55 22 -108l494 586q-37 57 -94.5 85.5t-129.5 28.5q-145 0 -223 -116q-76 -116 -76 -345zM391 190q37 -57 96 -90q55 -31 129 -30q145 0 224 118q76 115 75 344q0 53 -8 136q-6 55 -22 112z" />
<glyph unicode="&#x200;" horiz-adv-x="1478" d="M293 1899h197l182 -264h-117zM610 1899h197l182 -264h-116zM-12 0v106h131l532 1387h168l533 -1387h147v-106h-543v106h166l-125 328h-628l-125 -328h164v-106h-420zM410 541h548l-274 710z" />
<glyph unicode="&#x201;" horiz-adv-x="1220" d="M123 1638h178l225 -376h-117zM460 1638h170l189 -376h-115zM102 319q0 164 119 256q117 90 336 91h258v73q0 119 -73.5 186.5t-206.5 67.5q-106 0 -174 -51t-82 -147h-95v215q92 39 187 61q84 20 176 21q221 0 336 -109q117 -111 116 -319v-558h164v-106h-348v115 q-63 -76 -141 -109q-82 -35 -187 -35q-178 0 -280 95q-105 93 -105 253zM307 319q0 -111 68 -176q70 -66 184.5 -65.5t185.5 72.5q70 70 70 184v225h-237q-133 0 -203 -59q-68 -58 -68 -181z" />
<glyph unicode="&#x202;" horiz-adv-x="1478" d="M426 1694q8 143 90 215t223 72t223 -72t90 -215h-96q-12 76 -65 115q-49 35 -151.5 34.5t-152.5 -34.5q-53 -39 -65 -115h-96zM-12 0v106h131l532 1387h168l533 -1387h147v-106h-543v106h166l-125 328h-628l-125 -328h164v-106h-420zM410 541h548l-274 710z" />
<glyph unicode="&#x203;" horiz-adv-x="1220" d="M256 1321q8 143 90 215t223 72t223 -72t90 -215h-96q-12 76 -65 115q-49 35 -151.5 34.5t-152.5 -34.5q-53 -39 -65 -115h-96zM102 319q0 164 119 256q117 90 336 91h258v73q0 119 -73.5 186.5t-206.5 67.5q-106 0 -174 -51t-82 -147h-95v215q92 39 187 61q84 20 176 21 q221 0 336 -109q117 -111 116 -319v-558h164v-106h-348v115q-63 -76 -141 -109q-82 -35 -187 -35q-178 0 -280 95q-105 93 -105 253zM307 319q0 -111 68 -176q70 -66 184.5 -65.5t185.5 72.5q70 70 70 184v225h-237q-133 0 -203 -59q-68 -58 -68 -181z" />
<glyph unicode="&#x204;" horiz-adv-x="1492" d="M322 1899h197l182 -264h-117zM639 1899h197l182 -264h-116zM113 0v106h190v1280h-190v107h1202v-332h-123v209h-686v-500h489v187h123v-496h-123v187h-489v-625h702v209h123v-332h-1218z" />
<glyph unicode="&#x205;" horiz-adv-x="1210" d="M160 1638h178l225 -376h-117zM497 1638h170l189 -376h-115zM102 532q0 250 140 406q139 154 364 154q242 0 371 -148q127 -145 133 -432h-793v-8q0 -213 80 -323.5t240 -110.5q123 0 199 63q78 66 108 189h148q-43 -174 -162 -262.5t-312 -88.5q-233 0 -374.5 153.5 t-141.5 407.5zM317 618h576q-6 188 -78 281q-74 94 -209 94q-127 0 -200 -96q-73 -95 -89 -279z" />
<glyph unicode="&#x206;" horiz-adv-x="1492" d="M435 1694q8 143 90 215t223 72t223 -72t90 -215h-96q-12 76 -65 115q-49 35 -151.5 34.5t-152.5 -34.5q-53 -39 -65 -115h-96zM113 0v106h190v1280h-190v107h1202v-332h-123v209h-686v-500h489v187h123v-496h-123v187h-489v-625h702v209h123v-332h-1218z" />
<glyph unicode="&#x207;" horiz-adv-x="1210" d="M293 1321q8 143 90 215t223 72t223 -72t90 -215h-96q-12 76 -65 115q-49 35 -151.5 34.5t-152.5 -34.5q-53 -39 -65 -115h-96zM102 532q0 250 140 406q139 154 364 154q242 0 371 -148q127 -145 133 -432h-793v-8q0 -213 80 -323.5t240 -110.5q123 0 199 63 q78 66 108 189h148q-43 -174 -162 -262.5t-312 -88.5q-233 0 -374.5 153.5t-141.5 407.5zM317 618h576q-6 188 -78 281q-74 94 -209 94q-127 0 -200 -96q-73 -95 -89 -279z" />
<glyph unicode="&#x208;" horiz-adv-x="808" d="M-39 1899h197l182 -264h-117zM278 1899h197l182 -264h-116zM113 0v106h190v1280h-190v107h583v-107h-190v-1280h190v-106h-583z" />
<glyph unicode="&#x209;" horiz-adv-x="653" d="M74 0v106h176v850h-176v107h360v-957h174v-106h-534zM-120 1638h178l225 -376h-117zM217 1638h170l189 -376h-115z" />
<glyph unicode="&#x20a;" horiz-adv-x="808" d="M93 1694q8 143 90 215t223 72t223 -72t90 -215h-96q-12 76 -65 115q-49 35 -151.5 34.5t-152.5 -34.5q-53 -39 -65 -115h-96zM113 0v106h190v1280h-190v107h583v-107h-190v-1280h190v-106h-583z" />
<glyph unicode="&#x20b;" horiz-adv-x="653" d="M15 1321q8 143 90 215t223 72t223 -72t90 -215h-96q-12 76 -65 115q-49 35 -151.5 34.5t-152.5 -34.5q-53 -39 -65 -115h-96zM74 0v106h176v850h-176v107h360v-957h174v-106h-534z" />
<glyph unicode="&#x20c;" horiz-adv-x="1677" d="M393 1899h197l182 -264h-117zM710 1899h197l182 -264h-116zM115 745q0 182 55 324q57 145 166 254q98 98 223 147.5t281 49.5q326 0 526 -213q199 -211 199 -562q0 -180 -55.5 -323t-166.5 -254q-98 -98 -225 -147.5t-278 -49.5q-150 0 -279 49q-125 47 -225 148 q-109 109 -166 254q-55 141 -55 323zM344 745.5q0 -331.5 125 -499.5t370.5 -168t370.5 168t125 499.5t-125 499.5t-370.5 168t-370.5 -168t-125 -499.5z" />
<glyph unicode="&#x20d;" horiz-adv-x="1232" d="M170 1638h178l225 -376h-117zM507 1638h170l189 -376h-115zM102 532q0 254 140 406q141 154 374 154q231 0 372.5 -154t141.5 -406q0 -254 -141 -407.5t-372.5 -153.5t-373 153.5t-141.5 407.5zM317 532q0 -231 76 -346q78 -117 223.5 -116.5t223.5 116.5q76 115 75 346 q0 229 -75 345q-78 117 -223.5 116.5t-223.5 -116.5q-76 -116 -76 -345z" />
<glyph unicode="&#x20e;" horiz-adv-x="1677" d="M527 1694q8 143 90 215t223 72t223 -72t90 -215h-96q-12 76 -65 115q-49 35 -151.5 34.5t-152.5 -34.5q-53 -39 -65 -115h-96zM115 745q0 182 55 324q57 145 166 254q98 98 223 147.5t281 49.5q326 0 526 -213q199 -211 199 -562q0 -180 -55.5 -323t-166.5 -254 q-98 -98 -225 -147.5t-278 -49.5q-150 0 -279 49q-125 47 -225 148q-109 109 -166 254q-55 141 -55 323zM344 745.5q0 -331.5 125 -499.5t370.5 -168t370.5 168t125 499.5t-125 499.5t-370.5 168t-370.5 -168t-125 -499.5z" />
<glyph unicode="&#x20f;" horiz-adv-x="1232" d="M303 1321q8 143 90 215t223 72t223 -72t90 -215h-96q-12 76 -65 115q-49 35 -151.5 34.5t-152.5 -34.5q-53 -39 -65 -115h-96zM102 532q0 254 140 406q141 154 374 154q231 0 372.5 -154t141.5 -406q0 -254 -141 -407.5t-372.5 -153.5t-373 153.5t-141.5 407.5zM317 532 q0 -231 76 -346q78 -117 223.5 -116.5t223.5 116.5q76 115 75 346q0 229 -75 345q-78 117 -223.5 116.5t-223.5 -116.5q-76 -116 -76 -345z" />
<glyph unicode="&#x210;" horiz-adv-x="1540" d="M287 1899h197l182 -264h-117zM604 1899h197l182 -264h-116zM113 0v106h190v1280h-190v107h757q215 0 336 -104q119 -104 119 -295q0 -152 -86 -242q-86 -89 -258 -111q70 -18 121 -65q53 -49 90 -127l217 -443h182v-106h-352l-233 475q-68 138 -123 178q-57 41 -154 41 h-223v-588h211v-106h-604zM506 801h295q152 0 223.5 71.5t71.5 221t-72 221t-223 71.5h-295v-585z" />
<glyph unicode="&#x211;" horiz-adv-x="978" d="M107 1638h178l225 -376h-117zM444 1638h170l189 -376h-115zM74 958v105h360v-189q57 115 139 164q88 53 207 54q45 0 94 -7q29 -4 105 -20v-266h-107q-6 82 -43 119q-39 39 -114 38q-135 0 -209 -94q-72 -92 -72 -270v-486h213v-106h-563v106h166v852h-176z" />
<glyph unicode="&#x212;" horiz-adv-x="1540" d="M418 1694q8 143 90 215t223 72t223 -72t90 -215h-96q-12 76 -65 115q-49 35 -151.5 34.5t-152.5 -34.5q-53 -39 -65 -115h-96zM113 0v106h190v1280h-190v107h757q215 0 336 -104q119 -104 119 -295q0 -152 -86 -242q-86 -89 -258 -111q70 -18 121 -65q53 -49 90 -127 l217 -443h182v-106h-352l-233 475q-68 138 -123 178q-57 41 -154 41h-223v-588h211v-106h-604zM506 801h295q152 0 223.5 71.5t71.5 221t-72 221t-223 71.5h-295v-585z" />
<glyph unicode="&#x213;" horiz-adv-x="978" d="M240 1321q8 143 90 215t223 72t223 -72t90 -215h-96q-12 76 -65 115q-49 35 -151.5 34.5t-152.5 -34.5q-53 -39 -65 -115h-96zM74 958v105h360v-189q57 115 139 164q88 53 207 54q45 0 94 -7q29 -4 105 -20v-266h-107q-6 82 -43 119q-39 39 -114 38q-135 0 -209 -94 q-72 -92 -72 -270v-486h213v-106h-563v106h166v852h-176z" />
<glyph unicode="&#x214;" horiz-adv-x="1724" d="M457 1899h197l182 -264h-117zM774 1899h197l182 -264h-116zM96 1386v107h584v-107h-191v-772q0 -286 93 -399q92 -113 323 -113q229 0 322 113q94 117 94 399v772h-191v107h504v-107h-190v-792q0 -342 -131 -481q-133 -141 -445 -142q-315 0 -448 142q-133 143 -133 481 v792h-191z" />
<glyph unicode="&#x215;" horiz-adv-x="1318" d="M138 1638h178l225 -376h-117zM475 1638h170l189 -376h-115zM55 956v107h351v-619q0 -195 47 -266.5t170 -71.5q127 0 194.5 94.5t67.5 272.5v483h-160v107h344v-957h174v-106h-358v188q-51 -106 -131 -161.5t-189 -55.5q-178 0 -260 101q-84 102 -84 315v569h-166z" />
<glyph unicode="&#x216;" horiz-adv-x="1724" d="M590 1694q8 143 90 215t223 72t223 -72t90 -215h-96q-12 76 -65 115q-49 35 -151.5 34.5t-152.5 -34.5q-53 -39 -65 -115h-96zM96 1386v107h584v-107h-191v-772q0 -286 93 -399q92 -113 323 -113q229 0 322 113q94 117 94 399v772h-191v107h504v-107h-190v-792 q0 -342 -131 -481q-133 -141 -445 -142q-315 0 -448 142q-133 143 -133 481v792h-191z" />
<glyph unicode="&#x217;" horiz-adv-x="1318" d="M271 1321q8 143 90 215t223 72t223 -72t90 -215h-96q-12 76 -65 115q-49 35 -151.5 34.5t-152.5 -34.5q-53 -39 -65 -115h-96zM55 956v107h351v-619q0 -195 47 -266.5t170 -71.5q127 0 194.5 94.5t67.5 272.5v483h-160v107h344v-957h174v-106h-358v188 q-51 -106 -131 -161.5t-189 -55.5q-178 0 -260 101q-84 102 -84 315v569h-166z" />
<glyph unicode="&#x218;" horiz-adv-x="1402" d="M172 1120q0 190 135 295t379 105q98 0 227 -23q115 -20 265 -65v-318h-113q-18 162 -104 229q-88 70 -271 70q-158 0 -241 -65q-82 -63 -82 -187q0 -106 61 -168q57 -57 264 -121l185 -55q207 -63 290 -155q86 -96 86 -254q0 -215 -139 -326t-414 -111q-123 0 -252 24.5 t-258 76.5v340h115q6 -169 98 -252q90 -82 285 -82q178 0 273 72q92 72 92 204q0 108 -56 166q-53 55 -239 113l-197 59q-217 66 -301 162q-88 100 -88 266zM528 -412q77 43 111 99q35 57 35 135v22h157q-6 -104 -63 -176q-57 -74 -176 -129z" />
<glyph unicode="&#x219;" horiz-adv-x="1050" d="M115 59v248h106q3 -120 74 -178q72 -59 209 -59q123 0 188.5 47t65.5 135q0 70 -47 113q-45 43 -201 92l-133 45q-133 41 -199 110q-61 63 -61 168q0 147 106.5 229.5t296.5 82.5q80 0 176 -23q102 -25 193 -63v-232h-107q-2 102 -71 162q-66 57 -185 57q-117 0 -176 -41 t-59 -123q0 -70 45 -108.5t180 -81.5l146 -45q150 -45 217 -116.5t67 -182.5q0 -154 -115 -238q-117 -86 -319 -86q-98 0 -201 23q-94 20 -196 65zM311 -412q77 43 111 99q35 57 35 135v22h157q-6 -104 -63 -176q-57 -74 -176 -129z" />
<glyph unicode="&#x21a;" horiz-adv-x="1363" d="M20 1141v352h1326v-352h-123v233h-439v-1268h191v-106h-584v106h191v1268h-439v-233h-123zM446 -412q77 43 111 99q35 57 35 135v22h157q-6 -104 -63 -176q-57 -74 -176 -129z" />
<glyph unicode="&#x21b;" horiz-adv-x="821" d="M59 956v107h162v330h185v-330h346v-107h-346v-675q0 -133 26.5 -172t95.5 -39q71 0 105 43q31 41 35 137h139q-8 -143 -80 -211q-71 -68 -215 -68q-162 0 -225 70q-66 72 -66 240v675h-162zM262 -412q77 43 111 99q35 57 35 135v22h157q-6 -104 -63 -176 q-57 -74 -176 -129z" />
<glyph unicode="&#x21c;" horiz-adv-x="1282" d="M156 -315q186 66 368 155q176 86 285 201q106 113 106 250t-69 207q-121 121 -287 39l-231 -113v108l233 123q138 74 240 209q76 102 76 258t-84 224q-80 66 -203 71q-119 6 -213 -96q-82 -106 -109 -274h-112v344q315 129 499.5 129t315.5 -105q133 -104 133 -278 t-76 -281q-74 -104 -197 -182q137 -18 224 -133q84 -111 84 -228q0 -219 -140 -350q-137 -129 -381 -225q-213 -84 -462 -168v115z" />
<glyph unicode="&#x21d;" horiz-adv-x="1067" d="M72 -334q137 39 321 113q164 68 273 172q84 80 84 182q0 101 -62 160q-96 88 -256 26l-207 -79v100l207 86q123 51 203 149q76 94 76 199t-72 160q-68 53 -160 53q-109 0 -174 -45q-102 -66 -127 -233h-106v272q86 41 217 76q121 33 266 28q137 -2 254 -86 q115 -82 115 -208q0 -125 -68 -211q-66 -82 -176 -150q121 -14 198.5 -102t77.5 -168q0 -178 -127 -285q-133 -111 -362 -192q-221 -78 -395 -115v98z" />
<glyph unicode="&#x21e;" horiz-adv-x="1785" d="M578 1899h116l203 -162l203 162h116l-231 -264h-176zM113 0v106h190v1280h-190v107h583v-107h-190v-516h774v516h-190v107h583v-107h-190v-1280h190v-106h-583v106h190v642h-774v-642h190v-106h-583z" />
<glyph unicode="&#x21f;" horiz-adv-x="1318" d="M13 1968h116l203 -162l203 162h116l-231 -264h-176zM74 1450v106h360v-682q53 109 133 162q84 55 189 56q178 0 260 -100.5t82 -315.5v-570h164v-106h-508v106h159v512q0 195 -47 266.5t-170 71.5q-125 0 -194 -94q-68 -92 -68 -270v-486h160v-106h-510v106h166v1344 h-176z" />
<glyph unicode="&#x220;" horiz-adv-x="1724" d="M96 0v106h191v1280h-176v107h378v-201q74 113 193 172q115 57 270 58q252 0 373 -146q119 -143 119 -454v-1241h190v-107h-585v107h190v1200q0 291 -76 401q-74 109 -264 109q-201 0 -305.5 -129t-104.5 -375v-781h191v-106h-584z" />
<glyph unicode="&#x221;" horiz-adv-x="1665" d="M102 532q0 252 123 406t322 154q123 0 207 -48q82 -45 137 -147v553h-174v106h358v-1277h15h10q539 0 532 -230q-2 -199 -379 -199q-164 0 -264 93q-68 63 -88 133q-31 -61 -31 -158v-63h-100l2 63q0 66 12 121q-10 -8 -30 -21q-84 -47 -207 -47q-195 0 -320 155.5 t-125 405.5zM317 532q0 -223 72 -333q74 -113 215 -113q139 0 213 100.5t74 292.5v105q0 190 -74 293q-74 100 -213 100t-215 -113q-72 -107 -72 -332zM1075 178q-8 -94 45 -168q46 -61 135 -61q266 0 267 106q0 123 -418 123h-29z" />
<glyph unicode="&#x224;" horiz-adv-x="1421" d="M92 0v72l930 1298h-772v-223h-123v346h1180v-72l-930 -1298h770h196q-8 -172 -81 -293q-78 -129 -218 -213l-79 80q92 66 137 164q31 68 39 139h-1049z" />
<glyph unicode="&#x225;" horiz-adv-x="1077" d="M82 0v86l666 870h-527v-184h-106v291h870v-86l-666 -871h488h197q-10 -178 -80 -294q-74 -123 -219 -211l-80 80q96 68 139 161q33 70 41 158h-723z" />
<glyph unicode="&#x226;" horiz-adv-x="1478" d="M622 1770q0 47 35 81.5t82 34.5t82 -34.5t35 -81.5q0 -51 -33 -84t-84 -33t-84 33t-33 84zM-12 0v106h131l532 1387h168l533 -1387h147v-106h-543v106h166l-125 328h-628l-125 -328h164v-106h-420zM410 541h548l-274 710z" />
<glyph unicode="&#x227;" horiz-adv-x="1220" d="M452 1452q0 47 35 82t82 35t82 -35t35 -82q0 -51 -33 -84t-84 -33t-84 33t-33 84zM102 319q0 164 119 256q117 90 336 91h258v73q0 119 -73.5 186.5t-206.5 67.5q-106 0 -174 -51t-82 -147h-95v215q92 39 187 61q84 20 176 21q221 0 336 -109q117 -111 116 -319v-558h164 v-106h-348v115q-63 -76 -141 -109q-82 -35 -187 -35q-178 0 -280 95q-105 93 -105 253zM307 319q0 -111 68 -176q70 -66 184.5 -65.5t185.5 72.5q70 70 70 184v225h-237q-133 0 -203 -59q-68 -58 -68 -181z" />
<glyph unicode="&#x228;" horiz-adv-x="1492" d="M572 -240q35 -16 80 -26q35 -8 75 -8q57 0 90 26.5t33 71.5q0 27 -22 72q-18 39 -66 104h97q66 -66 96.5 -121t30.5 -104q0 -82 -64 -125q-68 -45 -174 -45q-43 0 -86 6q-45 6 -90 18v131zM113 0v106h190v1280h-190v107h1202v-332h-123v209h-686v-500h489v187h123v-496 h-123v187h-489v-625h702v209h123v-332h-1218z" />
<glyph unicode="&#x229;" horiz-adv-x="1210" d="M375 -240q35 -16 80 -26q35 -8 75 -8q57 0 90 26.5t33 71.5q0 27 -22 72q-18 39 -66 104h97q66 -66 96.5 -121t30.5 -104q0 -82 -64 -125q-68 -45 -174 -45q-43 0 -86 6q-45 6 -90 18v131zM102 532q0 250 140 406q139 154 364 154q242 0 371 -148q127 -145 133 -432h-793 v-8q0 -213 80 -323.5t240 -110.5q123 0 199 63q78 66 108 189h148q-43 -174 -162 -262.5t-312 -88.5q-233 0 -374.5 153.5t-141.5 407.5zM317 618h576q-6 188 -78 281q-74 94 -209 94q-127 0 -200 -96q-73 -95 -89 -279z" />
<glyph unicode="&#x22a;" horiz-adv-x="1677" d="M543 2066v148h598v-148h-598zM115 745q0 182 55 324q57 145 166 254q98 98 223 147.5t281 49.5q326 0 526 -213q199 -211 199 -562q0 -180 -55.5 -323t-166.5 -254q-98 -98 -225 -147.5t-278 -49.5q-150 0 -279 49q-125 47 -225 148q-109 109 -166 254q-55 141 -55 323z M344 745.5q0 -331.5 125 -499.5t370.5 -168t370.5 168t125 499.5t-125 499.5t-370.5 168t-370.5 -168t-125 -499.5zM529 1768q0 47 34.5 81.5t82 34.5t82 -34.5t34.5 -81.5q0 -51 -32.5 -84t-84.5 -33q-49 0 -81 33q-35 35 -35 84zM918 1768q0 47 34.5 81.5t82 34.5 t82 -34.5t34.5 -81.5q0 -49 -35 -84q-33 -33 -81 -33q-51 0 -84 33t-33 84z" />
<glyph unicode="&#x22b;" horiz-adv-x="1232" d="M317 1693v148h598v-148h-598zM102 532q0 254 140 406q141 154 374 154q231 0 372.5 -154t141.5 -406q0 -254 -141 -407.5t-372.5 -153.5t-373 153.5t-141.5 407.5zM317 532q0 -231 76 -346q78 -117 223.5 -116.5t223.5 116.5q76 115 75 346q0 229 -75 345 q-78 117 -223.5 116.5t-223.5 -116.5q-76 -116 -76 -345zM305 1452q0 47 34.5 82t82 35t82 -35t34.5 -82q0 -51 -32.5 -84t-84 -33t-84 33t-32.5 84zM694 1452q0 47 34.5 82t82 35t82 -35t34.5 -82q0 -51 -32.5 -84t-84 -33t-84 33t-32.5 84z" />
<glyph unicode="&#x22c;" horiz-adv-x="1677" d="M543 2066v148h598v-148h-598zM115 745q0 182 55 324q57 145 166 254q98 98 223 147.5t281 49.5q326 0 526 -213q199 -211 199 -562q0 -180 -55.5 -323t-166.5 -254q-98 -98 -225 -147.5t-278 -49.5q-150 0 -279 49q-125 47 -225 148q-109 109 -166 254q-55 141 -55 323z M344 745.5q0 -331.5 125 -499.5t370.5 -168t370.5 168t125 499.5t-125 499.5t-370.5 168t-370.5 -168t-125 -499.5zM510 1667q4 104 54 160q53 59 135 59q33 0 67.5 -10t85.5 -39l49 -26q27 -14 45 -21q20 -6 39 -6q39 0 64 27q25 29 24 75h97q-4 -106 -54 -161 q-51 -57 -145 -58q-70 0 -139 45l-4 2l-49 29q-31 18 -41 21q-20 6 -37 6q-41 0 -66 -29q-27 -29 -28 -74h-97z" />
<glyph unicode="&#x22d;" horiz-adv-x="1232" d="M309 1693v148h598v-148h-598zM102 532q0 254 140 406q141 154 374 154q231 0 372.5 -154t141.5 -406q0 -254 -141 -407.5t-372.5 -153.5t-373 153.5t-141.5 407.5zM317 532q0 -231 76 -346q78 -117 223.5 -116.5t223.5 116.5q76 115 75 346q0 229 -75 345 q-78 117 -223.5 116.5t-223.5 -116.5q-76 -116 -76 -345zM286 1309q4 137 54 209q51 74 141 73q41 0 69 -14q41 -20 70 -47l57 -55q23 -23 39.5 -31t38.5 -8q43 0 68 41q23 39 26 114h97q-4 -137 -54 -209q-51 -74 -141 -73q-41 0 -69 14q-41 20 -70 47l-57 55 q-23 23 -43.5 31t-34.5 8q-41 0 -66 -39q-23 -37 -28 -116h-97z" />
<glyph unicode="&#x22e;" horiz-adv-x="1677" d="M723 1768q0 47 35 81.5t82 34.5t82 -34.5t35 -81.5q0 -51 -33 -84t-84 -33t-84 33t-33 84zM115 745q0 182 55 324q57 145 166 254q98 98 223 147.5t281 49.5q326 0 526 -213q199 -211 199 -562q0 -180 -55.5 -323t-166.5 -254q-98 -98 -225 -147.5t-278 -49.5 q-150 0 -279 49q-125 47 -225 148q-109 109 -166 254q-55 141 -55 323zM344 745.5q0 -331.5 125 -499.5t370.5 -168t370.5 168t125 499.5t-125 499.5t-370.5 168t-370.5 -168t-125 -499.5z" />
<glyph unicode="&#x22f;" horiz-adv-x="1232" d="M499 1452q0 47 35 82t82 35t82 -35t35 -82q0 -51 -33 -84t-84 -33t-84 33t-33 84zM102 532q0 254 140 406q141 154 374 154q231 0 372.5 -154t141.5 -406q0 -254 -141 -407.5t-372.5 -153.5t-373 153.5t-141.5 407.5zM317 532q0 -231 76 -346q78 -117 223.5 -116.5 t223.5 116.5q76 115 75 346q0 229 -75 345q-78 117 -223.5 116.5t-223.5 -116.5q-76 -116 -76 -345z" />
<glyph unicode="&#x230;" horiz-adv-x="1677" d="M541 2066v148h598v-148h-598zM723 1825q0 47 35 82t82 35t82 -35t35 -82q0 -51 -33 -84t-84 -33t-84 33t-33 84zM115 745q0 182 55 324q57 145 166 254q98 98 223 147.5t281 49.5q326 0 526 -213q199 -211 199 -562q0 -180 -55.5 -323t-166.5 -254q-98 -98 -225 -147.5 t-278 -49.5q-150 0 -279 49q-125 47 -225 148q-109 109 -166 254q-55 141 -55 323zM344 745.5q0 -331.5 125 -499.5t370.5 -168t370.5 168t125 499.5t-125 499.5t-370.5 168t-370.5 -168t-125 -499.5z" />
<glyph unicode="&#x231;" horiz-adv-x="1232" d="M317 1693v148h598v-148h-598zM499 1452q0 47 35 82t82 35t82 -35t35 -82q0 -51 -33 -84t-84 -33t-84 33t-33 84zM102 532q0 254 140 406q141 154 374 154q231 0 372.5 -154t141.5 -406q0 -254 -141 -407.5t-372.5 -153.5t-373 153.5t-141.5 407.5zM317 532 q0 -231 76 -346q78 -117 223.5 -116.5t223.5 116.5q76 115 75 346q0 229 -75 345q-78 117 -223.5 116.5t-223.5 -116.5q-76 -116 -76 -345z" />
<glyph unicode="&#x232;" horiz-adv-x="1351" d="M375 1693v148h598v-148h-598zM-23 1386v107h555v-107h-174l373 -604l373 604h-168v107h434v-107h-141l-449 -724v-556h191v-106h-584v106h191v537l-461 743h-140z" />
<glyph unicode="&#x233;" horiz-adv-x="1155" d="M272 1378v148h598v-148h-598zM-6 956v107h489v-107h-170l299 -731l299 731h-159v107h399v-107h-119l-487 -1196q-49 -125 -111 -170q-59 -45 -172 -45q-53 0 -96 9q-72 12 -100 22v203h94q6 -66 35 -98q27 -29 88 -29q53 0 88 31q35 33 71 122l70 177l-397 974h-121z" />
<glyph unicode="&#x234;" horiz-adv-x="1024" d="M59 1450v106h361v-1024q0 -160 37 -264q139 139 329 140q203 0 203 -238q0 -199 -270 -199q-152 0 -260 72q-8 -27 -8 -119v-143h-113v143q4 104 27 180l-19 21q-111 172 -110 407v918h-177zM514 164q68 -94 207 -94q160 -4 160 106q0 123 -113 123q-182 -4 -254 -135z " />
<glyph unicode="&#x235;" horiz-adv-x="1701" d="M74 956v107h360v-189q53 109 133 162q84 55 189 56q178 0 260 -100.5t82 -315.5v-144q0 -178 37 -264q139 139 329 140q203 0 203 -238q0 -199 -270 -199q-152 0 -260 72q-8 -27 -9 -119v-143h-112v143q4 104 26 180l-18 21q-111 172 -111 407v86q0 193 -49 266.5 t-168 73.5q-125 0 -194 -94q-68 -92 -68 -272v-486h160v-106h-510v106h166v850h-176zM1194 164q68 -94 205 -94q160 -4 160 106q0 123 -111 123q-182 -4 -254 -135z" />
<glyph unicode="&#x236;" horiz-adv-x="1009" d="M59 956v107h162v330h185v-330h346v-107h-346v-424q0 -160 36 -264q139 139 330 140q205 0 205 -238q0 -199 -272 -199q-152 0 -261 72q-8 -27 -8 -119v-143h-112v143q4 104 26 180l-18 21q-111 172 -111 407v424h-162zM502 164q68 -94 205 -94q160 -4 159 106 q0 123 -110 123q-182 -4 -254 -135z" />
<glyph unicode="&#x237;" horiz-adv-x="634" d="M-197 -170h95q6 -95 49 -141q43 -45 125 -45q92 0 135 61.5t43 190.5v1060h-174v107h358v-1167q0 -166 -98 -258.5t-268 -92.5q-68 0 -138 17q-66 16 -127 49v219z" />
<glyph unicode="&#x238;" horiz-adv-x="1964" d="M102 532q0 252 123 406t322 154q123 0 207 -48q82 -45 137 -147v553h-176v106h360v-659q55 102 137 147q84 47 207 48q197 0 320 -154q125 -156 125 -406q0 -246 -125 -405q-123 -156 -320 -156q-123 0 -207 47q-82 45 -137 148v-166h-184v166q-55 -102 -137 -148 q-84 -47 -207 -47q-195 0 -320 155.5t-125 405.5zM317 532q0 -223 72 -333q74 -113 215 -113q139 0 213 100.5t74 292.5v105q0 190 -74 293q-74 100 -213 100t-215 -113q-72 -107 -72 -332zM1075 479q0 -193 74 -293t213 -100t213 112.5t74 334t-74 331.5q-76 113 -213 113 q-139 0 -213 -100q-74 -102 -74 -293v-105z" />
<glyph unicode="&#x239;" horiz-adv-x="1964" d="M102 532q0 252 123 406t322 154q123 0 207 -48q82 -45 137 -147v59v107h184v-107v-59q55 102 137 147q84 47 207 48q197 0 320 -154q125 -156 125 -406q0 -246 -125 -405q-123 -156 -320 -156q-123 0 -207 47q-82 45 -137 148v-485h174h2v-107h-2h-532v107h174v485 q-55 -102 -137 -148q-84 -47 -207 -47q-195 0 -320 155.5t-125 405.5zM317 532q0 -223 72 -333q74 -113 215 -113q139 0 213 100.5t74 292.5v105q0 190 -74 293q-74 100 -213 100t-215 -113q-72 -107 -72 -332zM1075 479q0 -193 74 -293t213 -100t213 112.5t74 334 t-74 331.5q-76 113 -213 113q-139 0 -213 -100q-74 -102 -74 -293v-105z" />
<glyph unicode="&#x23a;" horiz-adv-x="1478" d="M-12 0v106h98l55 62l510 1325h168l158 -408l420 465l80 -71l-459 -504l334 -869h147v-106h-543v106h166l-125 328h-471l-270 -299l-12 -29h164v-106h-277l-51 -57l-64 57h-28zM358 403l27 31h-16zM410 541h71l334 368l-131 342zM625 541h333l-100 258z" />
<glyph unicode="&#x23b;" horiz-adv-x="1566" d="M45 12l217 240q-59 82 -92 170q-55 143 -55 323q0 348 200.5 561.5t530.5 213.5q121 0 260 -31q102 -25 217 -68l119 129l80 -71l-119 -129v-303h-113q-14 72 -41 133l-809 -889q16 -29 27 -43q123 -170 362 -170q166 0 275 80q106 78 156 237h184 q-66 -211 -221.5 -317.5t-393.5 -106.5q-145 0 -272 49q-121 47 -221 148l-4 4l-207 -229zM344 745q0 -209 49 -352l799 883q-18 23 -49 47q-113 90 -314 90q-240 0 -362 -170q-123 -169 -123 -498z" />
<glyph unicode="&#x23c;" horiz-adv-x="1146" d="M37 -31l170 201q-104 144 -105 362q0 254 142 408q139 152 372 152q100 0 201 -25q59 -12 115 -33l102 123l76 -63l-92 -111v-258h-107q-8 55 -24 102l-512 -610q10 -20 16 -31q77 -117 227 -116q120 0 191 61q72 61 96 188h148q-41 -172 -149.5 -260t-287.5 -88 q-209 0 -344 123l-159 -188zM317 532q0 -123 21 -206l493 589q-2 2 -6 7.5t-6 7.5q-70 63 -201 63q-147 0 -225 -116q-76 -116 -76 -345z" />
<glyph unicode="&#x23d;" horiz-adv-x="1359" d="M39 629v170h264v587h-190v107h583v-107h-190v-587h264v-170h-264v-506h682v250h123v-373h-1198v106h190v523h-264z" />
<glyph unicode="&#x23e;" horiz-adv-x="1363" d="M-53 12l635 703v659h-439v-233h-123v352h1268l51 57l80 -71l-73 -82v-256h-123v121l-439 -484v-672h191v-106h-584v106h191v451l-557 -614zM784 936l398 438h-398v-438z" />
<glyph unicode="&#x23f;" horiz-adv-x="1050" d="M115 59v248h106q3 -120 74 -178q72 -59 209 -59q123 0 188.5 47t65.5 135q0 70 -47 113q-45 43 -201 92l-133 45q-133 41 -199 110q-61 63 -61 168q0 147 106.5 229.5t296.5 82.5q80 0 176 -23q102 -25 193 -63v-232h-107q-2 102 -71 162q-66 57 -185 57q-117 0 -176 -41 t-59 -123q0 -70 45 -108.5t180 -81.5l146 -45q150 -45 217 -116.5t67 -182.5q0 -154 -115 -238q-117 -86 -319 -86q-53 0 -109 6l5 -10l73 -162q41 -90 72 -122q29 -31 109 -31q45 0 71 29q29 33 35 98h92v-203q-33 -10 -98 -22q-43 -8 -111 -9q-145 0 -205 39 q-94 63 -143 176l-78 183q-27 66 -61 96q-33 12 -49 20z" />
<glyph unicode="&#x240;" horiz-adv-x="1077" d="M82 0v86l666 870h-527v-184h-106v291h870v-86l-666 -871h48q229 0 338 -229l34 -72q45 -96 72 -122q28 -31 68 -31q45 0 71 29q29 33 35 98h94v-203q-31 -10 -100 -22q-43 -8 -111 -9q-104 0 -163 39q-94 59 -144 176l-41 95q-61 145 -223 145h-215z" />
<glyph unicode="&#x241;" horiz-adv-x="1193" d="M76 1208v219q59 33 128.5 49.5t137.5 16.5h295q223 0 354 -112.5t131 -307t-131 -307.5q-133 -115 -354 -115h-49v-545h231v-106h-624v106h190v654h203q150 0 225 80q80 84 80 233.5t-80 233.5q-76 80 -225 79h-246q-84 0 -121 -36q-43 -43 -49 -142h-96z" />
<glyph unicode="&#x242;" horiz-adv-x="948" d="M76 809v217q59 33 128.5 49.5t137.5 16.5h49q223 0 354.5 -113t131.5 -305q0 -197 -132 -309q-90 -78 -221 -103v-156h234v-106h-606v106h190v252q150 0 227.5 82t77.5 234q0 150 -78 231q-77 80 -227 80q-84 0 -121 -37q-43 -43 -49 -139h-96z" />
<glyph unicode="&#x245;" horiz-adv-x="1478" d="M-12 0v106h131l532 1387h168l533 -1387h147v-106h-543v106h166l-438 1145l-440 -1145h164v-106h-420z" />
<glyph unicode="&#x250;" horiz-adv-x="1220" d="M102 956v107h349v-115q63 76 141 109q82 35 186 35q178 0 281 -95q104 -96 104 -254q0 -164 -119 -256q-117 -90 -335 -90h-258v-73q0 -121 73 -189q76 -66 205 -65q109 0 176 51q65 49 80 147h96v-215q-96 -41 -186 -61q-84 -20 -176 -21q-221 0 -336 109 q-117 111 -117 319v557h-164zM451 504h235q135 0 205 59q68 59 67 180q0 113 -67 177q-70 66 -184.5 65.5t-186.5 -72.5q-70 -70 -69 -184v-225z" />
<glyph unicode="&#x251;" horiz-adv-x="1310" d="M102 532q0 252 123 406t322 154q123 0 207 -48q82 -45 137 -147v166h360v-107h-176v-850h176v-106h-360v166q-55 -102 -137 -148q-84 -47 -207 -47q-195 0 -320 155.5t-125 405.5zM317 532q0 -223 72 -333q74 -113 215 -113q139 0 213 100.5t74 292.5v105q0 190 -74 293 q-74 100 -213 100t-215 -113q-72 -107 -72 -332z" />
<glyph unicode="&#x252;" horiz-adv-x="1310" d="M102 0v106h177v850h-177v107h361v-166q55 102 137 147q80 47 207 48q197 0 319 -156q125 -152 125 -406q0 -248 -125 -403.5t-319 -155.5q-123 0 -207 47q-84 49 -137 148v-166h-361zM463 479q0 -193 73.5 -293t213 -100t215.5 113q72 113 71.5 332t-71.5 333 q-74 113 -215 113q-139 0 -213 -100q-74 -102 -74 -293v-105z" />
<glyph unicode="&#x253;" horiz-adv-x="1310" d="M59 0v106h177v867v231q0 166 98 258q96 94 268 94q68 0 137 -16q78 -23 127 -49v-219h-94q-6 92 -49 139q-43 45 -125 45q-92 0 -133 -59q-43 -57 -43 -193v-237l-2 -70q55 102 137 147q80 47 207 48q197 0 319 -154q125 -156 125 -406q0 -246 -125 -405 q-125 -156 -319 -156q-123 0 -207 47q-84 49 -137 148v-166h-361zM420 479q0 -193 73.5 -293t213.5 -100q143 0 213 113q74 113 73.5 334t-73.5 331q-72 113 -213 113q-139 0 -213 -100q-74 -102 -74 -293v-105z" />
<glyph unicode="&#x254;" horiz-adv-x="1146" d="M102 743q41 172 149.5 260.5t287.5 88.5q231 0 372.5 -154t141.5 -408t-142 -407q-141 -152 -372 -152q-100 0 -201 25q-102 23 -201 70v272h107q20 -139 92 -205q70 -63 201 -63q147 0 225 114q76 115 76 346.5t-76 346.5q-74 117 -225 116q-120 0 -191 -61 q-72 -61 -96 -189h-148z" />
<glyph unicode="&#x255;" horiz-adv-x="1146" d="M102 532.5q0 253.5 142 407.5q141 152 372 152q100 0 201 -25q102 -23 201 -70v-272h-107q-20 139 -92 205q-70 63 -201 63q-147 0 -225 -114q-76 -115 -76 -347q0 -166 35 -264q125 131 383 131q266 0 260 -229q-2 -199 -379 -199q-152 0 -260 72q-8 -27 -8 -119v-143 h-115l3 143q4 104 26 180q-6 6 -10 11.5t-8 9.5q-142 154 -142 407.5zM412 164q68 -90 206 -94q266 -2 267 106q0 127 -219 123q-182 -4 -254 -135z" />
<glyph unicode="&#x256;" horiz-adv-x="1323" d="M102 532q0 252 123 406t322 154q127 0 207 -48q82 -45 137 -147v553h-174v106h358v-1660q0 -129 43 -190.5t135 -61.5q82 0 125 45q43 46 49 141h95v-219q-61 -33 -127 -49q-57 -16 -138 -17q-172 0 -270 93q-96 94 -96 258v231v39q-53 -98 -137 -148q-84 -47 -207 -47 q-195 0 -322 156q-123 156 -123 405zM317 532q0 -223 72 -333q70 -113 215 -113q139 0 213 100.5t74 292.5v105q0 190 -74 293q-74 100 -213 100q-143 0 -215 -113q-72 -107 -72 -332z" />
<glyph unicode="&#x257;" horiz-adv-x="1396" d="M102 532q0 252 123 406t322 154q127 0 207 -48q82 -45 137 -147v307q0 168 96 258q96 94 268 94q70 0 140 -16q78 -23 127 -49v-219h-97q-6 92 -49 139q-43 45 -125 45q-92 0 -133 -59q-43 -57 -43 -193v-1098h176v-106h-360v166q-53 -98 -137 -148q-84 -47 -207 -47 q-195 0 -322 156q-123 156 -123 405zM317 532q0 -223 72 -333q70 -113 215 -113q139 0 213 100.5t74 292.5v105q0 190 -74 293q-74 100 -213 100q-143 0 -215 -113q-72 -107 -72 -332z" />
<glyph unicode="&#x258;" horiz-adv-x="1210" d="M102 512q6 285 134 432q129 147 370 148q225 0 365 -154q139 -156 139 -406q0 -254 -141.5 -407.5t-374.5 -153.5q-193 0 -311 88q-121 92 -162 263h147q31 -123 109 -189q76 -63 198 -63q158 0 238 110q82 111 82 324v8h-793zM319 618h576q-16 184 -88 279 q-74 96 -201 96q-137 0 -209 -96q-72 -93 -78 -279z" />
<glyph unicode="&#x259;" horiz-adv-x="1210" d="M102 551h793v8q0 213 -82 326q-80 109 -238 108q-123 0 -198 -63q-78 -66 -109 -189h-147q41 170 162 263q119 88 311 88q233 0 374.5 -154t141.5 -408q0 -250 -139 -405q-139 -154 -365 -154q-242 0 -370 150q-128 145 -134 430zM319 444q6 -188 78 -280q70 -94 209 -94 q127 0 201 96q72 94 88 278h-576z" />
<glyph unicode="&#x25a;" horiz-adv-x="1726" d="M121 741q41 170 162 263q119 88 311 88q233 0 375 -154q27 -29 53 -70l272 156h115v-59q0 -131 66 -191q68 -61 149 -61q139 0 152 45l73 -78q-77 -49 -80 -49q-46 -18 -141 -19q-111 0 -209 95q-84 80 -96 213l-254 -148q41 -111 41 -242q0 -250 -139 -405 q-139 -154 -365 -154q-242 0 -370 150q-100 115 -113 229l743 428q-18 63 -53 107q-80 109 -238 108q-123 0 -198 -63q-78 -61 -109 -189h-147zM332 350q4 -102 65 -186q70 -94 209 -94q135 0 201 96q63 90 88 364v29q0 58 -6 111z" />
<glyph unicode="&#x25b;" horiz-adv-x="1060" d="M100 268q0 135 107 213q71 55 190 80q-74 16 -137 55q-100 68 -100 195q0 131 96 196.5t295 65.5q59 0 158 -14q111 -18 217 -49v-222h-109q-12 88 -84 136q-70 45 -166 45q-233 0 -233 -168q0 -190 258 -191h92v-104h-92q-156 0 -236 -64q-74 -61 -73 -176 q0 -80 53 -129q84 -82 229 -82q117 0 201 54q82 51 92 155h109v-231q-98 -33 -213 -53q-104 -18 -185 -19q-225 0 -348 80q-121 77 -121 227z" />
<glyph unicode="&#x25c;" horiz-adv-x="1040" d="M104 33v231h105q0 -104 94 -155q84 -53 201 -54q143 0 227 82q53 49 53 129q0 115 -73 176q-80 63 -236 64h-90v104h92q256 0 256 191q0 168 -231 168q-96 0 -166 -45q-72 -47 -84 -136h-109v222q111 31 215 49q98 14 158 14q199 0 295 -65q98 -68 98 -197 q0 -127 -102 -195q-66 -39 -135 -55q120 -25 190 -80q100 -74 105 -213q0 -147 -121 -227q-125 -80 -346 -80q-80 0 -185 19q-117 20 -211 53z" />
<glyph unicode="&#x25d;" horiz-adv-x="1581" d="M100 33v231h109q10 -102 94 -155.5t201 -53.5q143 0 227 82q53 49 53 129q0 115 -73 176q-80 63 -236 64h-90v104h92q256 0 256 191q0 168 -231 168q-96 0 -166 -45q-72 -47 -84 -136h-109v222q111 31 215 49q98 14 158 14q199 0 295 -65q92 -66 98 -181l242 213h113v-61 q0 -131 65 -191q68 -61 152 -61q104 0 149 45l76 -78q-45 -35 -82 -49q-49 -16 -139 -16q-117 0 -211 92q-82 78 -94 213l-326 -277q-29 -29 -47 -41q-66 -39 -135 -55q120 -25 190 -80q100 -74 105 -213q0 -150 -121 -227q-125 -80 -346 -80q-80 0 -185 19q-119 20 -215 53 z" />
<glyph unicode="&#x25e;" horiz-adv-x="1255" d="M102 528q0 309 340 490q58 31 160 55q78 18 152 19q197 0 303 -76t106 -219q0 -100 -76 -172q-78 -72 -210 -97q133 -25 210 -96q76 -72 76 -174q0 -141 -106 -217q-109 -78 -303 -78q-29 0 -152 21q-55 6 -160 55q-340 149 -340 489zM274 524q0 -258 240 -397 q12 -12 113 -45q37 -12 98 -12q111 0 168 51q55 49 55 147q0 106 -69.5 157.5t-208.5 51.5h-37v101h37q137 0 209 53q70 51 69 157q0 98 -55 148q-57 51 -168 51q-8 0 -98 -18q-47 -10 -113 -45q-240 -124 -240 -400z" />
<glyph unicode="&#x25f;" horiz-adv-x="643" d="M-197 -170h95q6 -95 49 -141q43 -45 125 -45q92 0 135 61.5t43 190.5v569h-176v104h176v387h-174v107h358v-494h174v-104h-174v-569q0 -166 -98 -258.5t-268 -92.5q-68 0 -138 17q-66 16 -127 49v219z" />
<glyph unicode="&#x260;" horiz-adv-x="1398" d="M102 532q0 221 123 375q125 156 322 156h344v141q0 168 96 258q96 94 270 94q68 0 138 -16q78 -23 127 -49v-219h-95q-6 92 -49 139q-43 45 -125 45q-94 0 -135 -59q-43 -61 -43 -193v-12v-1169q0 -229 -127 -353q-125 -125 -358 -125q-106 0 -201 19q-86 16 -184 57v223 h96q18 -104 84 -151q68 -49 193 -49q160 0 237 92q76 90 76 287v143q-55 -102 -137 -148q-84 -47 -207 -47q-195 0 -320 155.5t-125 405.5zM317 532q0 -223 72 -333q74 -113 215 -113q139 0 213 100.5t74 292.5v105l2 372h-289q-139 0 -215 -112q-72 -107 -72 -312z" />
<glyph unicode="&#x261;" horiz-adv-x="1310" d="M102 532q0 221 123 375q125 156 322 156h704v-107h-176v-933q0 -225 -127 -353q-125 -125 -358 -125q-106 0 -201 19q-86 16 -184 57v223h96q18 -104 84 -151q68 -49 193 -49q160 0 237 92q76 90 76 287v143q-55 -102 -137 -148q-84 -47 -207 -47q-195 0 -320 155.5 t-125 405.5zM317 532q0 -223 72 -333q74 -113 215 -113q139 0 213 100.5t74 292.5v105l2 372h-289q-139 0 -215 -112q-72 -107 -72 -312z" />
<glyph unicode="&#x262;" horiz-adv-x="1112" d="M102 522q0 258 144 410q145 152 383 151q78 0 184 -22q106 -25 205 -64v-272h-107q-27 156 -92 205q-82 63 -201 63q-129 0 -221 -121q-90 -121 -90 -360q0 -242 92 -358q80 -100 318 -101q61 0 133 31q49 20 63 31l-2 284h-196v78h340v-401q-94 -57 -201 -84 q-111 -29 -229 -29q-237 0 -381 154q-142 153 -142 405zM618 -33zM629 57z" />
<glyph unicode="&#x263;" horiz-adv-x="1456" d="M94 961v106h592v-106h-176l244 -324l221 319h-193v107h490v-107h-168l-287 -413q151 -212 234 -375q98 -193 98 -326q0 -152 -117 -225q-114 -74 -344 -74q-209 0 -293 105q-51 63 -51 172q0 123 96 327q59 127 174 318l-360 496h-160zM459 -209q0 -55 33 -88 q51 -53 190 -53q129 0 186 47q39 33 39 90q0 145 -65 305q-53 129 -162 277q-82 -137 -137 -265q-84 -192 -84 -313z" />
<glyph unicode="&#x264;" horiz-adv-x="1153" d="M143 911v109q92 70 201 70q111 0 258 -207q147 203 348 202h4q47 0 78 -57v-74h-104v19q0 47 -47 47h-2q-66 0 -213 -223q90 -147 153 -279q96 -199 96 -323q0 -80 -41 -121q-106 -106 -333 -107q-150 0 -258 107q-49 45 -50 127q0 104 78 258q63 123 178 284 q-154 274 -202 275q-41 0 -41 -88v-19h-103zM362 184q0 -59 52 -86q46 -25 129 -24q88 0 147 65q37 43 37 80q0 63 -55 195q-35 80 -123 243q-89 -126 -135 -239q-52 -128 -52 -234z" />
<glyph unicode="&#x265;" horiz-adv-x="1318" d="M55 956v107h351v-619q0 -195 49 -266q47 -72 168 -72q127 0 194.5 94.5t67.5 272.5v483h-160v107h344v-1382h174v-107h-358l-174 2v105h174v507q-51 -106 -131 -161.5t-189 -55.5q-180 0 -262 100.5t-82 315.5v569h-166z" />
<glyph unicode="&#x266;" horiz-adv-x="1318" d="M84 0v106h166v867v231q0 166 98 258q96 94 268 94q68 0 138 -16q78 -23 127 -49v-219h-95q-6 90 -51 139q-43 45 -123 45q-94 0 -135 -59q-43 -57 -43 -193v-330q51 106 131 162q83 55 191 56q178 0 260 -100.5t82 -315.5v-570h164v-106h-508v106h159v512q0 195 -47 267 q-49 72 -170 71q-125 0 -194 -94q-68 -92 -68 -270v-486h160v-106h-510z" />
<glyph unicode="&#x267;" horiz-adv-x="1318" d="M84 0v106h166v867v231q0 166 98 258q96 94 268 94q68 0 138 -16q78 -23 127 -49v-219h-95q-6 90 -51 139q-43 45 -123 45q-94 0 -135 -59q-43 -57 -43 -193v-237v-93q51 106 131 162q83 55 191 56q178 0 260 -100.5t82 -315.5v-549v-231q0 -163 -99 -258 q-98 -92 -268 -93q-80 0 -137 17q-66 16 -127 49v219h94q6 -92 51 -141q43 -45 123 -45q92 0 135 61.5t43 190.5v231v491q0 195 -47 267q-49 72 -170 71q-125 0 -194 -94q-68 -92 -68 -270v-486h160v-106h-510z" />
<glyph unicode="&#x268;" horiz-adv-x="653" d="M199 1393q0 47 32 80q35 35 82 34q43 0 78 -34.5t35 -79.5q0 -47 -33 -80t-80 -33q-49 0 -81.5 33t-32.5 80zM74 0v106h176v359h-176v104h176v387h-176v107h360v-494h174v-104h-174v-359h174v-106h-534z" />
<glyph unicode="&#x269;" horiz-adv-x="802" d="M74 956v107h360v-713q0 -131 41 -190q43 -61 135 -62v-98q-172 0 -268 94q-92 90 -92 256v606h-176z" />
<glyph unicode="&#x26a;" horiz-adv-x="653" d="M74 0v106h176v850h-176v107h534v-102h-174v-855h174v-106h-534z" />
<glyph unicode="&#x26b;" horiz-adv-x="778" d="M74 600q4 139 53 211q51 72 141 72q14 0 39 -4v571h-178v106h363v-813q4 -4 12 -8q16 -8 39 -8q41 0 65 41q27 41 29 115h96q-4 -137 -53 -209q-53 -74 -141 -74q-27 0 -47 6v-500h174v-106h-537v106h178v637q0 2 -4 2t-4 3q-16 8 -35 8q-41 0 -65 -39q-23 -37 -29 -117 h-96z" />
<glyph unicode="&#x26c;" horiz-adv-x="929" d="M74 664q0 231 235 231q84 0 146 -57v612h-176v106h360v-993h244v-98h-244v-359h174v-106h-534v106h176v363q-381 0 -381 195zM293 672q0 -104 151 -109q-20 223 -94 223q-57 1 -57 -114z" />
<glyph unicode="&#x26d;" horiz-adv-x="741" d="M59 1450v106h361v-1660q0 -129 43 -190.5t135 -61.5q82 0 125 45q41 43 47 141h96v-219q-59 -33 -129 -49q-57 -16 -137 -17q-170 0 -268 93q-96 94 -96 258v1554h-177z" />
<glyph unicode="&#x26e;" horiz-adv-x="1441" d="M59 0v106h177v1344h-177v106h361v-493h866v-86l-368 -483l77 -7q184 -27 287 -149q100 -119 100 -313q0 -233 -141 -359q-143 -125 -403 -125q-113 0 -227.5 29t-223.5 86v324h113q8 -158 98 -244q88 -84 244 -84q154 0 241 100q88 96 88 271q0 201 -90 299 q-92 102 -268 102h-94v100l330 432h-527v-184h-102v-666h174v-106h-535z" />
<glyph unicode="&#x26f;" horiz-adv-x="1941" d="M74 985v107h350v-656q0 -166 47 -231q51 -70 160 -70q121 0 186.5 94.5t65.5 270.5v485h-160v107h344v-662q0 -160 47 -225q51 -70 160 -70q123 0 188 94q63 90 64 271v485h-160v107h344v-959h176v-104h-360v188q-53 -109 -129 -162q-80 -55 -180 -55q-123 0 -207 61.5 t-111 174.5q-53 -119 -135 -177q-80 -59 -193 -59q-166 0 -249 104q-82 102 -82 312v569h-166z" />
<glyph unicode="&#x270;" horiz-adv-x="1941" d="M74 985v107h350v-656q0 -166 47 -231q51 -70 160 -70q121 0 186.5 94.5t65.5 270.5v485h-160v107h344v-662q0 -160 47 -225q51 -70 160 -70q123 0 188 94q63 90 64 271v485h-160v107h344v-1411h176v-107h-534v107h174v536q-53 -109 -129 -162q-80 -55 -180 -55 q-123 0 -207 61.5t-111 174.5q-53 -119 -135 -177q-80 -59 -193 -59q-166 0 -249 104q-82 102 -82 312v569h-166z" />
<glyph unicode="&#x271;" horiz-adv-x="1941" d="M74 958v105h360v-189q53 109 129 162q80 55 180 56q125 0 207 -62q84 -61 111 -174q53 119 135 176q80 59 193 60q168 0 249 -105q82 -102 82 -311v-780q0 -164 -96 -258q-98 -92 -268 -93q-80 0 -137 17q-70 16 -129 49v219h96q6 -95 49 -141q43 -45 125 -45 q90 0 133 61.5t43 190.5v759q0 166 -47 232q-51 70 -160 69q-121 0 -186.5 -94t-65.5 -270v-486h160v-106h-504v106h160v556q0 162 -47 227q-49 68 -160 67q-123 0 -188 -94q-63 -90 -64 -270v-486h160v-106h-510v106h166v852h-176z" />
<glyph unicode="&#x272;" horiz-adv-x="1316" d="M-197 -170h95q6 -92 51 -141q43 -45 123 -45q92 0 135 61.5t43 190.5v1060h-176v107h358v-189q53 109 133 162q80 55 191 56q176 0 258 -101q84 -102 84 -315v-570h164v-106h-508v106h157v512q0 197 -47 269q-49 72 -170 71q-127 0 -194 -94q-68 -92 -68 -272 q0 -117 1 -349.5t1 -346.5q0 -163 -98 -258q-98 -92 -268 -93q-80 0 -138 17q-66 16 -127 49v219z" />
<glyph unicode="&#x273;" horiz-adv-x="1419" d="M74 956v107h360v-189q51 106 131 162q83 55 191 56q174 0 260 -101q82 -96 82 -315v-780q0 -129 43 -190.5t135 -61.5q82 0 125 45q43 46 49 141h94v-219q-59 -33 -129 -49q-57 -16 -135 -17q-172 0 -270 93q-96 94 -97 258v722q0 195 -49 269q-49 72 -168 71 q-127 0 -194 -94q-68 -92 -68 -272v-486h160v-106h-510v106h166v850h-176z" />
<glyph unicode="&#x274;" horiz-adv-x="1320" d="M84 0v106h139v850h-137v107h383l469 -774v667h-201v107h525v-107h-142l-2 -985h-180l-528 828l-2 -693h200v-106h-524z" />
<glyph unicode="&#x275;" horiz-adv-x="1232" d="M102 532.5q0 253.5 140 405.5q141 154 374 154q231 0 372.5 -154t141.5 -406q0 -254 -141 -407.5t-372.5 -153.5t-373 154t-141.5 407.5zM317 569h596q-6 200 -73 308q-78 117 -224 116q-150 0 -225 -116q-68 -108 -74 -308zM319 465q10 -180 74 -279 q78 -117 223.5 -116.5t223.5 116.5q63 98 73 279h-594z" />
<glyph unicode="&#x276;" horiz-adv-x="1617" d="M102 535q0 248 154 389q152 139 428 139h862v-238h-96v131h-479v-327h342v123h94v-353h-94v123h-342v-416h491v130h97v-236h-875q-274 0 -428 141.5t-154 393.5zM319 524.5q0 -202.5 105 -313.5q100 -111 291 -113l26 -2l45 10v850l-47 -10l-24 2q-182 6 -291 -110 q-105 -111 -105 -313.5z" />
<glyph unicode="&#x277;" horiz-adv-x="1325" d="M102 399q0 80 19 160q25 106 55 168q180 358 490 358q313 0 493 -358q31 -61 55 -168q18 -80 19 -160q0 -203 -78 -315.5t-217 -112.5q-104 0 -174 78q-70 80 -98 223q-25 -145 -94.5 -223t-174.5 -78q-141 0 -219 113q-76 108 -76 315zM313 430q0 -365 90 -364 q61 0 123 196q33 104 33 227v39h215v-39q0 -117 35 -227q61 -197 123 -196q90 0 90 364q0 166 -57 342q-92 197 -299 201q-201 4 -295 -201q-58 -176 -58 -342z" />
<glyph unicode="&#x278;" horiz-adv-x="1232" d="M102 532.5q0 253.5 140 405.5q115 123 284 147v365h-176v106h535v-104h-174v-367q164 -25 278 -147q141 -154 141 -406q0 -254 -141 -407q-115 -123 -278 -148v-296h174v-107h-535v107h176v296q-169 25 -282 148q-142 154 -142 407.5zM317 532q0 -231 76 -346 q53 -78 133 -102v897q-80 -25 -135 -104q-74 -118 -74 -345zM711 84q82 29 129 102q76 121 75 346q0 223 -75 345q-47 74 -129 102v-895z" />
<glyph unicode="&#x279;" horiz-adv-x="1024" d="M74 -2v266h106q6 -82 43 -119q39 -39 115 -39q139 0 209 95q72 92 71 270v485h-212v107h563v-107h-166v-852h176v-104h-361v188q-55 -109 -139 -163q-88 -53 -207 -54q-45 0 -94 6q-28 5 -104 21z" />
<glyph unicode="&#x27a;" horiz-adv-x="1024" d="M74 -2v266h106q6 -82 43 -119q39 -39 115 -39q135 0 209 95q72 90 71 270v979h-212v104h563v-104h-166v-1346h176v-104h-361v188q-55 -109 -139 -163q-88 -53 -207 -54q-45 0 -94 6q-28 5 -104 21z" />
<glyph unicode="&#x27b;" horiz-adv-x="1128" d="M74 -2v266h106q6 -82 43 -119q39 -39 115 -39q139 0 209 95q72 92 71 270v485h-212v107h563v-107h-162v-829v-231q0 -129 43 -190.5t133 -61.5q82 0 125 45q39 43 49 141h94v-219q-61 -33 -127 -49q-57 -16 -137 -17q-170 0 -268 93q-94 90 -96 258l-5 104v188 q-55 -109 -139 -163q-88 -53 -207 -54q-45 0 -94 6q-28 5 -104 21z" />
<glyph unicode="&#x27c;" horiz-adv-x="978" d="M74 958v105h360v-189q57 115 139 164q82 53 207 54q45 0 94 -7q29 -4 105 -20v-266h-107q-6 82 -43 119q-39 39 -114 38q-135 0 -209 -94q-72 -96 -72 -270v-909h213v-107h-563v107h166v1275h-176z" />
<glyph unicode="&#x27d;" horiz-adv-x="978" d="M74 958v105h360v-189q57 115 139 164q82 53 207 54q45 0 94 -7q29 -4 105 -20v-266h-107q-6 82 -43 119q-39 39 -114 38q-135 0 -209 -94q-72 -96 -72 -270q0 -465 -2 -696q0 -131 41 -191q43 -61 135 -61q82 0 125 45q43 46 49 141h97v-219q-59 -33 -129 -49 q-57 -16 -138 -17q-170 0 -268 93q-96 94 -96 258v104v958h-174z" />
<glyph unicode="&#x27e;" horiz-adv-x="925" d="M84 0v106h166v523v104q0 164 96 258q100 94 268 94q74 0 138 -18q76 -18 129 -47v-219h-97q-6 92 -49 139q-43 45 -125 45q-92 0 -135 -61q-41 -59 -41 -191v-104v-523h213v-106h-563z" />
<glyph unicode="&#x27f;" horiz-adv-x="925" d="M84 801v219q53 29 129 47q65 18 135 18q170 0 270 -94q96 -94 97 -258v-104v-523h166v-106h-564v106h213v523v104q0 129 -43 190.5t-135 61.5q-82 0 -125 -45q-43 -47 -49 -139h-94z" />
<glyph unicode="&#x280;" horiz-adv-x="1214" d="M72 0l2 102h166l-2 859h-166v102h606q154 0 240 -74q84 -74 83 -211q0 -96 -63 -164q-59 -63 -182 -77q47 -14 86 -48q27 -23 63 -98l142 -289h145l-2 -102h-285l-166 338q-51 100 -88 127q-41 29 -108 29h-123v-392h133l-2 -102h-479zM420 598h174q111 0 158 49 q51 51 51 131q0 82 -51 131q-51 51 -158 52h-174v-363z" />
<glyph unicode="&#x281;" horiz-adv-x="1214" d="M72 0v102h166l2 859h-166l-2 102h479l2 -102h-133v-392h123q68 0 108 29q37 27 88 127l166 338h285l2 -102h-145l-142 -289q-37 -76 -63 -99q-39 -33 -86 -47q123 -14 182 -77q63 -68 63 -164q0 -137 -83 -211q-86 -74 -240 -74h-606zM420 102h174q106 0 158 52 q51 49 51 131q0 80 -51 131q-49 51 -158 51h-174v-365z" />
<glyph unicode="&#x282;" horiz-adv-x="1050" d="M115 -104v231v180h106q2 -119 76 -178v-2h2q74 -57 205 -57q123 0 188.5 47t65.5 135q0 70 -47 113q-45 43 -201 92l-133 45q-133 41 -199 110q-61 63 -61 168q0 147 106.5 229.5t296.5 82.5q80 0 176 -23q102 -25 193 -63v-232h-107q-2 102 -71 162q-66 57 -185 57 q-117 0 -176 -41t-59 -123q0 -70 45 -108.5t180 -81.5l146 -45q150 -45 217 -116.5t67 -182.5q0 -154 -115 -238q-117 -86 -319 -86q-98 0 -201 23l-12 2v-100q0 -129 43 -190.5t133 -61.5q82 0 125 45q43 46 49 141h96v-219q-61 -33 -127 -49q-57 -16 -139 -17 q-168 0 -266 93q-98 95 -98 258z" />
<glyph unicode="&#x283;" horiz-adv-x="555" d="M-197 -170h95q6 -92 51 -141q43 -45 123 -45q89 0 135 61q61 80 43 191q-106 645 -203 1312q-20 143 98 256q100 94 269 95q70 0 139 -17q66 -16 127 -49v-219h-96q-6 96 -49 139q-43 47 -125 47q-90 0 -134 -61q-59 -80 -43 -191q109 -762 201 -1312q22 -141 -98 -258 q-98 -92 -268 -93q-80 0 -138 17q-66 16 -127 49v219z" />
<glyph unicode="&#x284;" horiz-adv-x="757" d="M-197 -170h95q6 -95 49 -141q43 -45 125 -45q92 0 135 61.5t43 190.5v569h-176v104h176v387h-174h-2v107h2h174v133q0 176 92 268t272 92q66 0 134 -12q70 -12 133 -37v-202h-97q0 76 -43 114q-41 39 -120 39q-102 0 -146 -55q-41 -55 -41 -203v-137v-107v-387h174v-104 h-174v-569q0 -166 -98 -258.5t-268 -92.5q-68 0 -138 17q-66 16 -127 49v219z" />
<glyph unicode="&#x285;" horiz-adv-x="995" d="M74 801v219q49 27 127 49q70 16 139 16q170 0 266 -94q129 -123 99 -256l-201 -839q-18 -111 43 -191q46 -61 135 -61q80 0 123 45q43 46 49 141h96v-219q-61 -33 -127 -49q-57 -16 -139 -17q-168 0 -266 93q-129 126 -99 258l201 839q15 111 -43 191q-43 61 -135 61 q-80 0 -123 -45q-43 -46 -49 -141h-96z" />
<glyph unicode="&#x286;" horiz-adv-x="663" d="M-197 -256q-6 229 533 229h8q-195 1221 -188 1235q-23 141 98 256q100 94 268 95q68 0 137 -17q66 -16 127 -49v-219h-94q-6 96 -49 139q-43 47 -125 47q-90 0 -133 -61q-59 -80 -43 -191q109 -754 197 -1288q123 -86 125 -305v-66h-101v66q0 94 -31 156 q-20 -70 -88 -133q-100 -92 -262 -93q-377 0 -379 199zM20 -250q0 -106 160 -106q89 0 135 61q53 74 45 168h-28q-312 0 -312 -123z" />
<glyph unicode="&#x287;" horiz-adv-x="821" d="M59 813q10 145 78 211q72 68 217 68q162 0 226 -70q66 -72 65 -240v-676h162v-106h-162v-330h-184v330h-346v106h346v676q0 131 -27 172q-27 39 -96 39q-71 0 -105 -43q-31 -41 -34 -137h-140z" />
<glyph unicode="&#x288;" horiz-adv-x="821" d="M59 956v107h162v330h185v-330h346v-107h-346v-1073q0 -133 26.5 -172t95.5 -39q71 0 105 43q31 41 35 138h139q-8 -143 -80 -211q-71 -68 -215 -68q-162 0 -225 70q-66 72 -66 239v1073h-162z" />
<glyph unicode="&#x289;" horiz-adv-x="1318" d="M55 465v104h166v387h-166v107h351v-494h479v387h-160v107h344v-494h174v-104h-174v-359h174v-106h-358v188q-51 -106 -131 -161.5t-189 -55.5q-180 0 -262 100.5t-82 315.5v78h-166zM406 444q0 -195 49 -266q47 -72 168 -72q127 0 194 95q65 92 68 264h-479v-21z" />
<glyph unicode="&#x28a;" horiz-adv-x="1269" d="M102 510q0 156 91 287q88 127 243 192h-334v107h447v-164q-119 -45 -180.5 -149.5t-61.5 -256.5q0 -184 90 -297q94 -113 238 -112q147 0 237 112q90 109 91 297q0 152 -62 256q-63 104 -178 150v164h356v-107h-243q154 -63 241 -192q90 -131 90 -287q0 -113 -43 -207 q-43 -98 -123 -172q-72 -70 -165 -102q-90 -35 -201 -35q-106 0 -201 35q-90 33 -166 102q-78 70 -123 172q-43 98 -43 207z" />
<glyph unicode="&#x28b;" horiz-adv-x="1243" d="M74 956v107h360v-713q0 -131 41 -190q43 -61 135 -62q125 -2 238 131q90 104 90 297q0 156 -59 256q-61 102 -181 150v57h113q156 -66 244 -192q90 -131 90 -287q0 -113 -43 -207q-43 -98 -123 -172q-72 -68 -168 -102q-90 -35 -201 -35q-166 6 -268 100q-92 82 -92 256 v606h-176z" />
<glyph unicode="&#x28c;" horiz-adv-x="1155" d="M-6 0v106h119l391 957h135l391 -957h121v-106h-489v106h169l-299 732l-299 -732h160v-106h-399z" />
<glyph unicode="&#x28d;" horiz-adv-x="1751" d="M33 0v106h119l315 957h154l262 -795l262 795h147l316 -957h118v-106h-481v106h172l-237 723l-275 -829h-129l-272 829l-240 -723h154v-106h-385z" />
<glyph unicode="&#x28e;" horiz-adv-x="1155" d="M-6 0v106h119l487 1197q49 125 111 170q59 45 172 45q55 0 98 -9q66 -12 98 -22v-203h-94q-6 66 -35 98q-29 29 -88 29q-55 0 -88 -31q-35 -33 -72 -123l-69 -176l397 -975h121v-106h-489v106h169l-299 732l-299 -732h160v-106h-399z" />
<glyph unicode="&#x28f;" horiz-adv-x="1341" d="M84 952v111l551 2v-111l-186 -2l272 -440l272 440h-198v111l475 2v-111l-187 -2l-325 -526v-322l184 2v-106l-518 -2v104l186 2v308l-336 540h-190z" />
<glyph unicode="&#x290;" horiz-adv-x="1222" d="M82 0v86l666 870h-527v-184h-106v291h870v-86l-666 -871h685v-210q0 -132 43 -191q43 -61 135 -61q80 0 123 45q45 49 51 141h94v-219q-61 -33 -127 -49q-57 -16 -137 -17q-169 0 -271 93q-96 90 -96 258v104h-737z" />
<glyph unicode="&#x291;" horiz-adv-x="1146" d="M82 0v86l666 870h-527v-184h-106v291h870v-86l-666 -871l228 -2q2 326 303 326q160 0 160 -229q0 -201 -330 -201v-190h-133v190h-465zM680 109q219 0 219 98q0 121 -63 121q-156 0 -156 -219z" />
<glyph unicode="&#x292;" horiz-adv-x="1155" d="M102 -20h111q8 -158 98 -244q88 -84 244 -84t244 100q88 96 88 271q0 199 -92 299q-92 102 -267 102h-96v100l332 432h-528v-184h-107v291h870v-86l-368 -483l80 -7q180 -27 284 -149q102 -121 103 -313q0 -233 -142 -359q-143 -125 -403 -125q-115 0 -229 29 q-111 28 -222 86v324z" />
<glyph unicode="&#x293;" horiz-adv-x="1146" d="M129 772v291h870v-86l-368 -483l80 -7q180 -27 284 -149q102 -121 103 -313q0 -233 -142 -359l-36 -28q14 -70 14 -95h-115l-8 54q-160 -55 -258 -56q-377 0 -381 201q-6 233 260 229q305 -4 410 -157q45 84 45 209q0 199 -92 299q-92 102 -267 102h-96v100l332 432h-528 v-184h-107zM391 -252q0 -96 164 -96q137 0 213 80q-76 139 -266 139q-111 0 -111 -123z" />
<glyph unicode="&#x294;" horiz-adv-x="1097" d="M233 0v106h177v725h116q88 0 133 64q43 61 43 254q0 188 -43 249.5t-133 61.5q-82 0 -125 -47q-43 -43 -49 -139h-96v219q59 33 129 49.5t137 16.5q168 0 269 -95q98 -92 98 -315q0 -227 -98 -324q-80 -74 -197 -84v-635h174v-106h-174h-184h-177z" />
<glyph unicode="&#x295;" horiz-adv-x="1097" d="M233 1149q0 223 99 315q100 94 268 95q68 0 137 -17q66 -16 127 -49v-219h-94q-6 96 -49 139q-43 47 -125 47q-90 0 -133 -61.5t-43 -249.5q0 -193 43 -254q45 -63 133 -64h117v-725h176v-106h-176h-185h-174v106h174v635q-117 10 -196 84q-99 97 -99 324z" />
<glyph unicode="&#x296;" horiz-adv-x="1097" d="M233 1452v107h177h184h174v-107h-174v-635q114 -9 197 -86q98 -96 98 -321q0 -223 -98 -316q-96 -94 -269 -94q-68 0 -137 16q-82 25 -129 50v219h96q6 -95 49 -142q43 -45 125 -45q90 0 133 61.5t43 250.5q0 195 -43 256q-41 59 -133 59h-116v727h-177z" />
<glyph unicode="&#x297;" horiz-adv-x="1050" d="M115 -104v229v1079q0 163 98 258q98 92 266 92q82 0 139 -16q66 -16 127 -49v-219h-96q-6 95 -49 141q-43 45 -125 45q-90 0 -133 -61q-43 -58 -43 -191v-1077v-231q0 -129 43 -190.5t133 -61.5q82 0 125 45q43 46 49 141h96v-219q-61 -33 -127 -49q-57 -16 -139 -17 q-168 0 -266 93q-98 95 -98 258z" />
<glyph unicode="&#x298;" horiz-adv-x="1677" d="M115 745.5q0 182.5 55 323.5q57 145 166 254q98 98 223 147.5t281 49.5q326 0 526 -213q199 -211 199 -562q0 -180 -55.5 -323t-166.5 -254q-98 -98 -225 -147.5t-278 -49.5q-150 0 -279 49q-125 47 -225 148q-109 109 -166 254q-55 141 -55 323.5zM344 745.5 q0 -331.5 125 -499.5t370.5 -168t370.5 168t125 499.5t-125 499.5t-370.5 168t-370.5 -168t-125 -499.5zM725 745.5q0 45.5 35 79.5q31 33 80 33q47 0 80 -33q33 -37 32 -80q0 -47 -32.5 -79.5t-79.5 -32.5q-49 0 -80 33q-35 34 -35 79.5z" />
<glyph unicode="&#x299;" horiz-adv-x="1150" d="M74 0v106h166v850h-166v107h588q348 0 348 -262q0 -96 -62 -152q-63 -57 -178 -69q297 -35 297 -273q0 -158 -106 -231q-111 -76 -334 -76h-553zM424 106h205q117 0 180 55.5t63 147.5q0 90 -63.5 145.5t-179.5 55.5h-205v-404zM424 641h170q100 0 162 45q57 43 57 113 q0 68 -57.5 112.5t-161.5 44.5h-170v-315z" />
<glyph unicode="&#x29a;" horiz-adv-x="1255" d="M102 258q0 102 74 174q78 72 211 96q-133 25 -211 97q-74 72 -74 174q0 141 106.5 217t303.5 76q41 0 152 -19q53 -6 157 -55q342 -152 342 -490q0 -307 -342 -489q-59 -31 -157 -55q-86 -20 -152 -21q-195 0 -303 78q-107 76 -107 217zM315 268q0 -96 57.5 -147 t166.5 -51q10 0 100 18q47 10 113 45q240 123 239 399q0 258 -239 398q-12 12 -113 45q-37 12 -100 12q-109 0 -166.5 -51t-57.5 -148q0 -106 70 -157q72 -53 211 -53h37v-99h-37q-139 0 -211 -53q-70 -52 -70 -158z" />
<glyph unicode="&#x29b;" horiz-adv-x="1337" d="M102 522q0 258 144 410q145 152 383 151q84 0 184 -22l18 -4v147q0 166 99 258q96 94 268 94q68 0 137 -16q78 -23 127 -49v-219h-94q-10 96 -49 139q-43 45 -125 45q-94 0 -135 -59q-43 -57 -43 -193v-207h2v-272h-107q-27 156 -92 205q-82 63 -201 63q-129 0 -221 -121 q-90 -121 -90 -360q0 -236 92 -358q80 -100 318 -101q61 0 133 31q49 20 63 31l-2 284h-196v78h340v-401q-94 -57 -201 -84q-111 -29 -229 -29q-237 0 -381 154q-142 153 -142 405z" />
<glyph unicode="&#x29c;" horiz-adv-x="1363" d="M70 0v106h166v850h-166v107h516v-107h-166v-317h487v317h-166v107h516v-107h-165v-850h165v-106h-516v106h166v410h-487v-410h166v-106h-516z" />
<glyph unicode="&#x29d;" horiz-adv-x="747" d="M320 1393q0 47 32 80q35 35 82 34q43 0 78 -34.5t35 -79.5q0 -47 -33 -80t-80 -33q-49 0 -81.5 33t-32.5 80zM-197 -256q0 229 260 229q195 0 302 -59v1042h-175v107h359v-1167q0 -111 -35 -187q43 -98 49 -164h-112l-19 76q-100 -76 -250 -76q-379 0 -379 199zM20 -250 q0 -94 166 -94q127 0 164 129q-55 88 -219 88q-111 0 -111 -123z" />
<glyph unicode="&#x29e;" horiz-adv-x="1239" d="M59 956v107h525v-107h-154l320 -436l145 135v408h348v-107h-166l2 -1278h178v-106h-538v106h178l-2 842l-449 -414h152v-106h-479v106h180l317 293l-403 557h-154z" />
<glyph unicode="&#x29f;" horiz-adv-x="1320" d="M84 0v106h190v850h-190v107h584v-107h-191v-833h461v250h123v-373h-977z" />
<glyph unicode="&#x2a0;" horiz-adv-x="1398" d="M102 532q0 252 123 406t322 154q127 0 207 -48q82 -45 137 -147v76v231q0 168 96 258q96 94 270 94q68 0 138 -16q78 -23 127 -49v-219h-95q-6 92 -49 139q-43 45 -125 45q-94 0 -135 -59q-43 -57 -43 -193v-1523h176v-107h-534v107h174v485q-53 -98 -137 -148 q-84 -47 -207 -47q-195 0 -322 156q-123 156 -123 405zM317 532q0 -223 72 -333q70 -113 215 -113q139 0 213 100.5t74 292.5v105q0 190 -74 293q-74 100 -213 100q-143 0 -215 -113q-72 -107 -72 -332z" />
<glyph unicode="&#x2a1;" horiz-adv-x="1097" d="M233 0v106h177v359h-177v104h177v262h116q88 0 133 64q43 61 43 254q0 188 -43 249.5t-133 61.5q-82 0 -125 -47q-43 -43 -49 -139h-96v219q59 33 129 49.5t137 16.5q168 0 269 -95q98 -92 98 -315q0 -227 -98 -324q-80 -74 -197 -84v-172h174v-104h-174v-359h174v-106 h-174h-184h-177z" />
<glyph unicode="&#x2a2;" horiz-adv-x="1097" d="M233 1149q0 223 99 315q100 94 268 95q68 0 137 -17q66 -16 127 -49v-219h-94q-6 96 -49 139q-43 47 -125 47q-90 0 -133 -61.5t-43 -249.5q0 -193 43 -254q45 -63 133 -64h117v-262h176v-104h-176v-359h176v-106h-176h-185h-174v106h174v359h-174v104h174v172 q-117 10 -196 84q-99 97 -99 324z" />
<glyph unicode="&#x2a3;" horiz-adv-x="2039" d="M102 532q0 252 123 406t322 154q123 0 207 -48q82 -45 137 -147v553h-174v106h358v-493h871v-86l-666 -871h578v193h106v-299h-713h-209h-151v166q-55 -102 -137 -148q-84 -47 -207 -47q-195 0 -320 155.5t-125 405.5zM317 532q0 -223 72 -333q74 -113 215 -113 q139 0 213 100.5t74 292.5v105q0 190 -74 293q-74 100 -213 100t-215 -113q-72 -107 -72 -332zM1075 129l633 827h-526v-184h-107v-643z" />
</font>
</defs>
</svg>
